<svg version="1.1" id="Layer_1" xmlns="http://www.w3.org/2000/svg" xmlns:xlink="http://www.w3.org/1999/xlink" x="0px" y="0px"
	 width="100%" viewBox="0 0 1884 2000" enable-background="new 0 0 1884 2000" xml:space="preserve">
<path fill="#FF6B00" opacity="1.000000" stroke="none" 
	d="
M305.000000,1.000000 
	C755.032715,1.000000 1205.065430,1.000000 1655.749756,1.359390 
	C1661.306274,2.398453 1666.310669,2.667299 1671.099609,3.826370 
	C1696.643188,10.008567 1716.182373,24.882959 1730.432373,46.581059 
	C1741.702393,63.741394 1747.053467,82.716690 1746.974243,103.502876 
	C1746.708252,173.287048 1746.912720,243.073029 1746.650635,313.176758 
	C1746.240601,315.814514 1746.009521,318.133789 1746.009155,320.453125 
	C1745.991211,423.598969 1746.006104,526.744812 1745.991333,629.890625 
	C1745.954590,886.511169 1745.907959,1143.131714 1745.851440,1399.752197 
	C1745.849365,1409.120605 1746.757080,1408.034302 1737.576538,1408.034546 
	C1311.651611,1408.048828 885.726624,1408.045166 459.801666,1408.049438 
	C408.312225,1408.049927 356.822784,1408.082764 305.262390,1407.630249 
	C305.159851,1405.327759 305.100586,1403.495605 305.100555,1401.663452 
	C305.096344,1214.703247 304.481079,1027.740356 305.269745,840.783447 
	C306.058838,653.723633 302.567474,466.658752 307.545776,279.593842 
	C309.765869,196.171066 307.995239,112.641388 307.948547,29.160278 
	C307.944275,21.517754 307.399628,13.868834 306.868652,6.239402 
	C306.771637,4.845395 305.524414,3.531434 304.954224,1.901332 
	C305.066864,1.414761 305.033417,1.207380 305.000000,1.000000 
M1010.379700,1059.500122 
	C1010.379700,966.074219 1010.379700,872.648315 1010.379700,778.850830 
	C1096.076172,778.850830 1181.026733,778.850830 1266.183716,778.850830 
	C1266.183716,732.778931 1266.183716,687.081665 1266.183716,641.042236 
	C1180.866699,641.042236 1095.972412,641.042236 1010.729736,641.042236 
	C1010.729736,578.885132 1010.729736,517.123047 1010.729736,454.500549 
	C1111.130615,454.500549 1211.329956,454.500549 1312.544434,454.500549 
	C1312.544434,407.454102 1312.544434,361.267670 1312.544434,315.230896 
	C1147.005493,315.230896 981.621826,315.230896 816.357056,315.230896 
	C816.357056,574.731323 816.357056,833.796387 816.357056,1092.787842 
	C881.170227,1092.787842 945.586914,1092.787842 1010.379822,1092.787842 
	C1010.379822,1081.789673 1010.379822,1071.144897 1010.379700,1059.500122 
z"/>
<path fill="#923B00" opacity="1.000000" stroke="none" 
	d="
M305.333374,1408.100586 
	C356.822784,1408.082764 408.312225,1408.049927 459.801666,1408.049438 
	C885.726624,1408.045166 1311.651611,1408.048828 1737.576538,1408.034546 
	C1746.757080,1408.034302 1745.849365,1409.120605 1745.851440,1399.752197 
	C1745.907959,1143.131714 1745.954590,886.511169 1745.991333,629.890625 
	C1746.006104,526.744812 1745.991211,423.598969 1746.009155,320.453125 
	C1746.009521,318.133789 1746.240601,315.814514 1747.121948,313.226624 
	C1793.586548,312.972046 1839.293213,312.986023 1885.000000,313.000000 
	C1885.000000,875.592896 1885.000000,1438.185791 1885.000000,2001.000000 
	C1337.979126,2001.000000 790.958191,2001.000000 243.310974,2000.665649 
	C239.448364,1999.203125 236.207581,1998.087769 232.976608,1996.944458 
	C211.501312,1989.345093 194.792511,1975.828613 182.218628,1956.843262 
	C171.302734,1940.361328 165.138748,1922.392456 165.115982,1902.688721 
	C164.977264,1782.565430 165.016342,1662.441650 165.082214,1542.318115 
	C165.091248,1525.867676 165.579681,1509.417358 166.011627,1492.664062 
	C167.776672,1491.188721 169.295319,1489.881592 170.987656,1488.863281 
	C215.758636,1461.924194 260.547546,1435.014893 305.333374,1408.100586 
M915.517090,1599.025757 
	C909.501587,1611.267578 905.028809,1624.137695 904.894592,1637.775513 
	C904.498108,1678.069824 903.406921,1718.428223 905.140076,1758.651489 
	C906.712524,1795.145508 925.928040,1821.916748 959.578613,1836.585815 
	C994.129272,1851.647461 1029.813721,1852.006104 1065.501831,1840.284180 
	C1094.944092,1830.613770 1116.121704,1811.582764 1126.491333,1782.133789 
	C1133.785767,1761.417969 1132.806030,1739.833740 1129.329468,1718.435791 
	C1126.946533,1703.768555 1120.445190,1690.919922 1110.432617,1679.949463 
	C1078.733398,1645.217407 1018.402100,1641.083618 981.545166,1671.047241 
	C980.205261,1672.136597 978.828857,1673.181152 977.164551,1674.485596 
	C977.164551,1659.732788 976.570557,1645.615723 977.366333,1631.577637 
	C977.928833,1621.653198 981.302368,1611.942017 989.283020,1605.381470 
	C1002.622742,1594.415649 1018.247375,1592.478149 1034.588135,1596.733276 
	C1049.164917,1600.529053 1058.663208,1609.702148 1061.447876,1625.052490 
	C1082.776855,1625.052490 1103.810547,1625.052490 1124.840698,1625.052490 
	C1125.033203,1594.682251 1103.906860,1564.611450 1074.688110,1553.841919 
	C1047.269409,1543.735962 1019.039001,1540.651123 990.178589,1546.082642 
	C957.541992,1552.225098 931.359314,1567.754395 915.517090,1599.025757 
M1280.504639,1848.234985 
	C1295.426880,1848.604980 1310.049927,1846.639893 1324.517334,1843.004272 
	C1364.491699,1832.958618 1387.877686,1807.078857 1395.325317,1767.159668 
	C1397.804565,1753.870972 1397.468872,1739.976807 1397.613647,1726.350708 
	C1397.859741,1703.200073 1397.587402,1680.041260 1397.284058,1656.889038 
	C1397.155762,1647.099609 1397.286987,1637.178223 1395.770874,1627.557983 
	C1389.322998,1586.644653 1366.315918,1560.080566 1326.012329,1549.028320 
	C1302.094238,1542.469238 1277.928223,1542.242554 1253.712036,1546.601807 
	C1204.131714,1555.527100 1173.660400,1588.243164 1171.283936,1638.419312 
	C1169.465576,1676.810181 1169.408936,1715.414795 1171.152954,1753.806885 
	C1172.822266,1790.558838 1189.670410,1819.400146 1224.406006,1835.573608 
	C1241.865234,1843.703003 1260.293823,1847.702148 1280.504639,1848.234985 
M658.519653,1627.688599 
	C677.139404,1627.688599 695.759216,1627.688599 714.494934,1627.688599 
	C717.120972,1609.471191 727.970581,1599.223999 744.870422,1595.683228 
	C766.150024,1591.224854 789.801514,1599.178345 788.907837,1629.683594 
	C788.387573,1647.444336 779.832764,1657.922607 762.495056,1661.599609 
	C758.765503,1662.390381 754.913940,1662.894287 751.106934,1662.974487 
	C741.844666,1663.169434 732.575500,1663.037842 723.298584,1663.037842 
	C723.298584,1679.888184 723.298584,1696.093872 723.298584,1712.615356 
	C725.832886,1712.615356 727.982422,1712.538330 730.124878,1712.628296 
	C740.909546,1713.081909 751.823486,1712.692261 762.445618,1714.264038 
	C779.270630,1716.753784 795.285095,1725.293091 796.952393,1749.846802 
	C798.672607,1775.180298 788.409912,1790.883545 765.490662,1795.640991 
	C745.136353,1799.865845 724.055786,1792.109985 714.462097,1776.455200 
	C711.897034,1772.269531 710.432312,1767.409546 708.616333,1763.214600 
	C686.124329,1763.214600 663.583069,1763.214600 641.002625,1763.214600 
	C640.904907,1764.490479 640.761353,1764.983765 640.851257,1765.430054 
	C641.245483,1767.387695 641.670105,1769.341064 642.150085,1771.279541 
	C649.592102,1801.335205 665.627319,1824.811646 695.264648,1836.277710 
	C737.480408,1852.609985 780.018127,1852.808228 821.616760,1834.141724 
	C844.218689,1823.999756 861.567200,1807.845581 867.375366,1782.607666 
	C869.589600,1772.986572 870.175781,1762.818604 870.198364,1752.896851 
	C870.275391,1719.093262 853.657043,1701.535645 824.403076,1689.835693 
	C818.918945,1687.642212 813.138733,1686.189087 807.092163,1684.266113 
	C813.546143,1681.814087 819.874084,1679.840942 825.828430,1677.066040 
	C842.895508,1669.112305 856.156189,1657.520386 859.680298,1637.938354 
	C861.856384,1625.846802 861.202454,1613.575439 858.288086,1601.716309 
	C853.107361,1580.635254 838.725159,1566.869629 820.095642,1557.307495 
	C798.208008,1546.072998 774.514832,1542.747314 750.247864,1543.573975 
	C722.547974,1544.517578 697.205566,1552.532837 675.492981,1570.451660 
	C657.656616,1585.171509 649.679016,1604.940063 645.594238,1627.688599 
	C649.981689,1627.688599 653.755920,1627.688599 658.519653,1627.688599 
z"/>
<path fill="#FF9447" opacity="1.000000" stroke="none" 
	d="
M305.262421,1407.630249 
	C260.547546,1435.014893 215.758636,1461.924194 170.987656,1488.863281 
	C169.295319,1489.881592 167.776672,1491.188721 165.715652,1492.806519 
	C163.914032,1494.217041 162.635300,1495.284424 161.224487,1496.132202 
	C140.637573,1508.503052 120.015800,1520.815796 99.438110,1533.201904 
	C81.905197,1543.755249 64.404678,1554.362671 46.914829,1564.987305 
	C31.591864,1574.295166 16.303629,1583.660278 1.000028,1593.000000 
	C1.000000,1123.312500 1.000000,653.624878 1.360734,183.472168 
	C4.781332,181.087387 7.818953,179.131210 10.904659,177.254074 
	C31.367424,164.805832 51.811428,152.326355 72.318176,139.950897 
	C94.003189,126.864388 115.767929,113.910057 137.467224,100.847145 
	C163.370621,85.253372 189.254379,69.626915 215.122299,53.974369 
	C235.224365,41.810711 255.170135,29.383018 275.422791,17.476494 
	C284.929596,11.887422 294.995575,7.249495 304.808167,2.180522 
	C305.524414,3.531434 306.771637,4.845395 306.868652,6.239402 
	C307.399628,13.868834 307.944275,21.517754 307.948547,29.160278 
	C307.995239,112.641388 309.765869,196.171066 307.545776,279.593842 
	C302.567474,466.658752 306.058838,653.723633 305.269745,840.783447 
	C304.481079,1027.740356 305.096344,1214.703247 305.100555,1401.663452 
	C305.100586,1403.495605 305.159851,1405.327759 305.262421,1407.630249 
z"/>
<path fill="#47704C" opacity="1.000000" stroke="none" 
	d="
M1.000028,1593.468750 
	C16.303629,1583.660278 31.591864,1574.295166 46.914829,1564.987305 
	C64.404678,1554.362671 81.905197,1543.755249 99.438110,1533.201904 
	C120.015800,1520.815796 140.637573,1508.503052 161.224487,1496.132202 
	C162.635300,1495.284424 163.914032,1494.217041 165.550186,1493.109375 
	C165.579681,1509.417358 165.091248,1525.867676 165.082214,1542.318115 
	C165.016342,1662.441650 164.977264,1782.565430 165.115982,1902.688721 
	C165.138748,1922.392456 171.302734,1940.361328 182.218628,1956.843262 
	C194.792511,1975.828613 211.501312,1989.345093 232.976608,1996.944458 
	C236.207581,1998.087769 239.448364,1999.203125 242.842316,2000.665649 
	C162.387634,2001.000000 81.775284,2001.000000 1.000000,2001.000000 
	C1.000000,1865.312500 1.000000,1729.624878 1.000028,1593.468750 
z"/>
<path fill="#47704C" opacity="1.000000" stroke="none" 
	d="
M1885.000000,312.531342 
	C1839.293213,312.986023 1793.586548,312.972046 1747.408447,312.908203 
	C1746.912720,243.073029 1746.708252,173.287048 1746.974243,103.502876 
	C1747.053467,82.716690 1741.702393,63.741394 1730.432373,46.581059 
	C1716.182373,24.882959 1696.643188,10.008567 1671.099609,3.826370 
	C1666.310669,2.667299 1661.306274,2.398453 1656.200684,1.359390 
	C1732.271606,1.000000 1808.543091,1.000000 1885.000000,1.000000 
	C1885.000000,104.687485 1885.000000,208.375092 1885.000000,312.531342 
z"/>
<path fill="#47704C" opacity="1.000000" stroke="none" 
	d="
M304.954224,1.901332 
	C294.995575,7.249495 284.929596,11.887422 275.422791,17.476494 
	C255.170135,29.383018 235.224365,41.810711 215.122299,53.974369 
	C189.254379,69.626915 163.370621,85.253372 137.467224,100.847145 
	C115.767929,113.910057 94.003189,126.864388 72.318176,139.950897 
	C51.811428,152.326355 31.367424,164.805832 10.904659,177.254074 
	C7.818953,179.131210 4.781332,181.087387 1.360734,183.003510 
	C1.000000,122.387978 1.000000,61.775955 1.000000,1.000000 
	C102.020836,1.000000 203.041763,1.000000 304.531342,1.000000 
	C305.033417,1.207380 305.066864,1.414761 304.954224,1.901332 
z"/>
<path fill="#FFFFFF" opacity="1.000000" stroke="none" 
	d="
M1010.379761,1060.000244 
	C1010.379822,1071.144897 1010.379822,1081.789673 1010.379822,1092.787842 
	C945.586914,1092.787842 881.170227,1092.787842 816.357056,1092.787842 
	C816.357056,833.796387 816.357056,574.731323 816.357056,315.230896 
	C981.621826,315.230896 1147.005493,315.230896 1312.544434,315.230896 
	C1312.544434,361.267670 1312.544434,407.454102 1312.544434,454.500549 
	C1211.329956,454.500549 1111.130615,454.500549 1010.729736,454.500549 
	C1010.729736,517.123047 1010.729736,578.885132 1010.729736,641.042236 
	C1095.972412,641.042236 1180.866699,641.042236 1266.183716,641.042236 
	C1266.183716,687.081665 1266.183716,732.778931 1266.183716,778.850830 
	C1181.026733,778.850830 1096.076172,778.850830 1010.379700,778.850830 
	C1010.379700,872.648315 1010.379700,966.074219 1010.379761,1060.000244 
z"/>
<path fill="#FEFEFD" opacity="1.000000" stroke="none" 
	d="
M915.691528,1598.696533 
	C931.359314,1567.754395 957.541992,1552.225098 990.178589,1546.082642 
	C1019.039001,1540.651123 1047.269409,1543.735962 1074.688110,1553.841919 
	C1103.906860,1564.611450 1125.033203,1594.682251 1124.840698,1625.052490 
	C1103.810547,1625.052490 1082.776855,1625.052490 1061.447876,1625.052490 
	C1058.663208,1609.702148 1049.164917,1600.529053 1034.588135,1596.733276 
	C1018.247375,1592.478149 1002.622742,1594.415649 989.283020,1605.381470 
	C981.302368,1611.942017 977.928833,1621.653198 977.366333,1631.577637 
	C976.570557,1645.615723 977.164551,1659.732788 977.164551,1674.485596 
	C978.828857,1673.181152 980.205261,1672.136597 981.545166,1671.047241 
	C1018.402100,1641.083618 1078.733398,1645.217407 1110.432617,1679.949463 
	C1120.445190,1690.919922 1126.946533,1703.768555 1129.329468,1718.435791 
	C1132.806030,1739.833740 1133.785767,1761.417969 1126.491333,1782.133789 
	C1116.121704,1811.582764 1094.944092,1830.613770 1065.501831,1840.284180 
	C1029.813721,1852.006104 994.129272,1851.647461 959.578613,1836.585815 
	C925.928040,1821.916748 906.712524,1795.145508 905.140076,1758.651489 
	C903.406921,1718.428223 904.498108,1678.069824 904.894592,1637.775513 
	C905.028809,1624.137695 909.501587,1611.267578 915.691528,1598.696533 
M986.990051,1783.519409 
	C994.409180,1790.352905 1003.283325,1793.919678 1013.239990,1794.284546 
	C1037.438232,1795.171021 1054.672485,1785.505249 1058.026978,1762.171753 
	C1059.499634,1751.927368 1059.084717,1741.247559 1058.234009,1730.871338 
	C1056.921265,1714.861572 1046.226929,1704.560059 1030.094360,1702.913818 
	C1009.911560,1700.854370 992.847778,1707.909790 978.350891,1721.699097 
	C977.504578,1722.504028 976.837158,1723.940308 976.813538,1725.097656 
	C976.599670,1735.568726 976.149353,1746.058838 976.565063,1756.511719 
	C976.953491,1766.279053 979.177246,1775.680176 986.990051,1783.519409 
z"/>
<path fill="#FEFEFD" opacity="1.000000" stroke="none" 
	d="
M1280.006714,1848.234863 
	C1260.293823,1847.702148 1241.865234,1843.703003 1224.406006,1835.573608 
	C1189.670410,1819.400146 1172.822266,1790.558838 1171.152954,1753.806885 
	C1169.408936,1715.414795 1169.465576,1676.810181 1171.283936,1638.419312 
	C1173.660400,1588.243164 1204.131714,1555.527100 1253.712036,1546.601807 
	C1277.928223,1542.242554 1302.094238,1542.469238 1326.012329,1549.028320 
	C1366.315918,1560.080566 1389.322998,1586.644653 1395.770874,1627.557983 
	C1397.286987,1637.178223 1397.155762,1647.099609 1397.284058,1656.889038 
	C1397.587402,1680.041260 1397.859741,1703.200073 1397.613647,1726.350708 
	C1397.468872,1739.976807 1397.804565,1753.870972 1395.325317,1767.159668 
	C1387.877686,1807.078857 1364.491699,1832.958618 1324.517334,1843.004272 
	C1310.049927,1846.639893 1295.426880,1848.604980 1280.006714,1848.234863 
M1320.477417,1772.763550 
	C1325.282349,1757.963013 1325.644775,1742.665039 1325.614990,1727.313843 
	C1325.567749,1703.011841 1325.597168,1678.709839 1325.545776,1654.407837 
	C1325.520020,1642.220215 1324.828735,1630.122314 1320.661255,1618.475830 
	C1317.736816,1610.302979 1312.858154,1603.895752 1305.071289,1599.766724 
	C1280.333740,1586.649414 1252.050781,1598.738770 1244.992920,1625.696777 
	C1243.741089,1630.478271 1243.076782,1635.548340 1243.041138,1640.491577 
	C1242.793091,1674.980103 1242.767822,1709.470337 1242.716919,1743.959961 
	C1242.711670,1747.452148 1242.852295,1750.960205 1243.192993,1754.434692 
	C1245.713257,1780.132690 1258.267456,1792.849487 1282.522095,1794.375366 
	C1299.541870,1795.446045 1313.647217,1787.616699 1320.477417,1772.763550 
z"/>
<path fill="#FEFEFD" opacity="1.000000" stroke="none" 
	d="
M658.024902,1627.688599 
	C653.755920,1627.688599 649.981689,1627.688599 645.594238,1627.688599 
	C649.679016,1604.940063 657.656616,1585.171509 675.492981,1570.451660 
	C697.205566,1552.532837 722.547974,1544.517578 750.247864,1543.573975 
	C774.514832,1542.747314 798.208008,1546.072998 820.095642,1557.307495 
	C838.725159,1566.869629 853.107361,1580.635254 858.288086,1601.716309 
	C861.202454,1613.575439 861.856384,1625.846802 859.680298,1637.938354 
	C856.156189,1657.520386 842.895508,1669.112305 825.828430,1677.066040 
	C819.874084,1679.840942 813.546143,1681.814087 807.092163,1684.266113 
	C813.138733,1686.189087 818.918945,1687.642212 824.403076,1689.835693 
	C853.657043,1701.535645 870.275391,1719.093262 870.198364,1752.896851 
	C870.175781,1762.818604 869.589600,1772.986572 867.375366,1782.607666 
	C861.567200,1807.845581 844.218689,1823.999756 821.616760,1834.141724 
	C780.018127,1852.808228 737.480408,1852.609985 695.264648,1836.277710 
	C665.627319,1824.811646 649.592102,1801.335205 642.150085,1771.279541 
	C641.670105,1769.341064 641.245483,1767.387695 640.851257,1765.430054 
	C640.761353,1764.983765 640.904907,1764.490479 641.002625,1763.214600 
	C663.583069,1763.214600 686.124329,1763.214600 708.616333,1763.214600 
	C710.432312,1767.409546 711.897034,1772.269531 714.462097,1776.455200 
	C724.055786,1792.109985 745.136353,1799.865845 765.490662,1795.640991 
	C788.409912,1790.883545 798.672607,1775.180298 796.952393,1749.846802 
	C795.285095,1725.293091 779.270630,1716.753784 762.445618,1714.264038 
	C751.823486,1712.692261 740.909546,1713.081909 730.124878,1712.628296 
	C727.982422,1712.538330 725.832886,1712.615356 723.298584,1712.615356 
	C723.298584,1696.093872 723.298584,1679.888184 723.298584,1663.037842 
	C732.575500,1663.037842 741.844666,1663.169434 751.106934,1662.974487 
	C754.913940,1662.894287 758.765503,1662.390381 762.495056,1661.599609 
	C779.832764,1657.922607 788.387573,1647.444336 788.907837,1629.683594 
	C789.801514,1599.178345 766.150024,1591.224854 744.870422,1595.683228 
	C727.970581,1599.223999 717.120972,1609.471191 714.494934,1627.688599 
	C695.759216,1627.688599 677.139404,1627.688599 658.024902,1627.688599 
z"/>
<path fill="#933C02" opacity="1.000000" stroke="none" 
	d="
M986.734802,1783.266846 
	C979.177246,1775.680176 976.953491,1766.279053 976.565063,1756.511719 
	C976.149353,1746.058838 976.599670,1735.568726 976.813538,1725.097656 
	C976.837158,1723.940308 977.504578,1722.504028 978.350891,1721.699097 
	C992.847778,1707.909790 1009.911560,1700.854370 1030.094360,1702.913818 
	C1046.226929,1704.560059 1056.921265,1714.861572 1058.234009,1730.871338 
	C1059.084717,1741.247559 1059.499634,1751.927368 1058.026978,1762.171753 
	C1054.672485,1785.505249 1037.438232,1795.171021 1013.239990,1794.284546 
	C1003.283325,1793.919678 994.409180,1790.352905 986.734802,1783.266846 
z"/>
<path fill="#923C01" opacity="1.000000" stroke="none" 
	d="
M1320.323975,1773.120850 
	C1313.647217,1787.616699 1299.541870,1795.446045 1282.522095,1794.375366 
	C1258.267456,1792.849487 1245.713257,1780.132690 1243.192993,1754.434692 
	C1242.852295,1750.960205 1242.711670,1747.452148 1242.716919,1743.959961 
	C1242.767822,1709.470337 1242.793091,1674.980103 1243.041138,1640.491577 
	C1243.076782,1635.548340 1243.741089,1630.478271 1244.992920,1625.696777 
	C1252.050781,1598.738770 1280.333740,1586.649414 1305.071289,1599.766724 
	C1312.858154,1603.895752 1317.736816,1610.302979 1320.661255,1618.475830 
	C1324.828735,1630.122314 1325.520020,1642.220215 1325.545776,1654.407837 
	C1325.597168,1678.709839 1325.567749,1703.011841 1325.614990,1727.313843 
	C1325.644775,1742.665039 1325.282349,1757.963013 1320.323975,1773.120850 
z"/>
</svg>