<?xml version="1.0" encoding="UTF-8"?>
<svg version="1.1" xmlns="http://www.w3.org/2000/svg" width="342" height="319">
<path d="M0 0 C112.86 0 225.72 0 342 0 C342 105.27 342 210.54 342 319 C229.14 319 116.28 319 0 319 C0 213.73 0 108.46 0 0 Z " fill="#C6BEE5" transform="translate(0,0)"/>
<path d="M0 0 C4.46186796 1.56723112 8.13536757 3.99356843 12.0625 6.59765625 C13.77777534 7.70837671 15.49392939 8.81774128 17.2109375 9.92578125 C18.05237305 10.47169922 18.89380859 11.01761719 19.76074219 11.58007812 C22.86501026 13.57265664 26.01468147 15.46584664 29.1875 17.34765625 C45.58180068 27.09543324 61.8108469 37.14379675 77.8828125 47.4140625 C80.68363801 49.20088426 83.50855575 50.93230158 86.3671875 52.625 C87.35477051 53.22260132 87.35477051 53.22260132 88.36230469 53.83227539 C90.11160078 54.88904751 91.87178061 55.92774645 93.6328125 56.96484375 C96.125 59.09765625 96.125 59.09765625 97.2421875 62.04296875 C97.08610915 66.1114112 96.04758255 67.29398942 93.125 70.09765625 C90.82652478 71.6532464 88.59404235 73.05204505 86.1875 74.41015625 C84.83293144 75.19852862 83.47877146 75.9876034 82.125 76.77734375 C81.44953125 77.16760742 80.7740625 77.55787109 80.078125 77.95996094 C77.25265031 79.60579995 74.46959355 81.31721348 71.6875 83.03515625 C70.09808594 84.01548828 70.09808594 84.01548828 68.4765625 85.015625 C66.13413522 86.47076922 63.79541925 87.93068249 61.4609375 89.3984375 C53.10937841 94.64674866 44.70300782 99.78669417 36.21459961 104.81152344 C30.73265544 108.07289794 25.39936996 111.51042213 20.125 115.09765625 C21.88535854 120.37873186 27.53072905 122.30827746 32.125 125.09765625 C33.42363772 125.93738438 34.72044757 126.77994458 36.015625 127.625 C37.34332281 128.4707231 38.67144388 129.31578212 40 130.16015625 C40.62986816 130.57861816 41.25973633 130.99708008 41.90869141 131.42822266 C45.51027865 133.69537728 45.51027865 133.69537728 49.625 133.6171875 C50.45 133.11574219 51.275 132.61429688 52.125 132.09765625 C53.22070312 131.45054687 54.31640625 130.8034375 55.4453125 130.13671875 C56.71589422 129.33575103 57.98398586 128.53082418 59.25 127.72265625 C59.93433105 127.29291504 60.61866211 126.86317383 61.32373047 126.42041016 C65.30748856 123.91324357 69.25677339 121.35900992 73.1875 118.76953125 C74.03038574 118.22087402 74.87327148 117.6722168 75.74169922 117.10693359 C77.3862828 116.03540911 79.02366853 114.95273716 80.65283203 113.85791016 C84.90636285 111.09923042 87.86622255 109.23858879 93.125 110.09765625 C95.68449546 111.951084 96.10418798 113.03522018 97.125 116.09765625 C97.23763744 117.86525779 97.29402989 119.63668859 97.31787109 121.40771484 C97.33393402 122.49249115 97.34999695 123.57726746 97.36654663 124.69491577 C97.41100816 129.64588775 97.45204309 134.59672677 97.47509766 139.54785156 C97.49167707 142.16089776 97.51899268 144.77389825 97.55712891 147.38671875 C97.61181002 151.15258326 97.63375755 154.91738608 97.6484375 158.68359375 C97.67110687 159.85143402 97.69377625 161.01927429 97.71713257 162.22250366 C97.69600808 170.30960125 97.69600808 170.30960125 94.89819336 174.17089844 C93.98303955 174.80672852 93.06788574 175.44255859 92.125 176.09765625 C91.33633545 176.66081543 90.5476709 177.22397461 89.73510742 177.80419922 C88.90857666 178.31096191 88.0820459 178.81772461 87.23046875 179.33984375 C86.28727783 179.92330566 85.34408691 180.50676758 84.37231445 181.10791016 C83.36257568 181.72327637 82.35283691 182.33864258 81.3125 182.97265625 C79.14310546 184.31099742 76.97383819 185.6495449 74.8046875 186.98828125 C73.14131348 188.01018555 73.14131348 188.01018555 71.44433594 189.05273438 C66.25779504 192.24797316 61.09897748 195.48715348 55.9375 198.72265625 C47.59946548 203.93713788 39.256019 209.14301183 30.87988281 214.29614258 C26.34510118 217.08807903 21.83797676 219.91552105 17.359375 222.796875 C16.41022217 223.40128418 15.46106934 224.00569336 14.4831543 224.62841797 C12.66511568 225.78709807 10.85364869 226.95617718 9.05004883 228.13720703 C5.70664457 230.25571522 2.93920545 231.92281417 -0.94921875 232.7578125 C-5.28228496 231.78012466 -8.55451176 229.62889085 -12.25 227.22265625 C-13.04237061 226.72233887 -13.83474121 226.22202148 -14.65112305 225.70654297 C-16.28406336 224.67440606 -17.9135493 223.63678395 -19.53955078 222.59375 C-22.27343037 220.84242091 -25.02624906 219.12327026 -27.78295898 217.40820312 C-29.73298691 216.19434136 -31.67916955 214.97448344 -33.625 213.75390625 C-38.46616176 210.72243874 -43.32775283 207.7241997 -48.1875 204.72265625 C-56.53314101 199.56401399 -64.84509321 194.35496021 -73.12890625 189.09765625 C-76.47876438 186.9735273 -79.84258391 184.87352986 -83.21484375 182.78515625 C-84.08866699 182.24125244 -84.96249023 181.69734863 -85.86279297 181.13696289 C-87.54230792 180.09208354 -89.22480147 179.05197232 -90.91064453 178.01733398 C-91.6632959 177.54755127 -92.41594727 177.07776855 -93.19140625 176.59375 C-94.18829468 175.97777954 -94.18829468 175.97777954 -95.20532227 175.34936523 C-96.875 174.09765625 -96.875 174.09765625 -98.875 171.09765625 C-99.14064884 169.02736187 -99.14064884 169.02736187 -99.16261292 166.60124207 C-99.17547836 165.68023209 -99.18834381 164.75922211 -99.20159912 163.81030273 C-99.20540588 162.80193359 -99.20921265 161.79356445 -99.21313477 160.75463867 C-99.22467087 159.69094559 -99.23620697 158.6272525 -99.24809265 157.53132629 C-99.28246079 154.00524447 -99.30091329 150.47933773 -99.31640625 146.953125 C-99.32330915 145.74978327 -99.33021206 144.54644154 -99.33732414 143.3066349 C-99.37318274 136.93904101 -99.3967108 130.57153605 -99.41040039 124.20385742 C-99.4269583 117.62264882 -99.48539326 111.04251281 -99.55354404 104.46166515 C-99.5982932 99.40445944 -99.61189224 94.34751164 -99.61701775 89.29012489 C-99.62492108 86.86397993 -99.64459582 84.43784377 -99.67624092 82.01189232 C-99.71760924 78.61669564 -99.71486714 75.22421876 -99.70141602 71.82885742 C-99.72344086 70.82656097 -99.7454657 69.82426453 -99.76815796 68.79159546 C-99.67833442 62.11945987 -99.67833442 62.11945987 -97.3597002 59.17026615 C-95.59938158 57.63455955 -93.84784174 56.34416234 -91.875 55.09765625 C-90.95082275 54.46674072 -90.02664551 53.8358252 -89.07446289 53.18579102 C-88.1746167 52.64237061 -87.27477051 52.0989502 -86.34765625 51.5390625 C-85.32067627 50.91370605 -84.29369629 50.28834961 -83.2355957 49.64404297 C-82.14722412 48.98936035 -81.05885254 48.33467773 -79.9375 47.66015625 C-78.19142277 46.59996373 -76.44677816 45.53744009 -74.70219421 44.47479248 C-73.5122854 43.75016937 -72.32194467 43.02625506 -71.13117981 42.30303955 C-65.28201499 38.74796249 -59.48307515 35.11433133 -53.6875 31.47265625 C-44.83540428 25.92140381 -35.94210884 20.44279728 -26.99365234 15.0480957 C-22.64441943 12.4210499 -18.32931161 9.76625423 -14.08984375 6.96484375 C-13.36087891 6.48829346 -12.63191406 6.01174316 -11.88085938 5.52075195 C-10.55084027 4.6458468 -9.22960982 3.75735147 -7.91992188 2.85229492 C-5.20630425 1.07607476 -3.26616258 0.11094302 0 0 Z " fill="#1F1A1C" transform="translate(176.875,17.90234375)"/>
<path d="M0 0 C4.46186796 1.56723112 8.13536757 3.99356843 12.0625 6.59765625 C13.77777534 7.70837671 15.49392939 8.81774128 17.2109375 9.92578125 C18.05237305 10.47169922 18.89380859 11.01761719 19.76074219 11.58007812 C22.86501026 13.57265664 26.01468147 15.46584664 29.1875 17.34765625 C45.58180068 27.09543324 61.8108469 37.14379675 77.8828125 47.4140625 C80.68363801 49.20088426 83.50855575 50.93230158 86.3671875 52.625 C87.35477051 53.22260132 87.35477051 53.22260132 88.36230469 53.83227539 C90.11160078 54.88904751 91.87178061 55.92774645 93.6328125 56.96484375 C96.125 59.09765625 96.125 59.09765625 97.2421875 62.04296875 C97.08610915 66.1114112 96.04758255 67.29398942 93.125 70.09765625 C90.82652478 71.6532464 88.59404235 73.05204505 86.1875 74.41015625 C84.83293144 75.19852862 83.47877146 75.9876034 82.125 76.77734375 C81.44953125 77.16760742 80.7740625 77.55787109 80.078125 77.95996094 C77.25265031 79.60579995 74.46959355 81.31721348 71.6875 83.03515625 C70.09808594 84.01548828 70.09808594 84.01548828 68.4765625 85.015625 C66.13413522 86.47076922 63.79541925 87.93068249 61.4609375 89.3984375 C53.10937841 94.64674866 44.70300782 99.78669417 36.21459961 104.81152344 C30.73265544 108.07289794 25.39936996 111.51042213 20.125 115.09765625 C21.88535854 120.37873186 27.53072905 122.30827746 32.125 125.09765625 C33.42363772 125.93738438 34.72044757 126.77994458 36.015625 127.625 C37.34332281 128.4707231 38.67144388 129.31578212 40 130.16015625 C40.94480225 130.78784912 40.94480225 130.78784912 41.90869141 131.42822266 C45.51027865 133.69537728 45.51027865 133.69537728 49.625 133.6171875 C50.45 133.11574219 51.275 132.61429688 52.125 132.09765625 C53.22070312 131.45054687 54.31640625 130.8034375 55.4453125 130.13671875 C56.71589422 129.33575103 57.98398586 128.53082418 59.25 127.72265625 C59.93433105 127.29291504 60.61866211 126.86317383 61.32373047 126.42041016 C65.30748856 123.91324357 69.25677339 121.35900992 73.1875 118.76953125 C74.03038574 118.22087402 74.87327148 117.6722168 75.74169922 117.10693359 C77.3862828 116.03540911 79.02366853 114.95273716 80.65283203 113.85791016 C84.90636285 111.09923042 87.86622255 109.23858879 93.125 110.09765625 C95.68449546 111.951084 96.10418798 113.03522018 97.125 116.09765625 C97.22782326 117.87079898 97.27347861 119.64750751 97.28613281 121.42358398 C97.29574036 122.51158798 97.3053479 123.59959198 97.31524658 124.7205658 C97.3216214 126.48310448 97.3216214 126.48310448 97.328125 128.28125 C97.33382507 129.48830093 97.33952515 130.69535187 97.34539795 131.9389801 C97.35484935 134.49357221 97.36138248 137.04817652 97.36523438 139.6027832 C97.37495243 143.51600289 97.4059805 147.42870022 97.4375 151.34179688 C97.44402875 153.82161146 97.44927972 156.3014298 97.453125 158.78125 C97.4654718 159.95425156 97.4778186 161.12725311 97.49053955 162.33580017 C97.48753845 163.42695633 97.48453735 164.51811249 97.48144531 165.64233398 C97.48691376 167.08104103 97.48691376 167.08104103 97.49249268 168.54881287 C97.06545316 171.51065925 96.09290375 172.88828581 94.125 175.09765625 C91.75 174.91015625 91.75 174.91015625 89.125 174.09765625 C88.45833333 172.43098958 87.79166667 170.76432292 87.125 169.09765625 C84.57724694 168.20379461 84.57724694 168.20379461 82.125 168.09765625 C82.125 167.43765625 82.125 166.77765625 82.125 166.09765625 C82.785 166.09765625 83.445 166.09765625 84.125 166.09765625 C83.795 153.88765625 83.465 141.67765625 83.125 129.09765625 C73.97850631 134.65872441 64.85254619 140.24024601 55.8125 145.97265625 C46.49147699 151.88155343 37.1199502 157.70581122 27.72363281 163.49414062 C25.10162104 165.1120825 22.48421841 166.73729794 19.8671875 168.36328125 C18.22410913 169.37915019 16.58088651 170.39478588 14.9375 171.41015625 C14.17687256 171.88461182 13.41624512 172.35906738 12.63256836 172.84790039 C7.35255391 176.09765625 7.35255391 176.09765625 5.125 176.09765625 C5.125 188.30765625 5.125 200.51765625 5.125 213.09765625 C4.465 212.43765625 3.805 211.77765625 3.125 211.09765625 C2.795 211.75765625 2.465 212.41765625 2.125 213.09765625 C1.135 212.76765625 0.145 212.43765625 -0.875 212.09765625 C-0.545 210.77765625 -0.215 209.45765625 0.125 208.09765625 C-0.535 208.09765625 -1.195 208.09765625 -1.875 208.09765625 C-2.205 208.75765625 -2.535 209.41765625 -2.875 210.09765625 C-3.205 210.42765625 -3.535 210.75765625 -3.875 211.09765625 C-4.535 211.09765625 -5.195 211.09765625 -5.875 211.09765625 C-6.205 212.08765625 -6.535 213.07765625 -6.875 214.09765625 C-10.01442727 175.27743058 -10.01442727 175.27743058 -5.25048828 165.89990234 C-0.97396733 161.34167644 4.35691864 159.29329199 10.16748047 157.26416016 C15.48651307 155.16622902 20.10372268 151.89719855 24.875 148.78515625 C26.65787187 147.67909374 28.44401097 146.5782685 30.234375 145.484375 C30.98686523 145.02248779 31.73935547 144.56060059 32.51464844 144.0847168 C33.04606445 143.75898682 33.57748047 143.43325684 34.125 143.09765625 C28.91031056 138.81281788 23.34603588 135.28669733 17.625 131.72265625 C16.59246094 131.05621094 15.55992187 130.38976562 14.49609375 129.703125 C13.49707031 129.08308594 12.49804688 128.46304688 11.46875 127.82421875 C10.56318359 127.25268066 9.65761719 126.68114258 8.72460938 126.09228516 C6.13628338 124.78988659 6.13628338 124.78988659 3.49804688 125.95068359 C2.71494141 126.32918457 1.93183594 126.70768555 1.125 127.09765625 C-2.1875 126.72265625 -2.1875 126.72265625 -4.875 126.09765625 C-5.625 124.47265625 -5.625 124.47265625 -5.875 122.09765625 C-4.4375 118.97265625 -4.4375 118.97265625 -1.875 116.09765625 C0.10546875 115.41015625 0.10546875 115.41015625 2.25 114.97265625 C3.52875 114.68390625 4.8075 114.39515625 6.125 114.09765625 C7.20217869 112.22494545 7.20217869 112.22494545 8.125 110.09765625 C9.7109375 108.39453125 9.7109375 108.39453125 11.5 106.84765625 C12.08523437 106.326875 12.67046875 105.80609375 13.2734375 105.26953125 C15.125 104.09765625 15.125 104.09765625 19.125 104.09765625 C19.125 103.43765625 19.125 102.77765625 19.125 102.09765625 C20.625 100.47265625 20.625 100.47265625 22.125 99.09765625 C15.57938756 102.84117064 9.1840026 106.57910323 3.16015625 111.12890625 C0.40628718 112.43976907 -0.95998985 111.87797624 -3.875 111.09765625 C-6.00878906 110.05712891 -6.00878906 110.05712891 -8.140625 108.76171875 C-8.93936035 108.28017334 -9.7380957 107.79862793 -10.56103516 107.30249023 C-11.40714355 106.78114502 -12.25325195 106.2597998 -13.125 105.72265625 C-14.01106934 105.18390869 -14.89713867 104.64516113 -15.81005859 104.09008789 C-22.13700551 100.2224883 -28.37838193 96.23154642 -34.58349609 92.17211914 C-40.30911464 88.43380028 -46.12295509 84.856952 -51.97143555 81.31469727 C-58.63351211 77.27134097 -65.21494467 73.10575263 -71.77099609 68.89282227 C-72.52590332 68.41127686 -73.28081055 67.92973145 -74.05859375 67.43359375 C-74.72431396 67.0061084 -75.39003418 66.57862305 -76.07592773 66.13818359 C-78.00262499 64.94332103 -78.00262499 64.94332103 -80.875 64.09765625 C-80.125 61.22265625 -80.125 61.22265625 -78.875 58.09765625 C-76.8125 56.97265625 -76.8125 56.97265625 -74.875 56.09765625 C-74.06971111 54.04764754 -74.06971111 54.04764754 -73.875 52.09765625 C-72.885 52.09765625 -71.895 52.09765625 -70.875 52.09765625 C-70.606875 51.41703125 -70.33875 50.73640625 -70.0625 50.03515625 C-69.670625 49.06578125 -69.27875 48.09640625 -68.875 47.09765625 C-68.1634375 45.30328125 -68.1634375 45.30328125 -67.4375 43.47265625 C-65.34985014 38.96333254 -62.97397224 37.01293347 -58.796875 34.453125 C-57.97727295 33.94821533 -57.1576709 33.44330566 -56.31323242 32.9230957 C-55.42611572 32.38257568 -54.53899902 31.84205566 -53.625 31.28515625 C-52.69985596 30.71692139 -51.77471191 30.14868652 -50.8215332 29.56323242 C-45.86624803 26.52357531 -40.89948482 23.50275773 -35.93359375 20.48046875 C-34.47505981 19.59270752 -34.47505981 19.59270752 -32.98706055 18.68701172 C-31.04356924 17.50621785 -29.09842625 16.32813806 -27.15161133 15.15283203 C-22.74639554 12.48777632 -18.37395907 9.79567223 -14.078125 6.95703125 C-13.35085205 6.48160889 -12.6235791 6.00618652 -11.87426758 5.51635742 C-10.54668256 4.64309102 -9.2279226 3.75618 -7.9206543 2.8527832 C-5.20678738 1.07638626 -3.26650246 0.11095457 0 0 Z " fill="#FD7E01" transform="translate(176.875,17.90234375)"/>
<path d="M0 0 C4.46186796 1.56723112 8.13536757 3.99356843 12.0625 6.59765625 C13.77777534 7.70837671 15.49392939 8.81774128 17.2109375 9.92578125 C18.05237305 10.47169922 18.89380859 11.01761719 19.76074219 11.58007812 C22.86501026 13.57265664 26.01468147 15.46584664 29.1875 17.34765625 C45.58180068 27.09543324 61.8108469 37.14379675 77.8828125 47.4140625 C80.68363801 49.20088426 83.50855575 50.93230158 86.3671875 52.625 C87.35477051 53.22260132 87.35477051 53.22260132 88.36230469 53.83227539 C90.11160078 54.88904751 91.87178061 55.92774645 93.6328125 56.96484375 C96.125 59.09765625 96.125 59.09765625 97.2421875 62.04296875 C97.08610915 66.1114112 96.04758255 67.29398942 93.125 70.09765625 C90.82652478 71.6532464 88.59404235 73.05204505 86.1875 74.41015625 C84.83293144 75.19852862 83.47877146 75.9876034 82.125 76.77734375 C81.44953125 77.16760742 80.7740625 77.55787109 80.078125 77.95996094 C77.25265031 79.60579995 74.46959355 81.31721348 71.6875 83.03515625 C70.09808594 84.01548828 70.09808594 84.01548828 68.4765625 85.015625 C66.13413522 86.47076922 63.79541925 87.93068249 61.4609375 89.3984375 C53.10937841 94.64674866 44.70300782 99.78669417 36.21459961 104.81152344 C30.73265544 108.07289794 25.39936996 111.51042213 20.125 115.09765625 C21.88535854 120.37873186 27.53072905 122.30827746 32.125 125.09765625 C33.42363772 125.93738438 34.72044757 126.77994458 36.015625 127.625 C37.34332281 128.4707231 38.67144388 129.31578212 40 130.16015625 C40.94480225 130.78784912 40.94480225 130.78784912 41.90869141 131.42822266 C45.51027865 133.69537728 45.51027865 133.69537728 49.625 133.6171875 C50.45 133.11574219 51.275 132.61429688 52.125 132.09765625 C53.22070312 131.45054687 54.31640625 130.8034375 55.4453125 130.13671875 C56.71589422 129.33575103 57.98398586 128.53082418 59.25 127.72265625 C59.93433105 127.29291504 60.61866211 126.86317383 61.32373047 126.42041016 C65.30748856 123.91324357 69.25677339 121.35900992 73.1875 118.76953125 C74.03038574 118.22087402 74.87327148 117.6722168 75.74169922 117.10693359 C77.3862828 116.03540911 79.02366853 114.95273716 80.65283203 113.85791016 C84.90636285 111.09923042 87.86622255 109.23858879 93.125 110.09765625 C95.68449546 111.951084 96.10418798 113.03522018 97.125 116.09765625 C97.22782326 117.87079898 97.27347861 119.64750751 97.28613281 121.42358398 C97.29574036 122.51158798 97.3053479 123.59959198 97.31524658 124.7205658 C97.3216214 126.48310448 97.3216214 126.48310448 97.328125 128.28125 C97.33382507 129.48830093 97.33952515 130.69535187 97.34539795 131.9389801 C97.35484935 134.49357221 97.36138248 137.04817652 97.36523438 139.6027832 C97.37495243 143.51600289 97.4059805 147.42870022 97.4375 151.34179688 C97.44402875 153.82161146 97.44927972 156.3014298 97.453125 158.78125 C97.4654718 159.95425156 97.4778186 161.12725311 97.49053955 162.33580017 C97.48753845 163.42695633 97.48453735 164.51811249 97.48144531 165.64233398 C97.48691376 167.08104103 97.48691376 167.08104103 97.49249268 168.54881287 C97.06545316 171.51065925 96.09290375 172.88828581 94.125 175.09765625 C91.75 174.91015625 91.75 174.91015625 89.125 174.09765625 C88.45833333 172.43098958 87.79166667 170.76432292 87.125 169.09765625 C84.57724694 168.20379461 84.57724694 168.20379461 82.125 168.09765625 C82.125 167.43765625 82.125 166.77765625 82.125 166.09765625 C82.785 166.09765625 83.445 166.09765625 84.125 166.09765625 C83.795 153.88765625 83.465 141.67765625 83.125 129.09765625 C73.97850631 134.65872441 64.85254619 140.24024601 55.8125 145.97265625 C46.49147699 151.88155343 37.1199502 157.70581122 27.72363281 163.49414062 C25.10162104 165.1120825 22.48421841 166.73729794 19.8671875 168.36328125 C18.22410913 169.37915019 16.58088651 170.39478588 14.9375 171.41015625 C14.17687256 171.88461182 13.41624512 172.35906738 12.63256836 172.84790039 C7.35255391 176.09765625 7.35255391 176.09765625 5.125 176.09765625 C5.125 188.30765625 5.125 200.51765625 5.125 213.09765625 C4.465 212.43765625 3.805 211.77765625 3.125 211.09765625 C2.795 211.75765625 2.465 212.41765625 2.125 213.09765625 C1.135 212.76765625 0.145 212.43765625 -0.875 212.09765625 C-0.545 210.77765625 -0.215 209.45765625 0.125 208.09765625 C-0.535 208.09765625 -1.195 208.09765625 -1.875 208.09765625 C-2.205 208.75765625 -2.535 209.41765625 -2.875 210.09765625 C-3.205 210.42765625 -3.535 210.75765625 -3.875 211.09765625 C-4.535 211.09765625 -5.195 211.09765625 -5.875 211.09765625 C-6.205 212.08765625 -6.535 213.07765625 -6.875 214.09765625 C-10.01442727 175.27743058 -10.01442727 175.27743058 -5.25048828 165.89990234 C-0.97396733 161.34167644 4.35691864 159.29329199 10.16748047 157.26416016 C15.48651307 155.16622902 20.10372268 151.89719855 24.875 148.78515625 C26.65787187 147.67909374 28.44401097 146.5782685 30.234375 145.484375 C30.98686523 145.02248779 31.73935547 144.56060059 32.51464844 144.0847168 C33.04606445 143.75898682 33.57748047 143.43325684 34.125 143.09765625 C28.91031056 138.81281788 23.34603588 135.28669733 17.625 131.72265625 C16.59246094 131.05621094 15.55992187 130.38976562 14.49609375 129.703125 C13.49707031 129.08308594 12.49804688 128.46304688 11.46875 127.82421875 C10.56318359 127.25268066 9.65761719 126.68114258 8.72460938 126.09228516 C6.13628338 124.78988659 6.13628338 124.78988659 3.49804688 125.95068359 C2.71494141 126.32918457 1.93183594 126.70768555 1.125 127.09765625 C-2.1875 126.72265625 -2.1875 126.72265625 -4.875 126.09765625 C-5.625 124.47265625 -5.625 124.47265625 -5.875 122.09765625 C-4.4375 118.97265625 -4.4375 118.97265625 -1.875 116.09765625 C0.10546875 115.41015625 0.10546875 115.41015625 2.25 114.97265625 C3.52875 114.68390625 4.8075 114.39515625 6.125 114.09765625 C7.20217869 112.22494545 7.20217869 112.22494545 8.125 110.09765625 C9.7109375 108.39453125 9.7109375 108.39453125 11.5 106.84765625 C12.08523437 106.326875 12.67046875 105.80609375 13.2734375 105.26953125 C15.125 104.09765625 15.125 104.09765625 19.125 104.09765625 C19.125 103.43765625 19.125 102.77765625 19.125 102.09765625 C20.375 100.72265625 20.375 100.72265625 22.125 99.09765625 C22.72521973 98.46520996 23.32543945 97.83276367 23.94384766 97.18115234 C26.11759047 95.10473404 28.19408019 93.66796941 30.7734375 92.13671875 C31.68625488 91.58927002 32.59907227 91.04182129 33.53955078 90.4777832 C34.51649902 89.89859131 35.49344727 89.31939941 36.5 88.72265625 C45.76717447 83.1613158 54.92928502 77.46070054 64.02880859 71.62939453 C64.88812988 71.07880371 65.74745117 70.52821289 66.6328125 69.9609375 C67.38191895 69.47923096 68.13102539 68.99752441 68.90283203 68.5012207 C70.52558238 67.47626006 72.17698362 66.4962663 73.84326172 65.54370117 C76.2384387 64.30085696 76.2384387 64.30085696 77.125 62.09765625 C76.4242334 61.84274414 75.7234668 61.58783203 75.00146484 61.32519531 C71.8136083 59.96476901 69.03721734 58.2995307 66.1015625 56.45703125 C64.94443132 55.73487319 63.78720225 55.01287196 62.62988281 54.29101562 C61.75354187 53.74175415 61.75354187 53.74175415 60.85949707 53.18139648 C58.19532863 51.51678339 55.51523806 49.87839414 52.8359375 48.23828125 C42.7958957 42.07519568 32.76534563 35.90095458 22.8125 29.59765625 C22.05026123 29.11756104 21.28802246 28.63746582 20.50268555 28.14282227 C17.07094298 25.97907822 13.65782027 23.79587438 10.28125 21.546875 C9.39433472 20.96873047 9.39433472 20.96873047 8.48950195 20.37890625 C6.94775238 19.3733686 5.41668282 18.35150551 3.88671875 17.328125 C0.28795959 15.72471745 -1.12495985 15.88440797 -4.875 17.09765625 C-7.89353097 18.68844742 -10.71816775 20.5289578 -13.5625 22.41015625 C-15.27331057 23.51582142 -16.98425153 24.62128487 -18.6953125 25.7265625 C-19.56188477 26.29133301 -20.42845703 26.85610352 -21.32128906 27.43798828 C-25.17255422 29.94094244 -29.05315782 32.39646191 -32.9375 34.84765625 C-33.69417969 35.32638184 -34.45085937 35.80510742 -35.23046875 36.29833984 C-45.45813939 42.75340611 -55.77674541 49.06348149 -66.09130859 55.37841797 C-68.58404042 56.91795643 -71.052794 58.48966858 -73.51953125 60.0703125 C-76.875 62.09765625 -76.875 62.09765625 -78.875 62.09765625 C-78.875 62.75765625 -78.875 63.41765625 -78.875 64.09765625 C-79.535 64.09765625 -80.195 64.09765625 -80.875 64.09765625 C-80.125 61.22265625 -80.125 61.22265625 -78.875 58.09765625 C-76.8125 56.97265625 -76.8125 56.97265625 -74.875 56.09765625 C-74.06971111 54.04764754 -74.06971111 54.04764754 -73.875 52.09765625 C-72.885 52.09765625 -71.895 52.09765625 -70.875 52.09765625 C-70.606875 51.41703125 -70.33875 50.73640625 -70.0625 50.03515625 C-69.670625 49.06578125 -69.27875 48.09640625 -68.875 47.09765625 C-68.1634375 45.30328125 -68.1634375 45.30328125 -67.4375 43.47265625 C-65.34985014 38.96333254 -62.97397224 37.01293347 -58.796875 34.453125 C-57.97727295 33.94821533 -57.1576709 33.44330566 -56.31323242 32.9230957 C-55.42611572 32.38257568 -54.53899902 31.84205566 -53.625 31.28515625 C-52.69985596 30.71692139 -51.77471191 30.14868652 -50.8215332 29.56323242 C-45.86624803 26.52357531 -40.89948482 23.50275773 -35.93359375 20.48046875 C-34.47505981 19.59270752 -34.47505981 19.59270752 -32.98706055 18.68701172 C-31.04356924 17.50621785 -29.09842625 16.32813806 -27.15161133 15.15283203 C-22.74639554 12.48777632 -18.37395907 9.79567223 -14.078125 6.95703125 C-13.35085205 6.48160889 -12.6235791 6.00618652 -11.87426758 5.51635742 C-10.54668256 4.64309102 -9.2279226 3.75618 -7.9206543 2.8527832 C-5.20678738 1.07638626 -3.26650246 0.11095457 0 0 Z " fill="#1F191B" transform="translate(176.875,17.90234375)"/>
<path d="M0 0 C0.75925781 0.39445313 1.51851563 0.78890625 2.30078125 1.1953125 C5.52535188 0.87285544 8.22812272 0.21953201 11.30078125 -0.8046875 C13.55680627 0.27989989 15.59643353 1.40407589 17.71875 2.7109375 C18.33599442 3.08257019 18.95323883 3.45420288 19.58918762 3.83709717 C20.8925523 4.62572257 22.1927556 5.41959294 23.48999023 6.21826172 C25.48210762 7.44152158 27.48696471 8.64149304 29.49414062 9.83984375 C30.7573417 10.60800968 32.0197403 11.3774971 33.28125 12.1484375 C33.88430466 12.50794495 34.48735931 12.86745239 35.10868835 13.237854 C36.77807617 14.27832031 36.77807617 14.27832031 39.30078125 16.1953125 C39.30078125 17.1853125 39.30078125 18.1753125 39.30078125 19.1953125 C37.13623047 20.86181641 37.13623047 20.86181641 34.10546875 22.671875 C33.00259521 23.33880371 31.89972168 24.00573242 30.76342773 24.69287109 C30.17665253 25.04081726 29.58987732 25.38876343 28.98532104 25.74725342 C27.17833726 26.81879678 25.37934199 27.90264103 23.58227539 28.99072266 C21.22743109 30.41607866 18.8703148 31.83753309 16.51123047 33.25585938 C12.55524567 35.64569536 8.63229851 38.08101084 4.73828125 40.5703125 C3.68511719 41.23804688 2.63195312 41.90578125 1.546875 42.59375 C-0.7970427 44.00044793 -0.7970427 44.00044793 -1.69921875 46.1953125 C-1.81626839 47.55283546 -1.87599064 48.91557138 -1.90454102 50.27783203 C-1.92448624 51.11855255 -1.94443146 51.95927307 -1.96498108 52.82546997 C-1.98169357 53.73384613 -1.99840607 54.64222229 -2.015625 55.578125 C-2.04679665 56.97223099 -2.04679665 56.97223099 -2.07859802 58.39450073 C-2.14409521 61.3696946 -2.20297927 64.34497827 -2.26171875 67.3203125 C-2.30490381 69.33464478 -2.34851809 71.34896791 -2.39257812 73.36328125 C-2.49977678 78.30719913 -2.60104376 83.25120753 -2.69921875 88.1953125 C-12.83153484 84.23049316 -21.90907716 77.84403312 -31.0637207 72.02856445 C-37.18470706 68.1415849 -43.33973485 64.31321759 -49.51171875 60.5078125 C-57.6352056 55.49581385 -65.69770151 50.39966069 -73.69921875 45.1953125 C-72.50809178 41.6219316 -71.77338058 41.35686931 -68.61328125 39.5234375 C-67.76378906 39.02328125 -66.91429688 38.523125 -66.0390625 38.0078125 C-65.14316406 37.4921875 -64.24726562 36.9765625 -63.32421875 36.4453125 C-61.5862945 35.43130557 -59.84932051 34.41566828 -58.11328125 33.3984375 C-57.22447266 32.87781738 -56.33566406 32.35719727 -55.41992188 31.82080078 C-51.7342916 29.61881529 -48.12104159 27.31172356 -44.50732422 24.99414062 C-36.57668595 19.91389869 -28.5664984 14.95874216 -20.56591797 9.98974609 C-18.02405703 8.39864765 -15.50113487 6.78271146 -12.984375 5.15234375 C-11.66032343 4.31223646 -10.33611925 3.47236961 -9.01171875 2.6328125 C-8.14111816 2.05104248 -8.14111816 2.05104248 -7.25292969 1.45751953 C-4.43020103 -0.30435759 -3.26747634 -0.97409569 0 0 Z " fill="#FCFBFC" transform="translate(171.69921875,142.8046875)"/>
<path d="M0 0 C2.81223372 32.62431474 2.81223372 32.62431474 -1.37988281 40.63769531 C-5.2145463 44.52273204 -10.12578753 46.12701858 -15.19775391 47.88378906 C-20.43556976 49.97015377 -24.98837958 53.23476714 -29.6875 56.3125 C-31.72450742 57.59648737 -33.76490696 58.87510835 -35.80859375 60.1484375 C-37.33782471 61.10314941 -37.33782471 61.10314941 -38.89794922 62.07714844 C-44.95294318 65.83042503 -51.05488821 69.50661594 -57.15185547 73.19116211 C-63.22306365 76.87470276 -69.16338768 80.67751724 -74.98828125 84.7421875 C-77 86 -77 86 -79 86 C-79 73.46 -79 60.92 -79 48 C-74.38 45.36 -69.76 42.72 -65 40 C-61.45824326 37.79561874 -57.93896982 35.57782527 -54.4375 33.3125 C-47.10003493 28.60395947 -39.73462065 23.94900113 -32.3125 19.375 C-24.46068823 14.53564444 -16.64673767 9.6403107 -8.86254883 4.69287109 C-8.12029053 4.22187988 -7.37803223 3.75088867 -6.61328125 3.265625 C-5.96141846 2.85086914 -5.30955566 2.43611328 -4.63793945 2.00878906 C-1.37633107 0 -1.37633107 0 0 0 Z " fill="#F9F9F9" transform="translate(261,146)"/>
<path d="M0 0 C4.48290485 1.49430162 7.16578648 2.52126073 10.94140625 4.9765625 C11.84745605 5.56042725 12.75350586 6.14429199 13.68701172 6.74584961 C14.63592285 7.36596924 15.58483398 7.98608887 16.5625 8.625 C18.555552 9.91083477 20.54903861 11.19599614 22.54296875 12.48046875 C23.49478027 13.09583496 24.4465918 13.71120117 25.42724609 14.34521484 C28.38741624 16.2491846 31.37071278 18.10403108 34.375 19.9375 C40.84359128 23.90016249 47.3022876 27.87843355 53.75 31.875 C54.83587402 32.54265381 55.92174805 33.21030762 57.04052734 33.89819336 C58.05324707 34.52733643 59.0659668 35.15647949 60.109375 35.8046875 C61.02686523 36.37171387 61.94435547 36.93874023 62.88964844 37.52294922 C65 39 65 39 66 41 C65.04130005 41.58116577 65.04130005 41.58116577 64.06323242 42.17407227 C61.10390724 43.9689853 58.14570072 45.76573439 55.1875 47.5625 C54.18267578 48.17158203 53.17785156 48.78066406 52.14257812 49.40820312 C46.33720745 52.93622582 40.57845856 56.52574724 34.85522461 60.18530273 C29.49729413 63.59064666 24.09162613 66.9186468 18.6875 70.25 C17.53580334 70.9635353 16.38411062 71.67707694 15.23242188 72.390625 C14.12833984 73.07125 13.02425781 73.751875 11.88671875 74.453125 C10.89889404 75.06317383 9.91106934 75.67322266 8.89331055 76.30175781 C6.00190003 77.99888477 2.99873236 79.50063382 0 81 C0 54.27 0 27.54 0 0 Z " fill="#FCFCFC" transform="translate(91,94)"/>
<path d="M0 0 C14.40767383 7.38941585 27.94571033 16.42903726 41.625 25.0625 C42.39021973 25.54372314 43.15543945 26.02494629 43.94384766 26.52075195 C48.07029396 29.12201858 52.16594846 31.76188941 56.234375 34.453125 C57.09466309 35.01507568 57.95495117 35.57702637 58.84130859 36.15600586 C60.49288938 37.23578767 62.13691314 38.32724535 63.77197266 39.43188477 C67.88749299 42.19435049 67.88749299 42.19435049 72.63671875 43.0625 C75.74652319 41.66437304 78.55784198 40.01569278 81.4375 38.1875 C82.52933594 37.50042969 83.62117188 36.81335938 84.74609375 36.10546875 C87.85003564 34.09703576 90.93038949 32.06029665 94 30 C94.66 30.33 95.32 30.66 96 31 C95.34 31.99 94.68 32.98 94 34 C93.34 34 92.68 34 92 34 C92 34.66 92 35.32 92 36 C91.05125 36.0825 90.1025 36.165 89.125 36.25 C88.09375 36.4975 87.0625 36.745 86 37 C85.29590004 38.31395033 84.63308585 39.65039838 84 41 C80.97398424 44.25998605 78.13170413 46.68933612 73.8125 47.875 C70.46478413 49.21408635 70.38105595 49.82868635 69 53 C67.3125 56.86111111 67.3125 56.86111111 64.1875 58.25 C63.135625 58.4975 62.08375 58.745 61 59 C58.5942162 60.22951526 56.31880616 61.6087163 54 63 C53.67 62.01 53.34 61.02 53 60 C52.34 60 51.68 60 51 60 C51.33 57.36 51.66 54.72 52 52 C50.68 51.67 49.36 51.34 48 51 C49.32 50.01 50.64 49.02 52 48 C51.21753906 47.51789063 50.43507812 47.03578125 49.62890625 46.5390625 C48.61699219 45.90742188 47.60507813 45.27578125 46.5625 44.625 C45.55316406 43.99851563 44.54382813 43.37203125 43.50390625 42.7265625 C41 41 41 41 40 39 C40.66 39 41.32 39 42 39 C43.30489955 36.17685224 43.30489955 36.17685224 42.25 34.1875 C41.8375 33.465625 41.425 32.74375 41 32 C40.690625 31.05125 40.38125 30.1025 40.0625 29.125 C36.88481955 24.31033266 32.10860593 22.44588603 27 20 C27 19.34 27 18.68 27 18 C26.2575 17.87625 25.515 17.7525 24.75 17.625 C19.85378959 16.51222491 17.50893697 14.50893697 14 11 C13.01 10.67 12.02 10.34 11 10 C10 9 9 8 8 7 C6.35178756 5.96986723 4.68496298 4.96885372 3 4 C2.01 3.34 1.02 2.68 0 2 C0 1.34 0 0.68 0 0 Z " fill="#201A1B" transform="translate(104,86)"/>
<path d="M0 0 C4.1643318 2.93396104 7.15884876 6.02800781 8.19921875 11.1484375 C8.48044161 16.83107873 7.11330841 20.39248864 3.75 24.9375 C-0.28163533 28.39318743 -5.05354705 29.08465619 -10.25 28.9375 C-14.98037887 27.30006116 -17.97149045 24.68436806 -21.25 20.9375 C-23.03983568 15.56799295 -23.13431724 10.74014667 -20.625 5.625 C-14.50416047 -1.30121315 -8.67228915 -2.83517145 0 0 Z " fill="#C5BDE1" transform="translate(265.25,271.0625)"/>
<path d="M0 0 C12.53846154 0 12.53846154 0 16 3 C17.38550197 5.77100394 17.1877467 7.9334706 17 11 C16.01 12.485 16.01 12.485 15 14 C15.680625 14.680625 16.36125 15.36125 17.0625 16.0625 C19 19 19 19 19.0625 22.625 C18 26 18 26 13 29 C8.71 29 4.42 29 0 29 C0 19.43 0 9.86 0 0 Z " fill="#131117" transform="translate(213,270)"/>
<path d="M0 0 C5.68787798 1.45843025 10.59441357 4.13593357 15 8 C16.3125 11.0625 16.3125 11.0625 16 14 C13.02245147 18.55129006 9.48927443 20.82550453 4.875 23.4375 C3.53774157 24.21611346 2.20050205 24.99475942 0.86328125 25.7734375 C-0.11777588 26.33756348 -0.11777588 26.33756348 -1.11865234 26.91308594 C-3.74471326 28.43024441 -6.34121236 29.99507027 -8.9375 31.5625 C-10.29166667 32.375 -11.64583333 33.1875 -13 34 C-15.9765625 31.3359375 -15.9765625 31.3359375 -16.1875 28.3125 C-16.125625 27.549375 -16.06375 26.78625 -16 26 C-15.01 26 -14.02 26 -13 26 C-12.34 26.66 -11.68 27.32 -11 28 C-10.67 26.35 -10.34 24.7 -10 23 C-10.66 23 -11.32 23 -12 23 C-11.67 21.68 -11.34 20.36 -11 19 C-9.35 18.67 -7.7 18.34 -6 18 C-6 17.34 -6 16.68 -6 16 C-4.68 15.67 -3.36 15.34 -2 15 C-2.19078125 14.41992188 -2.3815625 13.83984375 -2.578125 13.2421875 C-4.36751125 6.937722 -4.36751125 6.937722 -3.2421875 4.06640625 C-2.125 2.4375 -2.125 2.4375 0 0 Z " fill="#1E191B" transform="translate(258,69)"/>
<path d="M0 0 C4.59037956 1.14759489 5.33669182 2.29039218 8 6 C9.32 5.34 10.64 4.68 12 4 C13.61732041 7.23464083 12.99875197 10.74708451 12.87890625 14.2890625 C12.85529526 15.10748627 12.83168427 15.92591003 12.80735779 16.76913452 C12.73067056 19.3879306 12.64666817 22.00643471 12.5625 24.625 C12.50928437 26.39842312 12.45654393 28.17186058 12.40429688 29.9453125 C12.2750486 34.29706054 12.13923848 38.64856061 12 43 C11.34 42.34 10.68 41.68 10 41 C9.67 41.66 9.34 42.32 9 43 C8.01 42.67 7.02 42.34 6 42 C6.33 40.68 6.66 39.36 7 38 C6.34 38 5.68 38 5 38 C4.67 38.66 4.34 39.32 4 40 C3.505 40.495 3.505 40.495 3 41 C2.34 41 1.68 41 1 41 C0.67 41.99 0.34 42.98 0 44 C0 29.48 0 14.96 0 0 Z " fill="#1B1617" transform="translate(170,188)"/>
<path d="M0 0 C1.88769531 0.08032227 1.88769531 0.08032227 4 1 C5.46386719 3.46850586 5.46386719 3.46850586 6.796875 6.71484375 C7.28027344 7.87564453 7.76367188 9.03644531 8.26171875 10.23242188 C8.75285156 11.45509766 9.24398437 12.67777344 9.75 13.9375 C10.25660156 15.15630859 10.76320312 16.37511719 11.28515625 17.63085938 C15 26.6576293 15 26.6576293 15 29 C14.01 29 13.02 29 12 29 C11.01 26.03 10.02 23.06 9 20 C4.05 20 -0.9 20 -6 20 C-6.99 22.97 -7.98 25.94 -9 29 C-9.99 29 -10.98 29 -12 29 C-9.95022906 22.51591085 -7.53890107 16.25480069 -4.875 10 C-4.51535156 9.14277344 -4.15570313 8.28554688 -3.78515625 7.40234375 C-1.13188959 1.13188959 -1.13188959 1.13188959 0 0 Z " fill="#23202A" transform="translate(130,270)"/>
<path d="M0 0 C3.03509048 2.05663215 4.66750164 3.45953617 5.83984375 6.9765625 C2.84956878 6.5165202 1.59150935 5.78020506 -0.84765625 3.8515625 C-4.74255299 1.64690397 -6.72415317 1.59052743 -11.0390625 2.2890625 C-14.33362902 3.35691463 -16.06769088 5.29559125 -18.16015625 7.9765625 C-19.69613079 11.04851158 -19.38666005 13.57900543 -19.16015625 16.9765625 C-17.81708227 20.85655399 -16.77628952 22.5424686 -13.41015625 24.9140625 C-8.49386159 26.52131268 -4.98212118 25.8268128 -0.34765625 23.6640625 C2.22407984 21.93314361 2.22407984 21.93314361 3.83984375 17.9765625 C-1.44015625 17.9765625 -6.72015625 17.9765625 -12.16015625 17.9765625 C-12.16015625 16.9865625 -12.16015625 15.9965625 -12.16015625 14.9765625 C-5.56015625 14.9765625 1.03984375 14.9765625 7.83984375 14.9765625 C5.4935234 23.18868371 5.4935234 23.18868371 0.83984375 26.9765625 C-3.17192052 29.19359012 -6.62083989 29.44614695 -11.16015625 28.9765625 C-15.95331904 26.9744801 -19.77328735 24.33423963 -22.41015625 19.8515625 C-23.73586357 14.76968444 -22.97057233 10.00260271 -21.03515625 5.1640625 C-15.72706809 -1.02870702 -7.63054941 -3.61519701 0 0 Z " fill="#33313B" transform="translate(101.16015625,271.0234375)"/>
<path d="M0 0 C4.1643318 2.93396104 7.15884876 6.02800781 8.19921875 11.1484375 C8.48044161 16.83107873 7.11330841 20.39248864 3.75 24.9375 C-0.28163533 28.39318743 -5.05354705 29.08465619 -10.25 28.9375 C-14.98037887 27.30006116 -17.97149045 24.68436806 -21.25 20.9375 C-23.03983568 15.56799295 -23.13431724 10.74014667 -20.625 5.625 C-14.50416047 -1.30121315 -8.67228915 -2.83517145 0 0 Z M-17.5625 6.1875 C-19.65893453 9.60391183 -20.17971664 11.93134851 -20.25 15.9375 C-18.61138107 20.58025364 -16.58042214 23.54194733 -12.25 25.9375 C-8.08162359 26.68334661 -4.10724009 26.9481668 -0.3046875 24.87890625 C1.84874963 23.12598762 3.50284633 21.43180733 4.75 18.9375 C4.87148305 17.31584248 4.92543652 15.68865673 4.9375 14.0625 C4.95876953 12.76699219 4.95876953 12.76699219 4.98046875 11.4453125 C4.73011096 8.72108028 4.27856829 7.19881055 2.75 4.9375 C0.96427998 3.6102519 0.96427998 3.6102519 -1.125 2.6875 C-1.80304688 2.35234375 -2.48109375 2.0171875 -3.1796875 1.671875 C-8.99670867 -0.39152119 -13.42343403 2.16030067 -17.5625 6.1875 Z " fill="#27232F" transform="translate(265.25,271.0625)"/>
<path d="M0 0 C5.28 0 10.56 0 16 0 C16 0.99 16 1.98 16 3 C11.71 3 7.42 3 3 3 C3 6.3 3 9.6 3 13 C6.96 13 10.92 13 15 13 C15 13.99 15 14.98 15 16 C11.04 16 7.08 16 3 16 C3 19.63 3 23.26 3 27 C7.29 27 11.58 27 16 27 C16 27.66 16 28.32 16 29 C10.72 29 5.44 29 0 29 C0 19.43 0 9.86 0 0 Z " fill="#2E2B35" transform="translate(185,270)"/>
<path d="M0 0 C1.21236328 0.02707031 1.21236328 0.02707031 2.44921875 0.0546875 C3.37154297 0.08949219 3.37154297 0.08949219 4.3125 0.125 C4.3125 0.785 4.3125 1.445 4.3125 2.125 C5.09625 2.434375 5.88 2.74375 6.6875 3.0625 C9.3125 4.125 9.3125 4.125 11.3125 5.125 C11.6425 4.465 11.9725 3.805 12.3125 3.125 C14.8125 2.625 14.8125 2.625 17.3125 2.125 C17.6425 1.465 17.9725 0.805 18.3125 0.125 C18.3125 1.115 18.3125 2.105 18.3125 3.125 C18.9725 3.125 19.6325 3.125 20.3125 3.125 C20.6425 2.135 20.9725 1.145 21.3125 0.125 C22.56791557 3.89124671 21.68311958 5.49688934 20.3125 9.125 C20.9725 9.455 21.6325 9.785 22.3125 10.125 C22.3125 10.785 22.3125 11.445 22.3125 12.125 C26.18286007 15.20784263 30.32036149 17.65698701 35.3125 18.125 C35.3125 19.115 35.3125 20.105 35.3125 21.125 C35.9725 21.125 36.6325 21.125 37.3125 21.125 C37.3125 21.785 37.3125 22.445 37.3125 23.125 C38.9625 23.455 40.6125 23.785 42.3125 24.125 C42.3125 24.785 42.3125 25.445 42.3125 26.125 C43.6325 26.785 44.9525 27.445 46.3125 28.125 C41.99119338 28.125 39.17705183 25.79897708 35.625 23.5625 C34.8505957 23.08522461 34.07619141 22.60794922 33.27832031 22.11621094 C28.47618186 19.14614568 23.72731518 16.10117798 18.99609375 13.01953125 C17.9289917 12.3325415 16.86188965 11.64555176 15.76245117 10.93774414 C13.65285222 9.57785999 11.55243423 8.20361129 9.4621582 6.81420898 C8.48980225 6.18973877 7.51744629 5.56526855 6.515625 4.921875 C5.65614258 4.35823242 4.79666016 3.79458984 3.91113281 3.21386719 C-0.286869 1.45483975 -3.5179895 2.73516317 -7.6875 4.125 C-7.6875 3.465 -7.6875 2.805 -7.6875 2.125 C-4.48369983 -0.01086678 -3.66810033 -0.10632175 0 0 Z " fill="#211718" transform="translate(176.6875,31.875)"/>
<path d="M0 0 C5.61 0 11.22 0 17 0 C16.15987061 5.04077636 15.76794161 6.92354729 13.27734375 10.9609375 C12.73916016 11.84394531 12.20097656 12.72695313 11.64648438 13.63671875 C11.08251953 14.54035156 10.51855469 15.44398438 9.9375 16.375 C9.36966797 17.30183594 8.80183594 18.22867187 8.21679688 19.18359375 C6.81981011 21.46103436 5.41105321 23.73124778 4 26 C8.29 26.33 12.58 26.66 17 27 C17 27.66 17 28.32 17 29 C11.39 29 5.78 29 0 29 C0.86691845 24.66540774 1.51951568 22.73131652 3.72265625 19.13671875 C4.52993164 17.80737305 4.52993164 17.80737305 5.35351562 16.45117188 C5.91748047 15.53916016 6.48144531 14.62714844 7.0625 13.6875 C7.63033203 12.75615234 8.19816406 11.82480469 8.78320312 10.86523438 C10.18219095 8.57277533 11.59022192 6.28583927 13 4 C8.71 3.67 4.42 3.34 0 3 C0 2.01 0 1.02 0 0 Z " fill="#221F2A" transform="translate(156,270)"/>
<path d="M0 0 C8.36923077 -0.36923077 8.36923077 -0.36923077 11.5625 1.5 C12.036875 1.995 12.51125 2.49 13 3 C12.6875 6.375 12.6875 6.375 12 10 C7.7975546 12.80163026 4.99895065 12.14489712 0 12 C0 8.04 0 4.08 0 0 Z " fill="#BFB9D8" transform="translate(216,285)"/>
<path d="M0 0 C0.99 0.33 1.98 0.66 3 1 C1.71341538 4.85975386 0.33195621 5.30028026 -3.1171875 7.37109375 C-4.19049316 8.02231201 -5.26379883 8.67353027 -6.36962891 9.34448242 C-7.53806431 10.04219117 -8.7065218 10.73986292 -9.875 11.4375 C-11.65848436 12.51544259 -13.4400713 13.59647662 -15.22164917 14.67756653 C-16.42018834 15.40448864 -17.61934955 16.1303861 -18.81912231 16.85527039 C-24.13049632 20.06619229 -29.38676787 23.35898436 -34.625 26.6875 C-35.73077393 27.38927368 -35.73077393 27.38927368 -36.85888672 28.10522461 C-37.55771973 28.54874268 -38.25655273 28.99226074 -38.9765625 29.44921875 C-39.63946289 29.86864746 -40.30236328 30.28807617 -40.98535156 30.72021484 C-42.40272337 31.62058603 -43.81576362 32.52779441 -45.22558594 33.43994141 C-45.94262695 33.89933105 -46.65966797 34.3587207 -47.3984375 34.83203125 C-48.04216309 35.24815674 -48.68588867 35.66428223 -49.34912109 36.09301758 C-51 37 -51 37 -53 37 C-53 36.01 -53 35.02 -53 34 C-49.66666667 31 -49.66666667 31 -47 31 C-47 30.34 -47 29.68 -47 29 C-46.36191406 28.89042969 -45.72382813 28.78085938 -45.06640625 28.66796875 C-44.24011719 28.50941406 -43.41382813 28.35085937 -42.5625 28.1875 C-41.73878906 28.03667969 -40.91507813 27.88585937 -40.06640625 27.73046875 C-39.04353516 27.36888672 -39.04353516 27.36888672 -38 27 C-37.67 26.01 -37.34 25.02 -37 24 C-35.01276732 23.29618843 -33.01222047 22.6288189 -31 22 C-30.67 21.34 -30.34 20.68 -30 20 C-27.4375 19.375 -27.4375 19.375 -25 19 C-25 18.34 -25 17.68 -25 17 C-23.88625 16.7525 -22.7725 16.505 -21.625 16.25 C-17.92711156 15.44206914 -17.92711156 15.44206914 -16.9375 12.9375 C-16.628125 12.298125 -16.31875 11.65875 -16 11 C-12.875 10.25 -12.875 10.25 -10 10 C-10 9.34 -10 8.68 -10 8 C-9.04287109 7.51080078 -9.04287109 7.51080078 -8.06640625 7.01171875 C-7.24011719 6.57472656 -6.41382813 6.13773437 -5.5625 5.6875 C-4.73878906 5.25824219 -3.91507813 4.82898438 -3.06640625 4.38671875 C-0.69352356 3.09979113 -0.69352356 3.09979113 0 0 Z " fill="#E1802D" transform="translate(251,79)"/>
<path d="M0 0 C0.99 0.495 0.99 0.495 2 1 C0.68 1.66 -0.64 2.32 -2 3 C-2 3.66 -2 4.32 -2 5 C-3.32 5 -4.64 5 -6 5 C-6 5.66 -6 6.32 -6 7 C-8.09765625 8.41015625 -8.09765625 8.41015625 -11.0625 10.0625 C-12.14273438 10.67609375 -13.22296875 11.2896875 -14.3359375 11.921875 C-14.92342773 12.25380859 -15.51091797 12.58574219 -16.11621094 12.92773438 C-19.49581235 14.85142663 -22.84345904 16.82781874 -26.1875 18.8125 C-26.84693604 19.19736572 -27.50637207 19.58223145 -28.18579102 19.97875977 C-31.67632219 21.90015142 -31.67632219 21.90015142 -34 25 C-35.9053862 25.97051024 -37.81402357 26.93531396 -39.74072266 27.86279297 C-43.3725186 29.69085711 -46.76305864 31.87675609 -50.1875 34.0625 C-51.55575269 34.9287597 -52.92423682 35.79465396 -54.29296875 36.66015625 C-54.9276709 37.06250488 -55.56237305 37.46485352 -56.21630859 37.87939453 C-58.45729902 39.28729846 -60.72289221 40.6514216 -63 42 C-62.67 43.65 -62.34 45.3 -62 47 C-64.4375 46.1875 -64.4375 46.1875 -67 45 C-67.495 43.515 -67.495 43.515 -68 42 C-67.51982422 41.71503662 -67.03964844 41.43007324 -66.54492188 41.13647461 C-47.81816407 30.00480002 -29.37254726 18.43237517 -10.97436523 6.76757812 C-9.58449624 5.887104 -8.19296792 5.0092403 -6.79931641 4.13476562 C-5.22482585 3.14178976 -3.66393306 2.1273193 -2.10546875 1.109375 C-1.41066406 0.74328125 -0.71585937 0.3771875 0 0 Z " fill="#D67E32" transform="translate(166,38)"/>
<path d="M0 0 C2.96655546 1.52792742 5.71876343 3.34790526 8.5 5.1875 C10.17308995 6.26966598 11.84627106 7.35169103 13.51953125 8.43359375 C14.4007666 9.00835449 15.28200195 9.58311523 16.18994141 10.17529297 C21.16446551 13.4054922 26.17941324 16.57219918 31.1875 19.75 C33.07708896 20.95270712 34.96643524 22.15579565 36.85546875 23.359375 C38.05659302 24.12459473 38.05659302 24.12459473 39.28198242 24.90527344 C39.84892822 25.2665332 40.41587402 25.62779297 41 26 C40.01 26.495 40.01 26.495 39 27 C37.0546875 26.22265625 37.0546875 26.22265625 34.875 25.0625 C34.15054688 24.68222656 33.42609375 24.30195312 32.6796875 23.91015625 C32.12539062 23.60980469 31.57109375 23.30945313 31 23 C31 22.34 31 21.68 31 21 C29.68 21 28.36 21 27 21 C25.49609375 19.6328125 25.49609375 19.6328125 24 18 C22.10512734 16.83582708 22.10512734 16.83582708 20.0625 15.875 C19.39347656 15.54242188 18.72445312 15.20984375 18.03515625 14.8671875 C16.0376427 14.01603969 14.11760212 13.46426176 12 13 C12 12.01 12 11.02 12 10 C9.525 9.505 9.525 9.505 7 9 C7 8.01 7 7.02 7 6 C0.53205867 4.48766299 -5.35590042 3.78567421 -12 4 C-7.71909333 -0.42360356 -6.15212304 -1.60152744 0 0 Z " fill="#DC7E29" transform="translate(180,34)"/>
<path d="M0 0 C0.66 0 1.32 0 2 0 C4.56723537 2.80062041 6.61407412 5.14074119 7 9 C6.67 9.99 6.34 10.98 6 12 C7.98 12.99 9.96 13.98 12 15 C12 15.66 12 16.32 12 17 C13.32 17.33 14.64 17.66 16 18 C16 18.66 16 19.32 16 20 C11.89201464 18.51380864 8.38567926 16.50384461 4.6875 14.1875 C4.1200708 13.83292725 3.5526416 13.47835449 2.96801758 13.11303711 C1.3109008 12.07713307 -0.34458156 11.0386159 -2 10 C-2.86625 9.47148438 -3.7325 8.94296875 -4.625 8.3984375 C-6.43406221 7.29361737 -8.22032244 6.15155607 -10 5 C-10 4.67 -10 4.34 -10 4 C-7.66666667 4 -5.33333333 4 -3 4 C-3 3.34 -3 2.68 -3 2 C-1.68 2.33 -0.36 2.66 1 3 C0.67 2.01 0.34 1.02 0 0 Z M2 3 C3 5 3 5 3 5 Z " fill="#221919" transform="translate(233,57)"/>
<path d="M0 0 C3.50281916 2.46789532 6.17637165 4.87961574 7.75 8.9375 C7.5658213 11.94750617 6.80906549 14.06289367 5.75 16.9375 C5.42 16.9375 5.09 16.9375 4.75 16.9375 C4.66363281 16.09445312 4.57726562 15.25140625 4.48828125 14.3828125 C4.34777344 13.28710938 4.20726562 12.19140625 4.0625 11.0625 C3.93488281 9.97195313 3.80726563 8.88140625 3.67578125 7.7578125 C3.03996518 4.74999 3.03996518 4.74999 0.3828125 3.60546875 C-5.97133837 1.95660041 -5.97133837 1.95660041 -12.375 2.875 C-16.18105894 5.60543359 -18.06035372 8.85855714 -20.25 12.9375 C-20.91 11.6175 -21.57 10.2975 -22.25 8.9375 C-16.89089359 -0.13175701 -10.19642829 -3.33344771 0 0 Z " fill="#2B2833" transform="translate(265.25,271.0625)"/>
<path d="M0 0 C6.8359375 -0.1953125 6.8359375 -0.1953125 9 0 C11 2 11 2 11.3125 5 C11.1578125 6.485 11.1578125 6.485 11 8 C7.91111478 10.05925681 7.29064073 10.2390374 3.8125 10.125 C1.9253125 10.063125 1.9253125 10.063125 0 10 C0 6.7 0 3.4 0 0 Z " fill="#C2BCDA" transform="translate(216,273)"/>
<path d="M0 0 C9.25231478 4.7453324 18.00399895 10.27690006 26.81640625 15.78125 C31.84087531 18.91616697 36.91155221 21.97026845 42 25 C38.95658596 25.96032821 38.27572208 26.11976196 35.203125 24.78515625 C34.22859375 24.21667969 33.2540625 23.64820312 32.25 23.0625 C31.26515625 22.49660156 30.2803125 21.93070313 29.265625 21.34765625 C28.51796875 20.90292969 27.7703125 20.45820312 27 20 C27 19.34 27 18.68 27 18 C26.2575 17.87625 25.515 17.7525 24.75 17.625 C19.85378959 16.51222491 17.50893697 14.50893697 14 11 C13.01 10.67 12.02 10.34 11 10 C10 9 9 8 8 7 C6.35178756 5.96986723 4.68496298 4.96885372 3 4 C2.01 3.34 1.02 2.68 0 2 C0 1.34 0 0.68 0 0 Z " fill="#441803" transform="translate(104,86)"/>
<path d="M0 0 C12.66666667 0 12.66666667 0 16 3 C16.33 3.99 16.66 4.98 17 6 C16.01 6.99 15.02 7.98 14 9 C13.34 7.35 12.68 5.7 12 4 C9.03 3.67 6.06 3.34 3 3 C3 6.3 3 9.6 3 13 C2.67 13 2.34 13 2 13 C1.67 18.28 1.34 23.56 1 29 C0.67 29 0.34 29 0 29 C0 19.43 0 9.86 0 0 Z " fill="#393540" transform="translate(213,270)"/>
<path d="M0 0 C2.475 0.495 2.475 0.495 5 1 C5 1.66 5 2.32 5 3 C5.845625 3.268125 6.69125 3.53625 7.5625 3.8125 C11.13854067 5.0478595 14.53860908 6.476988 18 8 C18 8.66 18 9.32 18 10 C18.66 10 19.32 10 20 10 C20 10.66 20 11.32 20 12 C20.9075 11.95875 21.815 11.9175 22.75 11.875 C25.91010647 11.99654256 27.48395457 12.13626265 30 14 C30.75 16.125 30.75 16.125 31 18 C31.61875 18.0825 32.2375 18.165 32.875 18.25 C35 19 35 19 36.25 21.0625 C36.4975 21.701875 36.745 22.34125 37 23 C32.11332473 21.30659768 27.93178515 18.64899159 23.5625 15.9375 C22.77568848 15.4523291 21.98887695 14.9671582 21.17822266 14.46728516 C16.05803308 11.3004029 10.95393279 8.1076532 5.875 4.875 C5.2776001 4.49722412 4.6802002 4.11944824 4.06469727 3.73022461 C2.69154222 2.8479361 1.34258102 1.92815086 0 1 C0 0.67 0 0.34 0 0 Z " fill="#E57F25" transform="translate(104,85)"/>
<path d="M0 0 C4.29 0 8.58 0 13 0 C13 0.66 13 1.32 13 2 C9.04 2 5.08 2 1 2 C1 5.63 1 9.26 1 13 C5.29 13 9.58 13 14 13 C14 13.66 14 14.32 14 15 C8.72 15 3.44 15 -2 15 C-2.25 4.5 -2.25 4.5 0 0 Z " fill="#1F1D25" transform="translate(187,284)"/>
<path d="M0 0 C-0.33 0.99 -0.66 1.98 -1 3 C1.31 3 3.62 3 6 3 C5.67 4.65 5.34 6.3 5 8 C3.9275 7.46375 2.855 6.9275 1.75 6.375 C-1.73775975 4.61146864 -1.73775975 4.61146864 -4.0625 5.875 C-5.0215625 6.431875 -5.0215625 6.431875 -6 7 C-9.25 6.625 -9.25 6.625 -12 6 C-11.52 1.44 -11.52 1.44 -9.375 -0.375 C-6.06071949 -1.24717908 -3.32887611 -0.64016848 0 0 Z " fill="#222022" transform="translate(184,138)"/>
<path d="M0 0 C5.09647717 0.48796058 8.66704554 2.30638503 12.875 5.0625 C13.76445312 5.62807617 13.76445312 5.62807617 14.671875 6.20507812 C16.12027322 7.12784796 17.56096031 8.06270263 19 9 C18.67 9.66 18.34 10.32 18 11 C16.35 11 14.7 11 13 11 C12.67 10.34 12.34 9.68 12 9 C10.68 9.33 9.36 9.66 8 10 C7.34 9.01 6.68 8.02 6 7 C5.01 7 4.02 7 3 7 C3 6.34 3 5.68 3 5 C2.34 5 1.68 5 1 5 C0.67 3.35 0.34 1.7 0 0 Z " fill="#231614" transform="translate(143,112)"/>
<path d="M0 0 C1.32 0.66 2.64 1.32 4 2 C3.34 2 2.68 2 2 2 C2.33 2.99 2.66 3.98 3 5 C4.65 5.33 6.3 5.66 8 6 C6.02 6.99 6.02 6.99 4 8 C4.78375 8.144375 5.5675 8.28875 6.375 8.4375 C9 9 9 9 11 10 C11.625 12.5625 11.625 12.5625 12 15 C11.01 15 10.02 15 9 15 C8.67 14.34 8.34 13.68 8 13 C5 11.66666667 5 11.66666667 2 13 C1.34 12.34 0.68 11.68 0 11 C-2.10820797 11.3185177 -2.10820797 11.3185177 -4 12 C-4.33 11.34 -4.66 10.68 -5 10 C-4.34 10 -3.68 10 -3 10 C-2.34 8.68 -1.68 7.36 -1 6 C-0.34 6 0.32 6 1 6 C0.01 4.68 -0.98 3.36 -2 2 C-1.34 1.34 -0.68 0.68 0 0 Z " fill="#1A1417" transform="translate(108,195)"/>
<path d="M0 0 C3.46692734 3.7971109 4.51061867 8.17724141 6 13 C2.37 13 -1.26 13 -5 13 C-2.05357143 3.89285714 -2.05357143 3.89285714 0 0 Z " fill="#C5BFDD" transform="translate(131,274)"/>
<path d="M0 0 C0.66 0 1.32 0 2 0 C3.17094005 2.7899439 4.33690927 5.58178597 5.5 8.375 C5.83386719 9.1690625 6.16773438 9.963125 6.51171875 10.78125 C6.82753906 11.54179687 7.14335937 12.30234375 7.46875 13.0859375 C7.76201172 13.7876709 8.05527344 14.4894043 8.35742188 15.21240234 C9 17 9 17 9 19 C8.01 19 7.02 19 6 19 C5.01 16.03 4.02 13.06 3 10 C-1.62 10 -6.24 10 -11 10 C-10.67 9.01 -10.34 8.02 -10 7 C-6.37 7 -2.74 7 1 7 C0.67 4.69 0.34 2.38 0 0 Z " fill="#333038" transform="translate(136,280)"/>
<path d="M0 0 C-3.87219156 2.44198321 -7.74823536 4.87778449 -11.625 7.3125 C-12.71941406 8.00279297 -13.81382812 8.69308594 -14.94140625 9.40429688 C-16.00488281 10.07138672 -17.06835938 10.73847656 -18.1640625 11.42578125 C-19.13811035 12.03848877 -20.1121582 12.65119629 -21.11572266 13.2824707 C-24.01489806 15.0088715 -26.96424754 16.52937283 -30 18 C-29.875 16.125 -29.875 16.125 -29 14 C-25.9375 12.75 -25.9375 12.75 -23 12 C-23 11.34 -23 10.68 -23 10 C-21.68 10 -20.36 10 -19 10 C-19 9.01 -19 8.02 -19 7 C-18.360625 6.87625 -17.72125 6.7525 -17.0625 6.625 C-16.381875 6.41875 -15.70125 6.2125 -15 6 C-14.67 5.34 -14.34 4.68 -14 4 C-12.35008418 3.29289322 -10.6792238 2.63437344 -9 2 C-7.453125 1.1646875 -7.453125 1.1646875 -5.875 0.3125 C-3 -1 -3 -1 0 0 Z " fill="#3E1605" transform="translate(169,37)"/>
<path d="M0 0 C3.03509048 2.05663215 4.66750164 3.45953617 5.83984375 6.9765625 C2.84956878 6.5165202 1.59150935 5.78020506 -0.84765625 3.8515625 C-4.70434779 1.66852955 -6.62505294 1.54062672 -10.90234375 2.21484375 C-14.7592632 3.5160536 -17.39415136 6.0682551 -20.16015625 8.9765625 C-20.82015625 8.6465625 -21.48015625 8.3165625 -22.16015625 7.9765625 C-20.30328689 4.04436855 -18.14948887 1.72251315 -14.25 -0.2890625 C-9.51130272 -1.95424958 -4.58867062 -2.17401754 0 0 Z " fill="#1D1B23" transform="translate(101.16015625,271.0234375)"/>
<path d="M0 0 C2.31 0.66 4.62 1.32 7 2 C7 2.66 7 3.32 7 4 C7.639375 4.226875 8.27875 4.45375 8.9375 4.6875 C13.13730276 6.48741547 17.03650784 8.73514734 21 11 C22.010625 11.556875 23.02125 12.11375 24.0625 12.6875 C24.701875 13.120625 25.34125 13.55375 26 14 C26 14.66 26 15.32 26 16 C26.99 16 27.98 16 29 16 C29 16.66 29 17.32 29 18 C33.455 18.99 33.455 18.99 38 20 C37.67 20.66 37.34 21.32 37 22 C33.34920668 21.42930035 30.71096632 20.47308933 27.55859375 18.55859375 C26.73262695 18.06077393 25.90666016 17.5629541 25.05566406 17.05004883 C24.19166992 16.51790771 23.32767578 15.9857666 22.4375 15.4375 C21.5515918 14.89826904 20.66568359 14.35903809 19.75292969 13.8034668 C5.50163724 5.08149917 5.50163724 5.08149917 0 1 C0 0.67 0 0.34 0 0 Z " fill="#D47D32" transform="translate(141,108)"/>
<path d="M0 0 C1.5 1.1875 1.5 1.1875 3 3 C3.1875 5.6875 3.1875 5.6875 3 8 C1.68 8.33 0.36 8.66 -1 9 C-1 9.66 -1 10.32 -1 11 C-3 12 -5 13 -7 14 C-8.02673828 14.556875 -8.02673828 14.556875 -9.07421875 15.125 C-9.77160156 15.49625 -10.46898437 15.8675 -11.1875 16.25 C-11.84105469 16.60578125 -12.49460938 16.9615625 -13.16796875 17.328125 C-15 18 -15 18 -18 17 C-17.45996338 16.67725098 -16.91992676 16.35450195 -16.36352539 16.02197266 C-13.92664943 14.56158002 -11.49455292 13.09340931 -9.0625 11.625 C-8.21236328 11.11710937 -7.36222656 10.60921875 -6.48632812 10.0859375 C-5.67744141 9.59609375 -4.86855469 9.10625 -4.03515625 8.6015625 C-3.2862915 8.15119629 -2.53742676 7.70083008 -1.76586914 7.23681641 C0.14455911 6.10758726 0.14455911 6.10758726 1 4 C-0.65 3.34 -2.3 2.68 -4 2 C-2.68 1.34 -1.36 0.68 0 0 Z " fill="#351403" transform="translate(253,76)"/>
<path d="M0 0 C1.32 0 2.64 0 4 0 C4 0.66 4 1.32 4 2 C4.86625 2.2475 5.7325 2.495 6.625 2.75 C10 4 10 4 13.0625 6.0625 C15.88125835 7.92168104 17.69363079 8.61101539 21 9 C21 9.99 21 10.98 21 12 C21.66 12 22.32 12 23 12 C23 12.66 23 13.32 23 14 C25.475 14.495 25.475 14.495 28 15 C28 15.66 28 16.32 28 17 C29.32 17.66 30.64 18.32 32 19 C28.71261801 19 27.86728002 18.52835534 25.15625 16.83984375 C24.40907715 16.37884277 23.6619043 15.9178418 22.89208984 15.44287109 C21.70800537 14.6977124 21.70800537 14.6977124 20.5 13.9375 C19.69643066 13.43814941 18.89286133 12.93879883 18.06494141 12.42431641 C15.706025 10.95573585 13.3529283 9.47814794 11 8 C9.78943657 7.24809533 8.57854375 6.49672048 7.3671875 5.74609375 C1.85314103 2.29801508 1.85314103 2.29801508 0 1 C0 0.67 0 0.34 0 0 Z " fill="#461A03" transform="translate(191,41)"/>
<path d="M0 0 C4.78950629 1.69096968 8.97201402 4.22042438 13.3125 6.8125 C14.03373047 7.23853516 14.75496094 7.66457031 15.49804688 8.10351562 C20.3781045 10.99653634 25.20203705 13.9729938 30 17 C26.3036028 18.09459733 24.74584345 17.75901226 21.25 16.0625 C20.45078125 15.68222656 19.6515625 15.30195312 18.828125 14.91015625 C17.92320312 14.45962891 17.92320312 14.45962891 17 14 C17 13.34 17 12.68 17 12 C16.34 12 15.68 12 15 12 C14.41734375 11.40703125 13.8346875 10.8140625 13.234375 10.203125 C10.75211626 7.75558317 8.33093182 6.36382143 5.25 4.75 C4.26515625 4.22921875 3.2803125 3.7084375 2.265625 3.171875 C1.51796875 2.78515625 0.7703125 2.3984375 0 2 C0 1.34 0 0.68 0 0 Z " fill="#DB7C2B" transform="translate(221,61)"/>
<path d="M0 0 C1.32 0 2.64 0 4 0 C4 0.66 4 1.32 4 2 C2.37939453 3.23681641 2.37939453 3.23681641 0.1328125 4.6015625 C-0.67027344 5.09140625 -1.47335938 5.58125 -2.30078125 6.0859375 C-3.15027344 6.59382813 -3.99976563 7.10171875 -4.875 7.625 C-5.71675781 8.140625 -6.55851563 8.65625 -7.42578125 9.1875 C-13.72951802 13 -13.72951802 13 -16 13 C-16 12.01 -16 11.02 -16 10 C-12.66666667 7 -12.66666667 7 -10 7 C-10 6.34 -10 5.68 -10 5 C-9.36191406 4.89042969 -8.72382813 4.78085938 -8.06640625 4.66796875 C-7.24011719 4.50941406 -6.41382813 4.35085937 -5.5625 4.1875 C-4.32693359 3.96126953 -4.32693359 3.96126953 -3.06640625 3.73046875 C-2.38449219 3.48941406 -1.70257813 3.24835938 -1 3 C-0.67 2.01 -0.34 1.02 0 0 Z " fill="#E87F1E" transform="translate(214,103)"/>
<path d="M0 0 C1 3 1 3 0 6 C3.96 6 7.92 6 12 6 C12 6.33 12 6.66 12 7 C5.565 7.495 5.565 7.495 -1 8 C-2.32 10.97 -3.64 13.94 -5 17 C-5.99 17 -6.98 17 -8 17 C-6.36041242 11.76727367 -4.61047965 6.84803364 -2 2 C-1.34 2 -0.68 2 0 2 C0 1.34 0 0.68 0 0 Z " fill="#1A171F" transform="translate(126,282)"/>
<path d="M0 0 C0.99 0 1.98 0 3 0 C3.45375 0.515625 3.9075 1.03125 4.375 1.5625 C4.91125 2.036875 5.4475 2.51125 6 3 C8.65466049 2.76956136 8.65466049 2.76956136 11 2 C11.33 3.32 11.66 4.64 12 6 C10.68 6 9.36 6 8 6 C7.67 6.99 7.34 7.98 7 9 C4.69 9 2.38 9 0 9 C-0.33 8.34 -0.66 7.68 -1 7 C-0.34 7 0.32 7 1 7 C2.33304698 4.10813214 2.33304698 4.10813214 1.0625 1.8125 C0.711875 1.214375 0.36125 0.61625 0 0 Z " fill="#1B1616" transform="translate(145,118)"/>
<path d="M0 0 C0.66 0.33 1.32 0.66 2 1 C0.02 1.99 0.02 1.99 -2 3 C-1.938125 4.11375 -1.938125 4.11375 -1.875 5.25 C-2.00398134 8.08758952 -2.57051222 9.58773938 -4 12 C-5.65 11.67 -7.3 11.34 -9 11 C-9.6875 9.1875 -9.6875 9.1875 -10 7 C-7.74314758 3.61472137 -3.52746165 1.79579866 0 0 Z " fill="#F67D08" transform="translate(112,73)"/>
<path d="M0 0 C1.32 0.33 2.64 0.66 4 1 C4 1.66 4 2.32 4 3 C7.465 2.505 7.465 2.505 11 2 C8.72254211 4.48982535 6.37664762 6.10368997 3.4375 7.75 C2.65246094 8.19859375 1.86742187 8.6471875 1.05859375 9.109375 C0.37925781 9.40328125 -0.30007812 9.6971875 -1 10 C-1.66 9.67 -2.32 9.34 -3 9 C-3 8.34 -3 7.68 -3 7 C-2.505 6.54625 -2.01 6.0925 -1.5 5.625 C0.45218674 3.87871033 0.45218674 3.87871033 0 0 Z " fill="#272224" transform="translate(191,180)"/>
<path d="M0 0 C4.66825827 -0.70731186 7.03280231 1.07722471 10.64453125 3.7109375 C11.09183594 4.13632813 11.53914062 4.56171875 12 5 C12 5.66 12 6.32 12 7 C12.95712891 7.27263672 12.95712891 7.27263672 13.93359375 7.55078125 C14.75988281 7.80214844 15.58617187 8.05351563 16.4375 8.3125 C17.26121094 8.55613281 18.08492187 8.79976562 18.93359375 9.05078125 C19.61550781 9.36402344 20.29742187 9.67726563 21 10 C21.33 10.99 21.66 11.98 22 13 C24.01508358 13.73323796 24.01508358 13.73323796 26 14 C26 14.66 26 15.32 26 16 C21.89201464 14.51380864 18.38567926 12.50384461 14.6875 10.1875 C14.1200708 9.83292725 13.5526416 9.47835449 12.96801758 9.11303711 C11.3109008 8.07713307 9.65541844 7.0386159 8 6 C7.13375 5.47148438 6.2675 4.94296875 5.375 4.3984375 C3.56593779 3.29361737 1.77967756 2.15155607 0 1 C0 0.67 0 0.34 0 0 Z " fill="#471803" transform="translate(223,61)"/>
<path d="M0 0 C0.66 0 1.32 0 2 0 C3.04449911 3.13349732 2.93423645 3.98968256 2 7 C2.99 7 3.98 7 5 7 C4.67 7.99 4.34 8.98 4 10 C4.38932856 12.14255793 4.38932856 12.14255793 5 14 C3.02 14.99 1.04 15.98 -1 17 C-1.66 16.01 -2.32 15.02 -3 14 C-2.67 13.34 -2.34 12.68 -2 12 C-1.01 12 -0.02 12 1 12 C0.34 11.01 -0.32 10.02 -1 9 C-1 5.95799954 -0.44513658 3.00467194 0 0 Z M-1 13 C0 15 0 15 0 15 Z " fill="#272223" transform="translate(124,154)"/>
<path d="M0 0 C6.06455266 -0.71347678 6.06455266 -0.71347678 8.61328125 1.23046875 C10 2.8125 10 2.8125 12 6 C11.67 6.99 11.34 7.98 11 9 C10.34 9 9.68 9 9 9 C9 8.01 9 7.02 9 6 C8.01 6.33 7.02 6.66 6 7 C3.9375 6.375 3.9375 6.375 2 5 C0.75 2.375 0.75 2.375 0 0 Z " fill="#1C1619" transform="translate(191,227)"/>
<path d="M0 0 C0.73605469 0.42152344 1.47210938 0.84304687 2.23046875 1.27734375 C3.20628906 1.82519531 4.18210938 2.37304688 5.1875 2.9375 C6.15042969 3.48277344 7.11335937 4.02804688 8.10546875 4.58984375 C10.8346935 5.91946606 12.99435147 6.67061386 16 7 C18.26857146 6.15922128 18.26857146 6.15922128 20 5 C20 6.32 20 7.64 20 9 C17.12063188 10.43968406 15.20992381 10.302823 12 10 C9.52479862 8.74068702 7.3163715 7.48678729 5 6 C4.030625 5.484375 3.06125 4.96875 2.0625 4.4375 C1.381875 3.963125 0.70125 3.48875 0 3 C0 2.01 0 1.02 0 0 Z " fill="#3E1604" transform="translate(162,122)"/>
<path d="M0 0 C2.15754397 2.15754397 2.60952194 3.48909139 3.625 6.3125 C5.58867401 10.96685711 7.98680747 12.81058495 12.390625 15.125 C13.18726563 15.558125 13.18726563 15.558125 14 16 C14 16.33 14 16.66 14 17 C9.7476422 16.74986131 7.52435219 16.43113402 4.1875 13.6875 C0.28496412 8.89295592 -0.24099213 6.26579545 0 0 Z " fill="#1A1722" transform="translate(243,282)"/>
<path d="M0 0 C0 0.66 0 1.32 0 2 C-0.886875 2.33 -1.77375 2.66 -2.6875 3 C-6.96344815 5.58170454 -8.68054393 8.67924333 -11 13 C-11.66 11.68 -12.32 10.36 -13 9 C-7.03521127 -0.58626761 -7.03521127 -0.58626761 0 0 Z " fill="#29262E" transform="translate(256,271)"/>
<path d="M0 0 C0 0.66 0 1.32 0 2 C-0.639375 2.103125 -1.27875 2.20625 -1.9375 2.3125 C-2.618125 2.539375 -3.29875 2.76625 -4 3 C-4.33 3.99 -4.66 4.98 -5 6 C-5.99 6.33 -6.98 6.66 -8 7 C-8.598125 7.680625 -9.19625 8.36125 -9.8125 9.0625 C-12 11 -12 11 -15.25 11.25 C-16.1575 11.1675 -17.065 11.085 -18 11 C-14.56662594 8.17325123 -11.06054842 5.6430241 -7.3125 3.25 C-6.35988281 2.63640625 -5.40726563 2.0228125 -4.42578125 1.390625 C-2 0 -2 0 0 0 Z " fill="#481903" transform="translate(218,105)"/>
<path d="M0 0 C3.63 1.98 7.26 3.96 11 6 C10.67 6.99 10.34 7.98 10 9 C7.525 8.01 7.525 8.01 5 7 C5 6.34 5 5.68 5 5 C2.83125748 5.50603992 1.00032373 5.99983813 -1 7 C-1.66 6.34 -2.32 5.68 -3 5 C-2.34 4.67 -1.68 4.34 -1 4 C-1.33 3.34 -1.66 2.68 -2 2 C-1.34 2 -0.68 2 0 2 C0 1.34 0 0.68 0 0 Z M-4 3 C-2 4 -2 4 -2 4 Z " fill="#232025" transform="translate(231,51)"/>
<path d="M0 0 C2.0625 1.5625 2.0625 1.5625 4 4 C4.0625 7.5625 4.0625 7.5625 3 11 C0.4375 12.9375 0.4375 12.9375 -2 14 C-2.33 13.01 -2.66 12.02 -3 11 C-2.505 10.608125 -2.01 10.21625 -1.5 9.8125 C0.48120728 7.41854121 0.22785166 6.03802209 0 3 C0 2.01 0 1.02 0 0 Z " fill="#26232C" transform="translate(228,285)"/>
<path d="M0 0 C0.66 0.33 1.32 0.66 2 1 C1.01 2.485 1.01 2.485 0 4 C-0.66 4 -1.32 4 -2 4 C-2 4.66 -2 5.32 -2 6 C-2.94875 6.0825 -3.8975 6.165 -4.875 6.25 C-8.10461791 6.65074923 -8.10461791 6.65074923 -9.375 9.0625 C-9.684375 10.0215625 -9.684375 10.0215625 -10 11 C-11.98 11 -13.96 11 -16 11 C-14.56245758 8.12491516 -12.51525125 7.53442879 -9.6875 6.0625 C-6.22521752 4.25508685 -3.0591851 2.43426843 0 0 Z " fill="#461A06" transform="translate(198,116)"/>
<path d="M0 0 C0.66 0.33 1.32 0.66 2 1 C1.67 1.99 1.34 2.98 1 4 C1.66 4.33 2.32 4.66 3 5 C3 6.66666667 3 8.33333333 3 10 C2.01 9.67 1.02 9.34 0 9 C-0.33 8.34 -0.66 7.68 -1 7 C-4.02934491 6.34227572 -4.02934491 6.34227572 -7 6 C-4.74259377 3.66475218 -2.7194239 1.81294927 0 0 Z " fill="#211C1E" transform="translate(199,221)"/>
<path d="M0 0 C0 0.99 0 1.98 0 3 C-4.607662 7.33662306 -9.72795492 10.07764043 -16 11 C-13.26882106 7.87442699 -9.83329412 5.92192486 -6.3125 3.8125 C-5.70599609 3.44447266 -5.09949219 3.07644531 -4.47460938 2.69726562 C-2.98538612 1.79435074 -1.49300185 0.89665304 0 0 Z " fill="#421703" transform="translate(234,94)"/>
<path d="M0 0 C5.94 0 11.88 0 18 0 C18 5 18 5 16 7.3125 C15.34 7.869375 14.68 8.42625 14 9 C13.67 8.01 13.34 7.02 13 6 C13.99 4.35 14.98 2.7 16 1 C10.72 1 5.44 1 0 1 C0 0.67 0 0.34 0 0 Z " fill="#16151B" transform="translate(90,287)"/>
<path d="M0 0 C-0.125 1.8125 -0.125 1.8125 -1 4 C-4.0625 5.75 -4.0625 5.75 -7 7 C-7.93423645 3.98968256 -8.04449911 3.13349732 -7 0 C-4.3333581 -1.33332095 -2.83319697 -0.67102033 0 0 Z " fill="#F47D0E" transform="translate(251,79)"/>
<path d="M0 0 C0.66 0.33 1.32 0.66 2 1 C-2.75 5 -2.75 5 -5 5 C-5 5.66 -5 6.32 -5 7 C-6.61992165 7.86375896 -8.24611861 8.71575854 -9.875 9.5625 C-11.23238281 10.27599609 -11.23238281 10.27599609 -12.6171875 11.00390625 C-13.40351563 11.33261719 -14.18984375 11.66132812 -15 12 C-15.66 11.67 -16.32 11.34 -17 11 C-16.27554688 10.54109375 -15.55109375 10.0821875 -14.8046875 9.609375 C-9.83530186 6.45547158 -4.87697 3.29525 0 0 Z " fill="#F28012" transform="translate(154,47)"/>
<path d="M0 0 C1.21236328 0.02707031 1.21236328 0.02707031 2.44921875 0.0546875 C3.37154297 0.08949219 3.37154297 0.08949219 4.3125 0.125 C4.3125 0.785 4.3125 1.445 4.3125 2.125 C5.09625 2.434375 5.88 2.74375 6.6875 3.0625 C9.3125 4.125 9.3125 4.125 11.3125 5.125 C11.3125 5.785 11.3125 6.445 11.3125 7.125 C8.5723704 6.10723758 6.28867775 5.10850767 3.875 3.4375 C0.56349973 1.74136572 -1.14665858 2.20130224 -4.6875 3.125 C-5.6775 3.455 -6.6675 3.785 -7.6875 4.125 C-7.6875 3.465 -7.6875 2.805 -7.6875 2.125 C-4.48369983 -0.01086678 -3.66810033 -0.10632175 0 0 Z " fill="#471804" transform="translate(176.6875,31.875)"/>
<path d="M0 0 C3.33333333 2.66666667 6.66666667 5.33333333 10 8 C9.34 8.66 8.68 9.32 8 10 C5.19933386 8.85804274 2.53062682 7.66572905 0 6 C-1.0625 3.3125 -1.0625 3.3125 -1 1 C-0.67 0.67 -0.34 0.34 0 0 Z " fill="#272129" transform="translate(195,133)"/>
<path d="M0 0 C0.66 0.33 1.32 0.66 2 1 C0.13104855 2.30040311 -1.74545388 3.58995752 -3.625 4.875 C-4.66914063 5.59429687 -5.71328125 6.31359375 -6.7890625 7.0546875 C-9.83744008 8.90151479 -12.58596974 10.0260274 -16 11 C-11.64592545 5.89522294 -6.15201402 2.63516221 0 0 Z " fill="#DA8033" transform="translate(196,116)"/>
<path d="M0 0 C1.1446875 0.495 1.1446875 0.495 2.3125 1 C4.99069135 2.17436686 4.99069135 2.17436686 8 2 C6.35 3.65 4.7 5.3 3 7 C1.35 5.35 -0.3 3.7 -2 2 C-1.34 1.34 -0.68 0.68 0 0 Z " fill="#242022" transform="translate(122,108)"/>
<path d="M0 0 C1.65 0 3.3 0 5 0 C-5.66666667 9 -5.66666667 9 -10 9 C-9.67 8.01 -9.34 7.02 -9 6 C-5.9375 4.8125 -5.9375 4.8125 -3 4 C-3 3.34 -3 2.68 -3 2 C-2.01 2 -1.02 2 0 2 C0 1.34 0 0.68 0 0 Z " fill="#4B1D04" transform="translate(134,55)"/>
<path d="M0 0 C0.33 0 0.66 0 1 0 C1 3.3 1 6.6 1 10 C4.96 10 8.92 10 13 10 C13 10.33 13 10.66 13 11 C11.62714844 11.05607422 11.62714844 11.05607422 10.2265625 11.11328125 C9.03804687 11.17902344 7.84953125 11.24476563 6.625 11.3125 C5.44164062 11.37050781 4.25828125 11.42851562 3.0390625 11.48828125 C2.03617188 11.65714844 1.03328125 11.82601563 0 12 C-0.66 12.99 -1.32 13.98 -2 15 C-2 13.02 -2 11.04 -2 9 C-1.34 9 -0.68 9 0 9 C0 6.03 0 3.06 0 0 Z " fill="#534F5A" transform="translate(187,273)"/>
<path d="M0 0 C-1.91575126 1.12655813 -3.83263719 2.25118687 -5.75 3.375 C-6.81734375 4.00148438 -7.8846875 4.62796875 -8.984375 5.2734375 C-11.29738678 6.59772663 -13.59951417 7.84636846 -16 9 C-16 8.01 -16 7.02 -16 6 C-13.91796875 4.4296875 -13.91796875 4.4296875 -11.1875 2.875 C-10.29417969 2.35679688 -9.40085937 1.83859375 -8.48046875 1.3046875 C-3.67257178 -1.22419059 -3.67257178 -1.22419059 0 0 Z " fill="#461703" transform="translate(115,71)"/>
<path d="M0 0 C1.48206495 0.254496 2.96068615 0.52911762 4.4375 0.8125 C5.67306641 1.03873047 5.67306641 1.03873047 6.93359375 1.26953125 C7.95646484 1.63111328 7.95646484 1.63111328 9 2 C9.33 2.99 9.66 3.98 10 5 C10.66 5 11.32 5 12 5 C12 5.66 12 6.32 12 7 C12.99 7.33 13.98 7.66 15 8 C14.01 8.495 14.01 8.495 13 9 C10.375 7.6875 10.375 7.6875 8 6 C8 5.34 8 4.68 8 4 C6.865625 3.71125 5.73125 3.4225 4.5625 3.125 C3.386875 2.75375 2.21125 2.3825 1 2 C0.67 1.34 0.34 0.68 0 0 Z " fill="#F07E14" transform="translate(140,106)"/>
<path d="M0 0 C-1.32 1.32 -2.64 2.64 -4 4 C-3.34 4.33 -2.68 4.66 -2 5 C-2 5.66 -2 6.32 -2 7 C-4.97 6.505 -4.97 6.505 -8 6 C-7.75 3.625 -7.75 3.625 -7 1 C-4.12732844 -1.10662581 -3.46720491 -1.15573497 0 0 Z " fill="#2A262A" transform="translate(180,138)"/>
<path d="M0 0 C4.00653305 0.6163897 6.80463901 2.58572726 10 5 C10.33 5.99 10.66 6.98 11 8 C6.99346695 7.3836103 4.19536099 5.41427274 1 3 C0.67 2.01 0.34 1.02 0 0 Z " fill="#282534" transform="translate(96,270)"/>
<path d="M0 0 C0.68707555 2.49064888 1 4.37886292 1 7 C-2 7 -2 7 -5 5 C-4 2 -4 2 -1.9375 0.8125 C-1.298125 0.544375 -0.65875 0.27625 0 0 Z " fill="#EAE8E9" transform="translate(103,183)"/>
<path d="M0 0 C0.66 0.33 1.32 0.66 2 1 C-1.08812315 4.35281942 -3.52476282 6.82230601 -8 8 C-8.99 7.67 -9.98 7.34 -11 7 C-9.21475351 5.80286983 -7.4215972 4.61752721 -5.625 3.4375 C-4.62726563 2.77621094 -3.62953125 2.11492187 -2.6015625 1.43359375 C-1.74304688 0.96050781 -0.88453125 0.48742187 0 0 Z " fill="#491B03" transform="translate(246,86)"/>
<path d="M0 0 C-1.78809697 1.17213045 -3.58059125 2.33755526 -5.375 3.5 C-6.37273437 4.1496875 -7.37046875 4.799375 -8.3984375 5.46875 C-11 7 -11 7 -13 7 C-13 6.01 -13 5.02 -13 4 C-12.030625 3.71125 -11.06125 3.4225 -10.0625 3.125 C-6.89335797 2.35785318 -6.89335797 2.35785318 -6 0 C-3 -1 -3 -1 0 0 Z " fill="#D97F2D" transform="translate(211,109)"/>
<path d="M0 0 C2.475 0.495 2.475 0.495 5 1 C5 1.66 5 2.32 5 3 C6.3921875 3.4021875 6.3921875 3.4021875 7.8125 3.8125 C10.76240366 4.91148371 12.05615186 5.62418561 14 8 C10.13375035 8 8.53339391 6.65502846 5.3125 4.5625 C4.31863281 3.92441406 3.32476562 3.28632812 2.30078125 2.62890625 C1.54152344 2.09136719 0.78226562 1.55382812 0 1 C0 0.67 0 0.34 0 0 Z " fill="#D17B30" transform="translate(104,85)"/>
<path d="M0 0 C0.99 0.33 1.98 0.66 3 1 C1.63603413 5.09189762 -0.34848983 5.61547327 -4.0625 7.6875 C-5.71958984 8.62142578 -5.71958984 8.62142578 -7.41015625 9.57421875 C-8.26480469 10.04472656 -9.11945313 10.51523438 -10 11 C-10 10.01 -10 9.02 -10 8 C-9.36191406 7.67386719 -8.72382813 7.34773438 -8.06640625 7.01171875 C-7.24011719 6.57472656 -6.41382813 6.13773437 -5.5625 5.6875 C-4.73878906 5.25824219 -3.91507813 4.82898438 -3.06640625 4.38671875 C-0.69352356 3.09979113 -0.69352356 3.09979113 0 0 Z " fill="#D18038" transform="translate(251,79)"/>
<path d="M0 0 C0.598125 0.226875 1.19625 0.45375 1.8125 0.6875 C-0.1675 1.6775 -0.1675 1.6775 -2.1875 2.6875 C-2.41359337 4.81114481 -2.41359337 4.81114481 -0.6875 6.3125 C-0.1925 6.76625 0.3025 7.22 0.8125 7.6875 C-0.8375 7.3575 -2.4875 7.0275 -4.1875 6.6875 C-4.875 4.875 -4.875 4.875 -5.1875 2.6875 C-3.58493056 0.24147296 -2.95482043 -0.4221172 0 0 Z " fill="#F18013" transform="translate(107.1875,77.3125)"/>
<path d="M0 0 C0.99 0.33 1.98 0.66 3 1 C3 2.32 3 3.64 3 5 C2.34 4.67 1.68 4.34 1 4 C0.34 4 -0.32 4 -1 4 C-1.66 4.66 -2.32 5.32 -3 6 C-5.625 6.125 -5.625 6.125 -8 6 C-5.38485683 3.87961365 -2.80362384 1.86908256 0 0 Z " fill="#282727" transform="translate(193,172)"/>
<path d="M0 0 C2.31 0.66 4.62 1.32 7 2 C6 3.5625 6 3.5625 4 5 C1.23385218 4.96726452 -1.26030547 4.49404328 -4 4 C-2.68 2.68 -1.36 1.36 0 0 Z " fill="#252024" transform="translate(136,41)"/>
<path d="M0 0 C0 0.66 0 1.32 0 2 C-0.99 2 -1.98 2 -3 2 C-3.185625 2.61875 -3.37125 3.2375 -3.5625 3.875 C-5.71437233 7.05602866 -8.37533763 7.19451947 -12 8 C-12 7.34 -12 6.68 -12 6 C-10.68 6 -9.36 6 -8 6 C-8 5.34 -8 4.68 -8 4 C-2.58823529 0 -2.58823529 0 0 0 Z " fill="#F47E10" transform="translate(172,37)"/>
<path d="M0 0 C6.33333333 0.33333333 6.33333333 0.33333333 9 3 C8.625 5.125 8.625 5.125 8 7 C7.67 6.01 7.34 5.02 7 4 C3.7 3.67 0.4 3.34 -3 3 C-2.01 2.01 -1.02 1.02 0 0 Z " fill="#282425" transform="translate(257,185)"/>
<path d="M0 0 C2 3 2 3 2 5 C-1 7 -1 7 -3 8 C-3.66 6.35 -4.32 4.7 -5 3 C-3.35 2.01 -1.7 1.02 0 0 Z " fill="#252223" transform="translate(142,143)"/>
<path d="M0 0 C0.66 0.33 1.32 0.66 2 1 C0.14285714 8.57142857 0.14285714 8.57142857 -3 11 C-3.99 10.67 -4.98 10.34 -6 10 C-5.195625 9.0925 -4.39125 8.185 -3.5625 7.25 C-1.58857329 4.89690092 -0.36122533 3.13061954 0 0 Z " fill="#C2BCD6" transform="translate(274,79)"/>
<path d="M0 0 C1.32 0.66 2.64 1.32 4 2 C4 3.65 4 5.3 4 7 C3.34 6.34 2.68 5.68 2 5 C1.67 5.66 1.34 6.32 1 7 C0.01 6.67 -0.98 6.34 -2 6 C-1.34 4.02 -0.68 2.04 0 0 Z " fill="#181214" transform="translate(178,224)"/>
<path d="M0 0 C1.32 1.32 2.64 2.64 4 4 C1.09399739 5.25664978 -0.79604584 6 -4 6 C-3.6875 4.125 -3.6875 4.125 -3 2 C-2.01 1.34 -1.02 0.68 0 0 Z " fill="#272525" transform="translate(116,159)"/>
<path d="M0 0 C2.66666667 1.33333333 5.33333333 2.66666667 8 4 C8 4.99 8 5.98 8 7 C4.66272214 5.82744291 2.22562513 4.81131596 0 2 C0 1.34 0 0.68 0 0 Z " fill="#1D1A22" transform="translate(81,292)"/>
<path d="M0 0 C2 1 2 1 3.25 4.375 C3.4975 5.57125 3.745 6.7675 4 8 C3.01 9.485 3.01 9.485 2 11 C0.19769832 7.17010894 -0.19622241 4.21878192 0 0 Z " fill="#222027" transform="translate(133,272)"/>
<path d="M0 0 C0.66 0 1.32 0 2 0 C2 0.66 2 1.32 2 2 C2.66 2.33 3.32 2.66 4 3 C3.6875 4.9375 3.6875 4.9375 3 7 C2.01 7.33 1.02 7.66 0 8 C-0.33 7.01 -0.66 6.02 -1 5 C-0.67 4.67 -0.34 4.34 0 4 C0 3.01 0 2.02 0 1 C0 0.67 0 0.34 0 0 Z " fill="#231F23" transform="translate(257,193)"/>
<path d="M0 0 C1.24546405 2.49092811 0.7767578 3.41080733 0 6 C-1.98 6 -3.96 6 -6 6 C-4.75453595 2.26360784 -3.36595047 1.81243487 0 0 Z " fill="#262224" transform="translate(209,215)"/>
<path d="M0 0 C1.32 0.33 2.64 0.66 4 1 C4.33 2.98 4.66 4.96 5 7 C3.0625 6.3125 3.0625 6.3125 1 5 C0.25 2.375 0.25 2.375 0 0 Z " fill="#272429" transform="translate(269,76)"/>
<path d="M0 0 C1.98 0.99 3.96 1.98 6 3 C6 3.33 6 3.66 6 4 C5.05125 4.12375 4.1025 4.2475 3.125 4.375 C-0.08667191 4.71687177 -0.08667191 4.71687177 -2 7 C-2 5.35 -2 3.7 -2 2 C-1.34 2 -0.68 2 0 2 C0 1.34 0 0.68 0 0 Z " fill="#271F26" transform="translate(205,35)"/>
<path d="M0 0 C3.00617269 3.00617269 2.59585316 5.82381598 3 10 C2.34 10 1.68 10 1 10 C-0.1577506 6.52674819 -0.06866652 3.63932552 0 0 Z " fill="#13101A" transform="translate(243,282)"/>
<path d="M0 0 C2.0625 0.4375 2.0625 0.4375 4 1 C3.67 2.65 3.34 4.3 3 6 C2.01 6 1.02 6 0 6 C-0.38218767 4.34385343 -0.71395102 2.67542976 -1 1 C-0.67 0.67 -0.34 0.34 0 0 Z " fill="#302D37" transform="translate(130,270)"/>
<path d="M0 0 C2.31 0.33 4.62 0.66 7 1 C5.8125 2.5625 5.8125 2.5625 4 4 C1.3125 3.6875 1.3125 3.6875 -1 3 C-0.67 2.01 -0.34 1.02 0 0 Z " fill="#181318" transform="translate(178,244)"/>
<path d="M0 0 C0.66 0.33 1.32 0.66 2 1 C1.01 2.32 0.02 3.64 -1 5 C-1.66 4.67 -2.32 4.34 -3 4 C-3 4.66 -3 5.32 -3 6 C-4.32 5.67 -5.64 5.34 -7 5 C-4.69 3.35 -2.38 1.7 0 0 Z " fill="#2B2929" transform="translate(199,221)"/>
<path d="M0 0 C-0.66 1.32 -1.32 2.64 -2 4 C-3.65 4 -5.3 4 -7 4 C-7 3.01 -7 2.02 -7 1 C-4.53721199 -0.231394 -2.7204945 -0.07159196 0 0 Z " fill="#191617" transform="translate(234,203)"/>
<path d="M0 0 C2.91517292 1.07401108 4.77810176 1.77810176 7 4 C6 5 6 5 3.4375 5.0625 C2.2309375 5.0315625 2.2309375 5.0315625 1 5 C0.67 3.35 0.34 1.7 0 0 Z " fill="#3B1A08" transform="translate(155,118)"/>
<path d="M0 0 C2.35953094 2.35953094 2.49141413 3.77895617 3 7 C2.01 7 1.02 7 0 7 C-0.66 5.02 -1.32 3.04 -2 1 C-1.34 0.67 -0.68 0.34 0 0 Z " fill="#24212C" transform="translate(142,292)"/>
<path d="M0 0 C0.33 0 0.66 0 1 0 C1.125 6.625 1.125 6.625 0 10 C-0.66 10 -1.32 10 -2 10 C-1.125 2.25 -1.125 2.25 0 0 Z " fill="#100D1A" transform="translate(272,282)"/>
<path d="M0 0 C0.33 0 0.66 0 1 0 C0.25 6.75 0.25 6.75 -2 9 C-2.6875 7.3125 -2.6875 7.3125 -3 5 C-1.625 2.25 -1.625 2.25 0 0 Z " fill="#1F1C25" transform="translate(246,275)"/>
<path d="M0 0 C2.69082872 0.17635452 5.32851446 0.61835921 8 1 C7.67 1.99 7.34 2.98 7 4 C6.01 4.33 5.02 4.66 4 5 C1.3125 3.0625 1.3125 3.0625 -1 1 C-0.67 0.67 -0.34 0.34 0 0 Z " fill="#232121" transform="translate(147,126)"/>
<path d="M0 0 C-0.66 1.32 -1.32 2.64 -2 4 C-4.31 4 -6.62 4 -9 4 C-6.31059578 0.90718514 -4.07621501 0 0 0 Z " fill="#371708" transform="translate(209,112)"/>
<path d="M0 0 C-2.97 1.65 -5.94 3.3 -9 5 C-9 4.01 -9 3.02 -9 2 C-3.375 -1.125 -3.375 -1.125 0 0 Z " fill="#471A04" transform="translate(124,65)"/>
<path d="M0 0 C0.66 1.32 1.32 2.64 2 4 C-1.75 7 -1.75 7 -4 7 C-2.92598892 4.08482708 -2.22189824 2.22189824 0 0 Z " fill="#282328" transform="translate(214,223)"/>
<path d="M0 0 C0 0.99 0 1.98 0 3 C-2.3125 4.75 -2.3125 4.75 -5 6 C-5.99 5.67 -6.98 5.34 -8 5 C-4.04 2.525 -4.04 2.525 0 0 Z " fill="#BCB5CC" transform="translate(255,202)"/>
<path d="M0 0 C2.97 1.65 5.94 3.3 9 5 C7.68 5.33 6.36 5.66 5 6 C2.25 4.1875 2.25 4.1875 0 2 C0 1.34 0 0.68 0 0 Z " fill="#441702" transform="translate(146,112)"/>
<path d="M0 0 C2.3125 -0.3125 2.3125 -0.3125 5 0 C6.8125 2.5 6.8125 2.5 8 5 C4.62496331 3.8141763 2.35277269 2.72426311 0 0 Z " fill="#DE8129" transform="translate(133,103)"/>
<path d="M0 0 C-2.64 1.65 -5.28 3.3 -8 5 C-8.33 4.34 -8.66 3.68 -9 3 C-6.07868595 -0.19953443 -4.37453972 -1.45817991 0 0 Z " fill="#D57D30" transform="translate(227,99)"/>
<path d="M0 0 C1.98 0.99 3.96 1.98 6 3 C5.01 3.99 4.02 4.98 3 6 C2.01 5.67 1.02 5.34 0 5 C0 3.35 0 1.7 0 0 Z " fill="#3C1E0B" transform="translate(98,82)"/>
<path d="M0 0 C1.98 0.495 1.98 0.495 4 1 C2.68 3.31 1.36 5.62 0 8 C-1.09658936 4.71023192 -0.79953138 3.28696233 0 0 Z " fill="#BFBACD" transform="translate(166,273)"/>
<path d="M0 0 C0.33 0.99 0.66 1.98 1 3 C0.236875 2.79375 -0.52625 2.5875 -1.3125 2.375 C-4.21885944 1.66608797 -4.21885944 1.66608797 -7 4 C-7 3.01 -7 2.02 -7 1 C-4.53721199 -0.231394 -2.7204945 -0.07159196 0 0 Z " fill="#191414" transform="translate(209,227)"/>
<path d="M0 0 C0.66 0.66 1.32 1.32 2 2 C0.71034824 3.37562854 -0.62689293 4.70766393 -2 6 C-2.66 6 -3.32 6 -4 6 C-2.25 1.125 -2.25 1.125 0 0 Z " fill="#EDECEC" transform="translate(114,176)"/>
<path d="M0 0 C0.99 0.99 1.98 1.98 3 3 C2.01 4.485 2.01 4.485 1 6 C1 5.34 1 4.68 1 4 C-1.475 3.01 -1.475 3.01 -4 2 C-2.68 1.34 -1.36 0.68 0 0 Z " fill="#3B1B0A" transform="translate(253,76)"/>
<path d="M0 0 C-0.33 1.65 -0.66 3.3 -1 5 C-2.65 4.67 -4.3 4.34 -6 4 C-2.25 0 -2.25 0 0 0 Z " fill="#30170C" transform="translate(194,36)"/>
</svg>
