<?xml version="1.0" standalone="no"?>
<!DOCTYPE svg PUBLIC "-//W3C//DTD SVG 20010904//EN"
 "http://www.w3.org/TR/2001/REC-SVG-20010904/DTD/svg10.dtd">
<svg version="1.0" xmlns="http://www.w3.org/2000/svg"
 width="342.000000pt" height="319.000000pt" viewBox="0 0 342.000000 319.000000"
 preserveAspectRatio="xMidYMid meet">

<g transform="translate(0.000000,319.000000) scale(0.100000,-0.100000)"
fill="#000000" stroke="none">
<path d="M1663 2961 c-45 -28 -95 -58 -110 -69 -25 -17 -456 -285 -668 -414
-44 -27 -86 -57 -92 -66 -10 -12 -13 -140 -13 -558 0 -298 3 -550 6 -559 7
-18 40 -40 419 -275 280 -173 401 -249 484 -302 25 -15 56 -28 71 -28 16 0
112 54 255 143 127 79 337 210 468 291 130 81 242 156 248 167 6 13 9 119 7
305 -3 269 -4 286 -22 300 -36 26 -67 15 -208 -73 -76 -49 -166 -105 -198
-125 l-59 -36 -73 41 c-40 23 -84 50 -98 60 -14 11 -49 34 -79 52 l-53 32 83
55 c87 57 150 96 223 138 23 14 69 42 102 63 32 20 127 79 209 130 159 99 187
128 168 169 -7 15 -135 101 -374 248 -199 124 -368 227 -373 230 -6 3 -43 26
-82 51 -83 55 -128 79 -146 79 -7 0 -50 -22 -95 -49z m173 -145 c38 -24 137
-85 219 -136 130 -80 270 -167 395 -245 19 -12 48 -30 64 -40 l29 -17 -49 -30
c-27 -17 -71 -45 -99 -63 -27 -17 -182 -114 -342 -213 l-293 -182 -62 38
c-101 62 -681 424 -701 437 -15 11 29 41 340 235 446 277 417 260 424 260 3 0
37 -20 75 -44z m-518 -810 c139 -87 252 -159 250 -161 -5 -4 -625 -387 -645
-399 -10 -6 -13 78 -13 403 l0 411 78 -48 c42 -27 191 -120 330 -206z m476
-252 l35 15 138 -86 c76 -47 142 -89 146 -93 5 -4 -85 -65 -198 -136 -136 -85
-210 -137 -216 -152 -5 -13 -9 -115 -9 -227 l0 -204 -242 151 c-134 83 -294
182 -355 220 -62 38 -113 73 -113 77 0 5 62 46 138 93 75 47 235 146 355 221
l218 136 35 -15 c30 -12 38 -12 68 0z m816 -211 l0 -188 -188 -116 c-103 -64
-278 -173 -390 -243 -111 -69 -205 -126 -208 -126 -2 0 -3 84 -2 187 l3 186
390 244 c214 133 391 243 392 243 2 0 3 -84 3 -187z"/>
<path d="M860 471 c-47 -25 -83 -93 -76 -145 13 -105 123 -163 219 -117 47 23
72 51 83 95 l6 26 -102 0 c-77 0 -101 -3 -98 -12 3 -9 31 -14 81 -16 42 -2 77
-5 77 -8 0 -19 -26 -47 -60 -64 -49 -25 -61 -25 -111 1 -68 34 -89 117 -46
180 42 63 136 72 193 18 30 -28 50 -22 28 9 -34 50 -132 67 -194 33z"/>
<path d="M1291 468 c-5 -13 -32 -76 -60 -141 -28 -65 -51 -121 -51 -123 0 -2
6 -4 13 -4 6 0 20 20 30 45 l19 45 73 0 72 0 17 -45 c10 -25 24 -45 33 -45 18
0 17 2 -51 160 -55 128 -77 154 -95 108z m79 -140 c0 -5 -25 -8 -55 -8 -30 0
-55 1 -55 3 1 6 28 75 40 101 l15 29 27 -59 c15 -32 27 -62 28 -66z"/>
<path d="M1560 475 c0 -11 17 -15 69 -17 l69 -3 -69 -115 c-38 -63 -69 -121
-69 -127 0 -10 24 -13 85 -13 102 0 115 18 16 22 l-70 3 69 115 c38 63 70 123
70 133 0 15 -11 17 -85 17 -68 0 -85 -3 -85 -15z"/>
<path d="M1850 345 l0 -145 80 0 c47 0 80 4 80 10 0 6 -28 10 -65 10 l-65 0 0
55 0 55 60 0 c47 0 60 3 60 15 0 12 -13 15 -60 15 l-60 0 0 50 0 50 65 0 c51
0 65 3 65 15 0 12 -16 15 -80 15 l-80 0 0 -145z"/>
<path d="M2137 483 c-4 -3 -7 -69 -7 -146 l0 -139 75 4 c82 4 101 14 111 64 4
24 0 37 -20 61 -22 27 -24 32 -11 43 34 28 13 92 -36 109 -35 12 -102 15 -112
4z m114 -33 c23 -13 25 -53 3 -74 -9 -9 -32 -16 -55 -16 l-39 0 0 50 0 50 36
0 c19 0 44 -5 55 -10z m-12 -120 c86 -24 59 -110 -34 -110 l-45 0 0 53 c0 30
3 57 7 60 9 10 32 9 72 -3z"/>
<path d="M2502 470 c-45 -27 -72 -76 -72 -128 0 -85 67 -149 151 -145 93 4
149 58 149 143 0 114 -131 189 -228 130z m115 -11 c91 -34 116 -145 47 -210
-21 -20 -36 -24 -84 -24 -48 0 -63 4 -84 24 -67 63 -46 169 39 207 37 16 46
17 82 3z"/>
</g>
</svg>
