<svg version="1.1" id="Layer_1" xmlns="http://www.w3.org/2000/svg" xmlns:xlink="http://www.w3.org/1999/xlink" x="0px" y="0px"
	 width="100%" viewBox="0 0 512 512" enable-background="new 0 0 512 512" xml:space="preserve">
<path fill="#009388" opacity="1.000000" stroke="none" 
	d="
M1.000000,473.000000 
	C1.000000,328.977997 1.000000,184.955978 1.361402,40.319450 
	C3.260364,30.226681 7.908210,22.307005 14.229957,15.316908 
	C20.454025,8.434816 28.524162,4.365294 37.000000,1.000000 
	C183.355347,1.000000 329.710693,1.000000 476.669128,1.353194 
	C485.379761,3.592760 492.038300,8.083847 498.039978,13.585270 
	C505.852875,20.746889 509.916992,30.115553 513.000000,40.000000 
	C513.000000,179.688675 513.000000,319.377350 512.670715,459.450592 
	C511.266083,458.605225 509.960388,457.510040 509.150177,456.125000 
	C498.259766,437.508423 487.401123,418.872925 476.636322,400.183533 
	C474.819641,397.029449 473.079651,393.723206 472.017242,390.268036 
	C470.435425,385.123535 467.445251,381.932434 461.795898,380.757690 
	C459.676483,379.958313 457.899139,378.923248 456.104645,378.892517 
	C446.518707,378.728241 436.926727,378.931427 427.340149,378.787079 
	C413.489227,378.578552 416.216248,379.825378 415.392639,389.922699 
	C412.392181,386.872101 409.695953,383.925964 406.661957,380.773102 
	C405.044739,379.989319 403.769135,378.920349 402.485229,378.910339 
	C387.585205,378.793945 372.683960,378.836792 357.783020,378.839050 
	C354.199036,378.839600 352.824921,380.825928 352.808716,384.203735 
	C352.788116,388.500427 352.644531,392.796509 352.232544,397.002258 
	C348.148041,394.323639 344.439148,391.650970 340.593658,389.191833 
	C339.175812,388.285187 337.435852,387.882202 335.874634,387.230347 
	C335.906464,387.211243 335.856689,387.255646 335.835846,386.897217 
	C333.798645,385.044891 331.782288,383.550964 329.507019,381.798645 
	C327.438751,380.631744 325.651611,378.994141 323.816315,378.938293 
	C314.854919,378.665710 305.878937,378.920044 296.911713,378.771729 
	C292.383514,378.696869 290.661926,380.705475 290.771210,385.096100 
	C290.911621,390.736084 290.734283,396.384033 290.376740,401.945160 
	C287.247345,399.933624 284.435028,398.005463 281.439148,396.053772 
	C281.009705,395.891113 280.904510,395.681427 280.904541,395.026123 
	C278.464691,392.458130 276.060333,390.265045 273.460785,388.040802 
	C273.006653,387.859802 272.893402,387.636230 272.867676,386.994263 
	C270.630096,384.785919 268.450745,382.922241 266.007263,380.739685 
	C264.565857,379.897675 263.393524,378.934052 262.210449,378.920654 
	C252.253708,378.808136 242.294846,378.842010 232.336929,378.893829 
	C228.892349,378.911774 227.852905,381.118408 227.816696,384.175079 
	C227.761734,388.814728 227.644669,393.453644 227.221466,398.049988 
	C221.966324,394.722473 217.043732,391.437866 211.904373,387.924042 
	C211.118988,387.460175 210.550354,387.225525 209.992828,386.987091 
	C210.003952,386.983307 210.014557,387.004272 209.952621,386.656799 
	C207.797302,384.258636 205.703918,382.207947 203.260132,379.956604 
	C198.650330,379.441986 194.394501,378.934570 190.130798,378.856598 
	C182.573975,378.718323 182.571976,378.827454 181.047180,386.124420 
	C174.423325,387.388763 174.423325,387.388763 173.412552,393.644257 
	C165.858231,395.255157 165.841049,395.298706 165.810013,403.102814 
	C165.759659,415.758667 165.683380,428.414398 165.304443,440.983948 
	C159.811569,434.245087 154.106247,427.930389 149.568100,420.865906 
	C141.400391,408.151245 133.932312,394.987091 125.971420,381.676697 
	C123.917793,380.500641 122.125504,379.163879 120.198067,378.927063 
	C116.922661,378.524689 113.562042,378.796692 110.237434,378.818115 
	C103.419563,378.862091 102.818893,379.424500 102.823471,386.271484 
	C102.837791,407.713409 102.807823,429.156372 103.068100,450.595612 
	C103.093384,452.678223 105.010788,454.737854 106.098373,457.175537 
	C107.654121,460.681213 108.847801,464.022522 110.724373,466.921844 
	C117.852776,477.935181 125.344971,488.714508 132.394775,499.776550 
	C135.028427,503.909119 136.822876,508.576477 139.000000,513.000000 
	C106.644653,513.000000 74.289314,513.000000 41.319439,512.638611 
	C31.100357,510.698334 23.081568,505.987762 16.046425,499.511353 
	C8.220067,492.306549 4.070134,482.942230 1.000000,473.000000 
M99.018318,344.197937 
	C99.012032,320.011292 99.046524,295.824463 98.920418,271.638458 
	C98.910553,269.745819 97.779289,267.859009 97.023712,265.134552 
	C94.935295,264.245300 92.846878,263.356049 89.801720,262.059448 
	C89.801720,276.131989 89.801720,288.523102 89.801720,300.633911 
	C77.562637,300.633911 65.837173,300.633911 54.229668,300.633911 
	C54.229668,253.292313 54.229668,206.380356 54.229668,159.266144 
	C66.502831,159.266144 78.553520,159.266144 91.129478,159.266144 
	C91.129478,172.580093 91.129478,185.644882 91.129478,198.650803 
	C93.721100,198.650803 95.764999,198.650803 97.604858,198.650803 
	C97.604858,169.926544 97.604858,141.559982 97.604858,113.342773 
	C95.268875,113.342773 93.339378,113.342773 90.914169,113.342773 
	C90.914169,126.005280 90.914169,138.398712 90.914169,150.907852 
	C78.946167,150.907852 67.482101,150.907852 56.008884,149.982498 
	C56.005718,124.527580 56.042774,99.072472 55.917183,73.618156 
	C55.907902,71.736778 54.727928,69.861183 53.955254,67.140015 
	C52.140900,62.524059 48.862030,66.138863 46.291805,65.261353 
	C46.291805,184.359436 46.291805,302.942444 46.291805,421.728973 
	C48.904900,421.728973 51.286663,421.728973 54.151497,421.728973 
	C54.151497,384.061340 54.151497,346.669434 54.151497,309.367737 
	C66.366180,309.367737 78.090782,309.367737 90.178741,309.367737 
	C90.178741,322.668365 90.178741,335.611938 90.178741,348.744019 
	C92.629700,348.744019 94.707191,348.744019 96.857185,348.744019 
	C96.955978,347.009369 97.040367,345.527679 97.530746,344.503021 
	C97.728760,345.078339 97.926773,345.653687 98.497070,346.755463 
	C102.211670,349.226746 105.091232,350.505981 108.381561,345.321838 
	C124.293373,320.251404 140.642685,295.458832 156.796021,270.541290 
	C160.248489,265.215607 160.170303,265.164917 153.806625,261.177216 
	C150.544922,266.194519 147.290436,271.216553 144.020309,276.228333 
	C129.027847,299.205444 114.030991,322.179688 99.018318,344.197937 
M174.008286,129.512192 
	C174.008286,126.846077 174.009644,124.179962 174.008026,121.513847 
	C174.003052,113.338905 172.883621,112.396011 164.365524,113.525490 
	C164.365524,141.906052 164.365524,170.304367 164.365524,198.641266 
	C167.069092,198.641266 169.449799,198.641266 172.140198,198.641266 
	C172.140198,185.334732 172.140198,172.392609 172.140198,159.284424 
	C202.523727,159.284424 232.581467,159.284424 262.750000,159.284424 
	C262.750000,206.623169 262.750000,253.685181 262.750000,300.696411 
	C232.039993,300.696411 201.644180,300.696411 170.890503,300.696411 
	C170.890503,288.059814 170.890503,275.786621 170.890503,263.359344 
	C168.144318,263.359344 165.764664,263.359344 163.431244,263.359344 
	C163.431244,292.047638 163.431244,320.438416 163.431244,348.760498 
	C166.074493,348.760498 168.346664,348.760498 171.104980,348.760498 
	C171.104980,335.451721 171.104980,322.381378 171.104980,308.756897 
	C204.653397,308.756897 237.712173,308.756897 271.143311,308.756897 
	C271.143311,258.592438 271.143311,208.993881 271.143311,159.283493 
	C302.602448,159.283493 333.680359,159.283493 364.558594,159.283493 
	C366.873077,173.252457 369.576538,186.622589 383.666229,193.720688 
	C383.554962,191.589508 382.670532,189.882004 381.658356,188.253876 
	C379.074341,184.097229 374.994965,180.273331 374.067871,175.788361 
	C370.345612,157.781387 369.494232,139.906982 382.127869,124.266541 
	C383.090393,123.074905 383.029236,121.056381 383.443909,119.422226 
	C382.927460,119.290649 382.411041,119.159065 381.894592,119.027489 
	C373.191284,125.860077 368.007904,134.967117 366.233917,145.757721 
	C365.538849,149.985657 364.207367,151.149033 360.085083,151.141235 
	C299.752380,151.027145 239.419418,151.064560 179.086502,151.053101 
	C177.485260,151.052795 175.884048,150.908722 174.008286,150.818481 
	C174.008286,143.790787 174.008286,137.148941 174.008286,129.512192 
M465.461731,123.920822 
	C470.812195,131.285294 474.390839,139.210083 475.391907,148.491730 
	C476.991577,163.324051 475.734894,177.188477 465.566010,189.087845 
	C464.624084,190.190018 464.418579,191.921494 463.871124,193.360764 
	C464.440491,193.616684 465.009857,193.872589 465.579224,194.128494 
	C478.447937,186.305328 481.313019,172.987152 483.541870,158.862930 
	C488.644165,158.862930 493.723969,158.862930 498.599426,158.862930 
	C498.599426,155.988846 498.599426,153.601517 498.599426,151.053207 
	C494.198120,151.053207 490.178589,151.341965 486.239868,150.904053 
	C484.766479,150.740234 482.321564,148.910477 482.295654,147.794418 
	C482.105408,139.603241 477.973694,133.060806 473.711395,126.698051 
	C471.559357,123.485458 468.194489,121.085327 465.377991,118.317833 
	C464.890442,118.685318 464.402863,119.052795 463.915314,119.420280 
	C464.263275,120.729538 464.611237,122.038795 465.461731,123.920822 
M19.991508,159.064789 
	C19.991508,163.666473 19.991508,168.268158 19.991508,173.146820 
	C22.041721,172.946762 23.437582,172.810547 24.769093,172.680603 
	C25.930794,154.638931 25.849913,153.971054 21.887812,149.055161 
	C19.298878,150.191910 16.668673,151.346771 14.063830,152.490509 
	C14.589234,154.188446 15.007574,155.540375 15.129154,155.933289 
	C17.218660,156.908340 18.601772,157.553757 19.991508,159.064789 
z"/>
<path fill="#017A6C" opacity="1.000000" stroke="none" 
	d="
M139.468658,513.000000 
	C136.822876,508.576477 135.028427,503.909119 132.394775,499.776550 
	C125.344971,488.714508 117.852776,477.935181 110.724373,466.921844 
	C108.847801,464.022522 107.654121,460.681213 106.563187,457.210083 
	C121.307472,456.917542 135.638138,457.107452 149.960724,456.849518 
	C152.323044,456.806946 156.097137,455.343872 156.746872,453.610657 
	C159.822830,445.405396 156.804520,441.659332 147.990265,441.653351 
	C144.491058,441.650970 140.991852,441.652863 137.492645,441.652863 
	C133.744858,441.652863 129.997070,441.652893 126.171967,441.652893 
	C126.171967,421.315063 126.171967,401.662903 126.171967,382.010742 
	C133.932312,394.987091 141.400391,408.151245 149.568100,420.865906 
	C154.106247,427.930389 159.811569,434.245087 165.413971,441.428253 
	C166.000977,458.068054 164.532913,457.036377 182.204895,456.969299 
	C187.270950,456.950073 188.981079,455.067017 189.001419,450.058350 
	C189.024185,444.456543 189.006638,438.854614 189.006638,433.326691 
	C191.992798,433.326691 194.386551,433.326691 197.001602,433.326691 
	C197.001602,436.296112 197.073105,438.943756 196.990021,441.586548 
	C196.442856,458.990204 198.067642,456.964752 213.517807,456.957489 
	C217.804611,456.955475 220.359756,455.407318 220.255463,450.164825 
	C219.937790,434.197937 220.033005,418.219574 220.204926,402.248230 
	C220.257431,397.370422 219.537888,393.821594 213.508286,394.828583 
	C212.967377,392.671661 212.497345,390.797394 212.053467,388.731018 
	C212.079620,388.538879 212.121124,388.153290 212.121124,388.153290 
	C217.043732,391.437866 221.966324,394.722473 227.360458,398.490479 
	C227.887497,415.636444 227.948700,432.298950 227.995590,448.961517 
	C228.013840,455.446655 229.558472,456.979675 236.245651,456.994720 
	C243.411575,457.010864 250.577560,456.999481 257.743530,456.998108 
	C265.701477,456.996582 265.842194,456.885223 267.688812,449.057495 
	C273.651825,449.958923 274.950867,446.051880 275.165802,441.369019 
	C281.731415,440.562744 282.076355,440.166473 282.135925,433.491577 
	C282.156738,431.158661 282.171722,428.824921 282.134949,426.492401 
	C281.975159,416.353851 281.795258,406.215637 281.622681,396.077301 
	C284.435028,398.005463 287.247345,399.933624 290.477356,402.401978 
	C290.930359,418.575562 290.959229,434.209015 291.004700,449.842407 
	C291.019745,455.011597 292.862549,456.926666 298.123566,456.979126 
	C305.773468,457.055450 313.424744,457.001678 321.075409,456.998077 
	C328.251221,456.994720 329.146088,456.258423 330.549408,449.061005 
	C336.277283,449.802917 337.975067,446.281555 338.174774,441.441772 
	C344.827026,440.504791 345.324951,439.952820 345.342133,433.237488 
	C345.367676,423.261383 345.237946,413.283325 345.396118,403.309662 
	C345.516754,395.701080 345.521973,395.507263 338.856110,394.179169 
	C337.781464,391.707764 336.812134,389.478607 335.842834,387.249481 
	C337.435852,387.882202 339.175812,388.285187 340.593658,389.191833 
	C344.439148,391.650970 348.148041,394.323639 352.371521,397.442719 
	C352.886444,415.468170 353.028290,432.962982 352.932617,450.456512 
	C352.909332,454.712494 355.012817,456.858795 358.742218,456.910034 
	C373.069885,457.106995 387.403748,457.089844 401.730133,456.847748 
	C403.499542,456.817841 406.218353,455.356964 406.825378,453.874603 
	C409.853760,446.479126 406.565643,441.804230 398.635345,441.676147 
	C393.137848,441.587341 387.637390,441.693756 382.139160,441.631348 
	C380.210236,441.609436 378.284058,441.344543 376.287354,441.185059 
	C376.287354,435.750458 376.287354,430.805786 376.287354,425.213440 
	C382.460022,425.213440 388.416809,425.289551 394.368866,425.156586 
	C395.749420,425.125732 398.173309,424.595947 398.308075,423.929810 
	C399.002686,420.495758 399.906952,416.739105 399.085510,413.516205 
	C398.669922,411.885681 394.834534,410.381256 392.421234,410.157257 
	C387.049164,409.658630 381.599030,410.001678 376.413910,410.001678 
	C376.413910,404.289764 376.413910,399.365082 376.413910,394.154816 
	C383.897125,394.154816 391.036041,394.174286 398.174835,394.149841 
	C407.043121,394.119476 408.521515,392.402466 407.462006,383.427979 
	C407.364899,382.605194 407.156433,381.795563 406.999695,380.979828 
	C409.695953,383.925964 412.392181,386.872101 415.503296,390.377563 
	C415.943542,407.744690 416.085052,424.553345 415.961792,441.360016 
	C415.837006,458.379547 414.965942,456.999603 432.605072,456.996552 
	C432.771484,456.996521 432.940247,457.013031 433.103973,456.991577 
	C436.787598,456.508575 439.232117,455.114777 439.086121,450.703827 
	C438.855927,443.749634 439.024902,436.782227 439.024902,430.389832 
	C441.566956,431.562347 444.151062,432.754272 447.002655,434.069580 
	C447.002655,439.193848 447.006165,444.676056 447.001587,450.158264 
	C446.997894,454.555237 449.141418,456.910797 453.580139,456.985504 
	C456.907593,457.041504 460.242767,457.122375 463.563660,456.964264 
	C467.802795,456.762451 470.630981,455.393799 470.171814,450.121185 
	C469.697113,444.670227 469.802338,439.132385 470.119141,433.659454 
	C470.416626,428.519775 469.249329,425.127533 463.232910,425.861877 
	C463.232910,423.028717 463.232910,420.594116 463.232910,417.926666 
	C469.281067,418.191010 470.499664,414.878143 470.121918,409.748322 
	C469.756317,404.784149 470.041199,399.769104 470.102814,394.777161 
	C470.191956,387.556793 470.105011,387.422882 463.315094,386.627533 
	C462.922485,384.758240 462.526276,382.871857 462.130066,380.985474 
	C467.445251,381.932434 470.435425,385.123535 472.017242,390.268036 
	C473.079651,393.723206 474.819641,397.029449 476.636322,400.183533 
	C487.401123,418.872925 498.259766,437.508423 509.150177,456.125000 
	C509.960388,457.510040 511.266083,458.605225 512.670715,459.917572 
	C513.000000,477.648560 513.000000,495.297119 513.000000,513.000000 
	C388.645782,513.000000 264.291534,513.000000 139.468658,513.000000 
z"/>
<path fill="#FFFFFF" opacity="1.000000" stroke="none" 
	d="
M1.000000,473.468658 
	C4.070134,482.942230 8.220067,492.306549 16.046425,499.511353 
	C23.081568,505.987762 31.100357,510.698334 40.852455,512.638611 
	C27.740011,513.000000 14.480022,513.000000 1.000000,513.000000 
	C1.000000,499.979919 1.000000,486.958618 1.000000,473.468658 
z"/>
<path fill="#FFFFFF" opacity="1.000000" stroke="none" 
	d="
M513.000000,39.531342 
	C509.916992,30.115553 505.852875,20.746889 498.039978,13.585270 
	C492.038300,8.083847 485.379761,3.592760 477.136108,1.353194 
	C488.929565,1.000000 500.859131,1.000000 513.000000,1.000000 
	C513.000000,13.686780 513.000000,26.374731 513.000000,39.531342 
z"/>
<path fill="#FFFFFF" opacity="1.000000" stroke="none" 
	d="
M36.531342,1.000000 
	C28.524162,4.365294 20.454025,8.434816 14.229957,15.316908 
	C7.908210,22.307005 3.260364,30.226681 1.361402,39.852467 
	C1.000000,27.076311 1.000000,14.152621 1.000000,1.000000 
	C12.686565,1.000000 24.374624,1.000000 36.531342,1.000000 
z"/>
<path fill="#FBFDFB" opacity="1.000000" stroke="none" 
	d="
M174.008286,130.009644 
	C174.008286,137.148941 174.008286,143.790787 174.008286,150.818481 
	C175.884048,150.908722 177.485260,151.052795 179.086502,151.053101 
	C239.419418,151.064560 299.752380,151.027145 360.085083,151.141235 
	C364.207367,151.149033 365.538849,149.985657 366.233917,145.757721 
	C368.007904,134.967117 373.191284,125.860077 381.894592,119.027489 
	C382.411041,119.159065 382.927460,119.290649 383.443909,119.422226 
	C383.029236,121.056381 383.090393,123.074905 382.127869,124.266541 
	C369.494232,139.906982 370.345612,157.781387 374.067871,175.788361 
	C374.994965,180.273331 379.074341,184.097229 381.658356,188.253876 
	C382.670532,189.882004 383.554962,191.589508 383.666229,193.720688 
	C369.576538,186.622589 366.873077,173.252457 364.558594,159.283493 
	C333.680359,159.283493 302.602448,159.283493 271.143311,159.283493 
	C271.143311,208.993881 271.143311,258.592438 271.143311,308.756897 
	C237.712173,308.756897 204.653397,308.756897 171.104980,308.756897 
	C171.104980,322.381378 171.104980,335.451721 171.104980,348.760498 
	C168.346664,348.760498 166.074493,348.760498 163.431244,348.760498 
	C163.431244,320.438416 163.431244,292.047638 163.431244,263.359344 
	C165.764664,263.359344 168.144318,263.359344 170.890503,263.359344 
	C170.890503,275.786621 170.890503,288.059814 170.890503,300.696411 
	C201.644180,300.696411 232.039993,300.696411 262.750000,300.696411 
	C262.750000,253.685181 262.750000,206.623169 262.750000,159.284424 
	C232.581467,159.284424 202.523727,159.284424 172.140198,159.284424 
	C172.140198,172.392609 172.140198,185.334732 172.140198,198.641266 
	C169.449799,198.641266 167.069092,198.641266 164.365524,198.641266 
	C164.365524,170.304367 164.365524,141.906052 164.365524,113.525490 
	C172.883621,112.396011 174.003052,113.338905 174.008026,121.513847 
	C174.009644,124.179962 174.008286,126.846077 174.008286,130.009644 
z"/>
<path fill="#FBFDFB" opacity="1.000000" stroke="none" 
	d="
M97.124756,344.045990 
	C97.040367,345.527679 96.955978,347.009369 96.857185,348.744019 
	C94.707191,348.744019 92.629700,348.744019 90.178741,348.744019 
	C90.178741,335.611938 90.178741,322.668365 90.178741,309.367737 
	C78.090782,309.367737 66.366180,309.367737 54.151497,309.367737 
	C54.151497,346.669434 54.151497,384.061340 54.151497,421.728973 
	C51.286663,421.728973 48.904900,421.728973 46.291805,421.728973 
	C46.291805,302.942444 46.291805,184.359436 46.291805,65.261353 
	C48.862030,66.138863 52.140900,62.524059 53.948074,67.827454 
	C54.002193,68.688751 54.063496,68.862625 54.081978,69.267372 
	C54.039158,69.498245 54.124756,69.959999 54.045372,70.425278 
	C54.018906,97.271553 54.071831,123.652542 54.113945,150.284622 
	C54.388588,150.648880 54.674042,150.762039 55.221546,150.967102 
	C55.661739,151.008621 55.839886,150.958237 56.018032,150.907852 
	C67.482101,150.907852 78.946167,150.907852 90.914169,150.907852 
	C90.914169,138.398712 90.914169,126.005280 90.914169,113.342773 
	C93.339378,113.342773 95.268875,113.342773 97.604858,113.342773 
	C97.604858,141.559982 97.604858,169.926544 97.604858,198.650803 
	C95.764999,198.650803 93.721100,198.650803 91.129478,198.650803 
	C91.129478,185.644882 91.129478,172.580093 91.129478,159.266144 
	C78.553520,159.266144 66.502831,159.266144 54.229668,159.266144 
	C54.229668,206.380356 54.229668,253.292313 54.229668,300.633911 
	C65.837173,300.633911 77.562637,300.633911 89.801720,300.633911 
	C89.801720,288.523102 89.801720,276.131989 89.801720,262.059448 
	C92.846878,263.356049 94.935295,264.245300 97.042809,265.820862 
	C97.097183,266.686462 97.132462,266.865784 97.106415,267.271484 
	C97.045097,267.497864 97.124756,267.960175 97.045372,268.425446 
	C97.018913,293.942474 97.071838,318.994232 97.124756,344.045990 
z"/>
<path fill="#FFFFFD" opacity="1.000000" stroke="none" 
	d="
M461.795898,380.757690 
	C462.526276,382.871857 462.922485,384.758240 463.315094,386.627533 
	C470.105011,387.422882 470.191956,387.556793 470.102814,394.777161 
	C470.041199,399.769104 469.756317,404.784149 470.121918,409.748322 
	C470.499664,414.878143 469.281067,418.191010 463.232910,417.926666 
	C463.232910,420.594116 463.232910,423.028717 463.232910,425.861877 
	C469.249329,425.127533 470.416626,428.519775 470.119141,433.659454 
	C469.802338,439.132385 469.697113,444.670227 470.171814,450.121185 
	C470.630981,455.393799 467.802795,456.762451 463.563660,456.964264 
	C460.242767,457.122375 456.907593,457.041504 453.580139,456.985504 
	C449.141418,456.910797 446.997894,454.555237 447.001587,450.158264 
	C447.006165,444.676056 447.002655,439.193848 447.002655,434.069580 
	C444.151062,432.754272 441.566956,431.562347 439.024902,430.389832 
	C439.024902,436.782227 438.855927,443.749634 439.086121,450.703827 
	C439.232117,455.114777 436.787598,456.508575 433.103973,456.991577 
	C432.940247,457.013031 432.771484,456.996521 432.605072,456.996552 
	C414.965942,456.999603 415.837006,458.379547 415.961792,441.360016 
	C416.085052,424.553345 415.943542,407.744690 415.807495,390.482056 
	C416.216248,379.825378 413.489227,378.578552 427.340149,378.787079 
	C436.926727,378.931427 446.518707,378.728241 456.104645,378.892517 
	C457.899139,378.923248 459.676483,379.958313 461.795898,380.757690 
M446.910217,409.187927 
	C446.910217,404.271332 446.910217,399.354706 446.910217,394.262268 
	C444.170013,394.262268 441.793732,394.262268 439.242126,394.262268 
	C439.242126,399.538361 439.242126,404.576385 439.242126,409.892487 
	C441.743561,409.892487 444.014587,409.892487 446.910217,409.187927 
z"/>
<path fill="#FFFFFD" opacity="1.000000" stroke="none" 
	d="
M281.439117,396.053772 
	C281.795258,406.215637 281.975159,416.353851 282.134949,426.492401 
	C282.171722,428.824921 282.156738,431.158661 282.135925,433.491577 
	C282.076355,440.166473 281.731415,440.562744 275.165802,441.369019 
	C274.950867,446.051880 273.651825,449.958923 267.688812,449.057495 
	C265.842194,456.885223 265.701477,456.996582 257.743530,456.998108 
	C250.577560,456.999481 243.411575,457.010864 236.245651,456.994720 
	C229.558472,456.979675 228.013840,455.446655 227.995590,448.961517 
	C227.948700,432.298950 227.887497,415.636444 227.692993,398.533386 
	C227.644669,393.453644 227.761734,388.814728 227.816696,384.175079 
	C227.852905,381.118408 228.892349,378.911774 232.336929,378.893829 
	C242.294846,378.842010 252.253708,378.808136 262.210449,378.920654 
	C263.393524,378.934052 264.565857,379.897675 266.055634,381.117188 
	C266.740875,383.448334 267.113647,385.083130 267.455658,386.582886 
	C269.478577,386.862457 271.202240,387.100677 272.925873,387.338898 
	C272.893402,387.636230 273.006653,387.859802 273.592346,388.416260 
	C274.453674,390.675629 274.988312,392.528351 275.512115,394.343597 
	C277.392975,394.710022 279.166473,395.055573 280.940002,395.401093 
	C280.904510,395.681427 281.009705,395.891113 281.439117,396.053772 
M259.010284,422.468231 
	C259.010284,415.686493 259.010284,408.904785 259.010284,402.313263 
	C256.079285,401.869873 253.719254,401.512878 251.295044,401.146149 
	C251.295044,413.268768 251.295044,425.063293 251.295044,436.044708 
	C253.741150,434.953979 256.231659,433.843445 259.010284,432.604431 
	C259.010284,429.758759 259.010284,426.606781 259.010284,422.468231 
z"/>
<path fill="#FEFFFD" opacity="1.000000" stroke="none" 
	d="
M335.874634,387.230347 
	C336.812134,389.478607 337.781464,391.707764 338.856110,394.179169 
	C345.521973,395.507263 345.516754,395.701080 345.396118,403.309662 
	C345.237946,413.283325 345.367676,423.261383 345.342133,433.237488 
	C345.324951,439.952820 344.827026,440.504791 338.174774,441.441772 
	C337.975067,446.281555 336.277283,449.802917 330.549408,449.061005 
	C329.146088,456.258423 328.251221,456.994720 321.075409,456.998077 
	C313.424744,457.001678 305.773468,457.055450 298.123566,456.979126 
	C292.862549,456.926666 291.019745,455.011597 291.004700,449.842407 
	C290.959229,434.209015 290.930359,418.575562 290.794434,402.485352 
	C290.734283,396.384033 290.911621,390.736084 290.771210,385.096100 
	C290.661926,380.705475 292.383514,378.696869 296.911713,378.771729 
	C305.878937,378.920044 314.854919,378.665710 323.816315,378.938293 
	C325.651611,378.994141 327.438751,380.631744 329.548584,382.217102 
	C330.007751,384.127625 330.166443,385.361267 330.322937,386.577850 
	C332.358551,386.827179 334.107605,387.041412 335.856689,387.255646 
	C335.856689,387.255646 335.906464,387.211243 335.874634,387.230347 
M314.135040,436.073517 
	C314.147095,436.239014 314.125641,436.418396 314.185913,436.563934 
	C314.214203,436.632294 314.438324,436.700287 314.508850,436.658630 
	C316.855499,435.273438 319.194275,433.874878 321.764313,432.340942 
	C321.764313,422.668793 321.764313,412.432007 321.764313,402.953552 
	C318.880341,401.751312 316.489685,400.754700 314.130951,399.771393 
	C314.130951,411.499542 314.130951,423.424927 314.135040,436.073517 
z"/>
<path fill="#FFFFFD" opacity="1.000000" stroke="none" 
	d="
M212.027344,388.923126 
	C212.497345,390.797394 212.967377,392.671661 213.508286,394.828583 
	C219.537888,393.821594 220.257431,397.370422 220.204926,402.248230 
	C220.033005,418.219574 219.937790,434.197937 220.255463,450.164825 
	C220.359756,455.407318 217.804611,456.955475 213.517807,456.957489 
	C198.067642,456.964752 196.442856,458.990204 196.990021,441.586548 
	C197.073105,438.943756 197.001602,436.296112 197.001602,433.326691 
	C194.386551,433.326691 191.992798,433.326691 189.006638,433.326691 
	C189.006638,438.854614 189.024185,444.456543 189.001419,450.058350 
	C188.981079,455.067017 187.270950,456.950073 182.204895,456.969299 
	C164.532913,457.036377 166.000977,458.068054 165.727570,441.514496 
	C165.683380,428.414398 165.759659,415.758667 165.810013,403.102814 
	C165.841049,395.298706 165.858231,395.255157 173.412552,393.644257 
	C174.423325,387.388763 174.423325,387.388763 181.047180,386.124420 
	C182.571976,378.827454 182.573975,378.718323 190.130798,378.856598 
	C194.394501,378.934570 198.650330,379.441986 203.381226,380.337402 
	C204.421143,382.896545 204.989548,384.874207 205.601761,387.004272 
	C207.088226,387.004272 208.551392,387.004272 210.014557,387.004272 
	C210.014557,387.004272 210.003952,386.983307 210.172043,387.206726 
	C210.902527,387.927826 211.464935,388.425476 212.027344,388.923126 
M189.143112,406.693787 
	C189.143112,410.312286 189.143112,413.930786 189.143112,417.776855 
	C191.826202,417.776855 194.215118,417.776855 196.736145,417.776855 
	C196.736145,412.485565 196.736145,407.424316 196.736145,401.760315 
	C193.977859,403.399689 188.891800,398.814575 189.143112,406.693787 
z"/>
<path fill="#FFFFFD" opacity="1.000000" stroke="none" 
	d="
M406.661926,380.773102 
	C407.156433,381.795563 407.364899,382.605194 407.462006,383.427979 
	C408.521515,392.402466 407.043121,394.119476 398.174835,394.149841 
	C391.036041,394.174286 383.897125,394.154816 376.413910,394.154816 
	C376.413910,399.365082 376.413910,404.289764 376.413910,410.001678 
	C381.599030,410.001678 387.049164,409.658630 392.421234,410.157257 
	C394.834534,410.381256 398.669922,411.885681 399.085510,413.516205 
	C399.906952,416.739105 399.002686,420.495758 398.308075,423.929810 
	C398.173309,424.595947 395.749420,425.125732 394.368866,425.156586 
	C388.416809,425.289551 382.460022,425.213440 376.287354,425.213440 
	C376.287354,430.805786 376.287354,435.750458 376.287354,441.185059 
	C378.284058,441.344543 380.210236,441.609436 382.139160,441.631348 
	C387.637390,441.693756 393.137848,441.587341 398.635345,441.676147 
	C406.565643,441.804230 409.853760,446.479126 406.825378,453.874603 
	C406.218353,455.356964 403.499542,456.817841 401.730133,456.847748 
	C387.403748,457.089844 373.069885,457.106995 358.742218,456.910034 
	C355.012817,456.858795 352.909332,454.712494 352.932617,450.456512 
	C353.028290,432.962982 352.886444,415.468170 352.692993,397.533325 
	C352.644531,392.796509 352.788116,388.500427 352.808716,384.203735 
	C352.824921,380.825928 354.199036,378.839600 357.783020,378.839050 
	C372.683960,378.836792 387.585205,378.793945 402.485229,378.910339 
	C403.769135,378.920349 405.044739,379.989319 406.661926,380.773102 
z"/>
<path fill="#FFFFFD" opacity="1.000000" stroke="none" 
	d="
M125.971420,381.676697 
	C126.171967,401.662903 126.171967,421.315063 126.171967,441.652893 
	C129.997070,441.652893 133.744858,441.652863 137.492645,441.652863 
	C140.991852,441.652863 144.491058,441.650970 147.990265,441.653351 
	C156.804520,441.659332 159.822830,445.405396 156.746872,453.610657 
	C156.097137,455.343872 152.323044,456.806946 149.960724,456.849518 
	C135.638138,457.107452 121.307472,456.917542 106.514702,456.842712 
	C105.010788,454.737854 103.093384,452.678223 103.068100,450.595612 
	C102.807823,429.156372 102.837791,407.713409 102.823471,386.271484 
	C102.818893,379.424500 103.419563,378.862091 110.237434,378.818115 
	C113.562042,378.796692 116.922661,378.524689 120.198067,378.927063 
	C122.125504,379.163879 123.917793,380.500641 125.971420,381.676697 
z"/>
<path fill="#F9FCFA" opacity="1.000000" stroke="none" 
	d="
M99.035706,345.154938 
	C114.030991,322.179688 129.027847,299.205444 144.020309,276.228333 
	C147.290436,271.216553 150.544922,266.194519 153.806702,261.177277 
	C160.170303,265.164917 160.248489,265.215607 156.796021,270.541290 
	C140.642685,295.458832 124.293373,320.251404 108.381561,345.321838 
	C105.091232,350.505981 102.211670,349.226746 98.543991,346.393219 
	C98.739182,345.738953 98.887444,345.446960 99.035706,345.154938 
z"/>
<path fill="#F7FCF9" opacity="1.000000" stroke="none" 
	d="
M465.210449,123.634438 
	C464.611237,122.038795 464.263275,120.729538 463.915314,119.420280 
	C464.402863,119.052795 464.890442,118.685318 465.377991,118.317833 
	C468.194489,121.085327 471.559357,123.485458 473.711395,126.698051 
	C477.973694,133.060806 482.105408,139.603241 482.295654,147.794418 
	C482.321564,148.910477 484.766479,150.740234 486.239868,150.904053 
	C490.178589,151.341965 494.198120,151.053207 498.599426,151.053207 
	C498.599426,153.601517 498.599426,155.988846 498.599426,158.862930 
	C493.723969,158.862930 488.644165,158.862930 483.541870,158.862930 
	C481.313019,172.987152 478.447937,186.305328 465.579224,194.128494 
	C465.009857,193.872589 464.440491,193.616684 463.871124,193.360764 
	C464.418579,191.921494 464.624084,190.190018 465.566010,189.087845 
	C475.734894,177.188477 476.991577,163.324051 475.391907,148.491730 
	C474.390839,139.210083 470.812195,131.285294 465.210449,123.634438 
z"/>
<path fill="#24A299" opacity="1.000000" stroke="none" 
	d="
M54.124794,69.036499 
	C54.063496,68.862625 54.002193,68.688751 54.016548,68.248886 
	C54.727928,69.861183 55.907902,71.736778 55.917183,73.618156 
	C56.042774,99.072472 56.005718,124.527580 56.013458,150.445175 
	C55.839886,150.958237 55.661739,151.008621 55.111755,150.799011 
	C54.577438,150.318710 54.372387,150.150223 54.124756,150.033539 
	C54.071831,123.652542 54.018906,97.271553 54.135433,70.320137 
	C54.431255,69.490868 54.371227,69.253128 54.124794,69.036499 
z"/>
<path fill="#24A299" opacity="1.000000" stroke="none" 
	d="
M99.027008,344.676453 
	C98.887444,345.446960 98.739182,345.738953 98.357849,346.130005 
	C97.926773,345.653687 97.728760,345.078339 97.327759,344.274506 
	C97.071838,318.994232 97.018913,293.942474 97.139084,268.324219 
	C97.457573,267.505188 97.409431,267.267670 97.167740,267.045074 
	C97.132462,266.865784 97.097183,266.686462 97.115555,266.238342 
	C97.779289,267.859009 98.910553,269.745819 98.920418,271.638458 
	C99.046524,295.824463 99.012032,320.011292 99.027008,344.676453 
z"/>
<path fill="#F9FCFA" opacity="1.000000" stroke="none" 
	d="
M19.988197,158.631989 
	C18.601772,157.553757 17.218660,156.908340 15.129154,155.933289 
	C15.007574,155.540375 14.589234,154.188446 14.063830,152.490509 
	C16.668673,151.346771 19.298878,150.191910 21.887812,149.055161 
	C25.849913,153.971054 25.930794,154.638931 24.769093,172.680603 
	C23.437582,172.810547 22.041721,172.946762 19.991508,173.146820 
	C19.991508,168.268158 19.991508,163.666473 19.988197,158.631989 
z"/>
<path fill="#017A6C" opacity="1.000000" stroke="none" 
	d="
M280.904541,395.026123 
	C279.166473,395.055573 277.392975,394.710022 275.512115,394.343597 
	C274.988312,392.528351 274.453674,390.675629 273.787537,388.447449 
	C276.060333,390.265045 278.464691,392.458130 280.904541,395.026123 
z"/>
<path fill="#0A7F72" opacity="1.000000" stroke="none" 
	d="
M209.952621,386.656799 
	C208.551392,387.004272 207.088226,387.004272 205.601761,387.004272 
	C204.989548,384.874207 204.421143,382.896545 203.731628,380.538086 
	C205.703918,382.207947 207.797302,384.258636 209.952621,386.656799 
z"/>
<path fill="#017A6C" opacity="1.000000" stroke="none" 
	d="
M272.867676,386.994263 
	C271.202240,387.100677 269.478577,386.862457 267.455658,386.582886 
	C267.113647,385.083130 266.740875,383.448334 266.319733,381.436066 
	C268.450745,382.922241 270.630096,384.785919 272.867676,386.994263 
z"/>
<path fill="#017A6C" opacity="1.000000" stroke="none" 
	d="
M335.835846,386.897217 
	C334.107605,387.041412 332.358551,386.827179 330.322937,386.577850 
	C330.166443,385.361267 330.007751,384.127625 329.807495,382.475525 
	C331.782288,383.550964 333.798645,385.044891 335.835846,386.897217 
z"/>
<path fill="#0A7F72" opacity="1.000000" stroke="none" 
	d="
M212.053482,388.731018 
	C211.464935,388.425476 210.902527,387.927826 210.160919,387.210510 
	C210.550354,387.225525 211.118988,387.460175 211.904373,387.924042 
	C212.121124,388.153290 212.079620,388.538879 212.053482,388.731018 
z"/>
<path fill="#009388" opacity="1.000000" stroke="none" 
	d="
M54.113945,150.284622 
	C54.372387,150.150223 54.577438,150.318710 54.849701,150.707123 
	C54.674042,150.762039 54.388588,150.648880 54.113945,150.284622 
z"/>
<path fill="#009388" opacity="1.000000" stroke="none" 
	d="
M54.081978,69.267372 
	C54.371227,69.253128 54.431255,69.490868 54.214821,69.854858 
	C54.124756,69.959999 54.039158,69.498245 54.081978,69.267372 
z"/>
<path fill="#009388" opacity="1.000000" stroke="none" 
	d="
M97.106415,267.271484 
	C97.409431,267.267670 97.457573,267.505188 97.218468,267.858948 
	C97.124756,267.960175 97.045097,267.497864 97.106415,267.271484 
z"/>
<path fill="#017A6C" opacity="1.000000" stroke="none" 
	d="
M446.597900,409.540222 
	C444.014587,409.892487 441.743561,409.892487 439.242126,409.892487 
	C439.242126,404.576385 439.242126,399.538361 439.242126,394.262268 
	C441.793732,394.262268 444.170013,394.262268 446.910217,394.262268 
	C446.910217,399.354706 446.910217,404.271332 446.597900,409.540222 
z"/>
<path fill="#057C6F" opacity="1.000000" stroke="none" 
	d="
M259.010284,422.961548 
	C259.010284,426.606781 259.010284,429.758759 259.010284,432.604431 
	C256.231659,433.843445 253.741150,434.953979 251.295044,436.044708 
	C251.295044,425.063293 251.295044,413.268768 251.295044,401.146149 
	C253.719254,401.512878 256.079285,401.869873 259.010284,402.313263 
	C259.010284,408.904785 259.010284,415.686493 259.010284,422.961548 
z"/>
<path fill="#0A7F72" opacity="1.000000" stroke="none" 
	d="
M314.132996,435.711914 
	C314.130951,423.424927 314.130951,411.499542 314.130951,399.771393 
	C316.489685,400.754700 318.880341,401.751312 321.764313,402.953552 
	C321.764313,412.432007 321.764313,422.668793 321.764313,432.340942 
	C319.194275,433.874878 316.855499,435.273438 314.508850,436.658630 
	C314.438324,436.700287 314.214203,436.632294 314.185913,436.563934 
	C314.125641,436.418396 314.147095,436.239014 314.132996,435.711914 
z"/>
<path fill="#057C6F" opacity="1.000000" stroke="none" 
	d="
M189.143433,406.224731 
	C188.891800,398.814575 193.977859,403.399689 196.736145,401.760315 
	C196.736145,407.424316 196.736145,412.485565 196.736145,417.776855 
	C194.215118,417.776855 191.826202,417.776855 189.143112,417.776855 
	C189.143112,413.930786 189.143112,410.312286 189.143433,406.224731 
z"/>
</svg>