<svg version="1.1" id="Layer_1" xmlns="http://www.w3.org/2000/svg" xmlns:xlink="http://www.w3.org/1999/xlink" x="0px" y="0px"
	 width="100%" viewBox="0 0 343 147" enable-background="new 0 0 343 147" xml:space="preserve">
<path fill="#FEFEFE" opacity="1.000000" stroke="none" 
	d="
M216.000000,148.000000 
	C144.000000,148.000000 72.500000,148.000000 1.000000,148.000000 
	C1.000000,99.000000 1.000000,50.000000 1.000000,1.000000 
	C115.333336,1.000000 229.666672,1.000000 344.000000,1.000000 
	C344.000000,50.000000 344.000000,99.000000 344.000000,148.000000 
	C301.500000,148.000000 259.000000,148.000000 216.000000,148.000000 
M260.229523,83.978867 
	C269.403351,89.685394 278.501251,95.521957 287.826752,100.968819 
	C289.358673,101.863602 292.271362,101.756287 293.891571,100.889305 
	C299.302490,97.993889 304.471710,94.628799 309.633514,91.289078 
	C326.336090,80.482330 322.965668,86.764328 323.228638,66.565163 
	C323.235138,66.065277 323.223999,65.565178 323.229065,65.065254 
	C323.266113,61.406788 321.603851,61.096630 318.854614,62.814308 
	C315.896973,64.662209 313.039093,66.738503 309.896027,68.192856 
	C308.250793,68.954117 305.864319,69.203552 304.211487,68.597054 
	C301.862427,67.735069 299.880768,65.871819 297.243042,64.101387 
	C298.937744,62.919132 300.200409,61.956997 301.539917,61.117588 
	C308.016296,57.059235 314.491058,52.997383 321.013031,49.013153 
	C324.003784,47.186142 323.918335,45.602730 321.016022,43.782127 
	C311.770477,37.982449 302.612671,32.039814 293.275208,26.393517 
	C292.050232,25.652782 289.593842,25.682661 288.356201,26.429773 
	C278.830383,32.180023 269.464691,38.195526 259.426666,44.212757 
	C259.131592,44.740559 258.836487,45.268356 258.276917,46.596912 
	C258.374664,58.467472 258.472412,70.338036 258.703186,82.835838 
	C259.046753,83.075401 259.390350,83.314964 260.229523,83.978867 
M85.953018,47.721706 
	C85.953018,64.817551 85.953018,81.913399 85.953018,99.220993 
	C88.880516,99.075417 91.151886,98.962463 93.860672,98.827751 
	C93.860672,91.682503 93.860672,84.933861 93.860672,78.257240 
	C105.156471,76.966026 105.155098,76.966690 109.653214,86.313919 
	C111.093674,89.307236 112.540230,92.297630 113.989929,95.286476 
	C116.182022,99.805946 118.939034,100.487740 124.142937,97.562668 
	C120.965904,90.909645 117.776176,84.230042 114.546638,77.467056 
	C115.430641,76.935631 115.973854,76.562172 116.556358,76.265991 
	C124.393448,72.281120 127.240524,65.871635 125.226944,56.717113 
	C123.627251,49.444263 117.887680,45.179077 109.371246,45.078941 
	C102.874008,45.002544 96.372742,44.970375 89.879028,45.139545 
	C88.561378,45.173878 87.269501,46.197281 85.953018,47.721706 
M138.720810,87.657967 
	C142.641632,96.092125 149.341324,100.348732 158.548752,99.998253 
	C167.825195,99.645142 173.983597,94.514404 177.339966,86.018524 
	C180.631226,77.687469 180.804657,69.164375 178.193146,60.635189 
	C174.563293,48.780151 167.984665,44.578224 153.722778,44.782967 
	C146.757889,44.882954 139.553268,51.781914 137.034988,61.136093 
	C134.687164,69.857170 134.922256,78.539093 138.720810,87.657967 
M218.373260,84.505096 
	C217.020554,90.140869 213.438278,93.073418 207.924271,91.908684 
	C202.901703,90.847755 198.101273,88.735184 193.664108,87.241402 
	C192.202911,88.225563 190.144028,89.612289 188.135239,90.965279 
	C195.269104,99.007721 203.275284,101.483727 213.503647,99.282089 
	C220.902222,97.689560 225.348663,93.138092 226.085449,86.403107 
	C226.974701,78.274353 224.353165,73.383430 216.830536,70.053009 
	C212.756363,68.249283 208.413956,67.061462 204.251389,65.444321 
	C200.712021,64.069283 197.187225,62.277851 198.237122,57.604332 
	C199.275528,52.982033 203.271698,51.680679 207.185120,52.283600 
	C211.426910,52.937119 215.477264,54.833126 219.919556,56.288322 
	C225.022659,51.405582 224.998901,49.838322 217.975937,46.770222 
	C214.290039,45.159977 209.974670,44.256325 205.955612,44.294731 
	C197.400543,44.376492 191.203049,49.924534 190.148163,57.428059 
	C189.076691,65.049576 192.552917,70.081581 201.284866,73.411987 
	C205.162842,74.891068 209.305923,75.848061 212.908218,77.812897 
	C215.114182,79.016106 216.522354,81.682014 218.373260,84.505096 
M44.572037,66.711555 
	C41.360882,65.161247 38.275135,65.820755 37.028553,68.944054 
	C36.208088,70.999695 36.450253,74.415215 37.716816,76.081337 
	C38.790993,77.494392 42.618164,78.346588 44.133923,77.496864 
	C45.950794,76.478333 47.044941,73.490433 47.578758,71.155701 
	C47.838303,70.020561 46.110764,68.431091 44.572037,66.711555 
M64.828156,66.368874 
	C63.386120,66.394707 61.822601,66.068390 60.525967,66.515701 
	C57.286835,67.633118 55.776402,71.603653 57.314968,74.752480 
	C58.850132,77.894356 61.590958,79.005005 64.777702,77.798828 
	C68.267349,76.478004 69.271835,73.538918 68.119057,70.124023 
	C67.687141,68.844559 66.403191,67.852707 64.828156,66.368874 
M43.133842,87.057983 
	C41.707249,87.329689 40.056000,87.234337 38.897198,87.943573 
	C35.727520,89.883545 35.047565,92.904099 36.723946,96.114494 
	C38.494041,99.504349 41.657009,100.152206 44.769627,98.435822 
	C47.936150,96.689728 48.773422,93.615509 46.987572,90.341484 
	C46.325359,89.127449 44.936207,88.309914 43.133842,87.057983 
M68.565750,51.397884 
	C68.084389,47.260223 66.314034,44.333763 61.606380,45.115242 
	C58.149544,45.689083 56.179123,48.357494 57.051830,51.568718 
	C57.626209,53.682220 59.769730,56.227001 61.776241,56.905216 
	C65.348549,58.112694 67.564972,55.598438 68.565750,51.397884 
M36.554562,48.333099 
	C35.118946,52.212757 35.977142,55.669952 40.014256,56.686340 
	C41.982426,57.181854 45.261215,55.853180 46.710712,54.239777 
	C48.920353,51.780277 48.248508,48.476574 45.558887,46.346081 
	C42.420147,43.859821 39.410557,44.513950 36.554562,48.333099 
M25.986824,47.674881 
	C23.519873,44.504433 20.477175,43.894875 17.325563,46.332340 
	C14.628773,48.418045 13.722563,51.744198 16.109978,54.176174 
	C17.716421,55.812607 21.190979,57.050415 23.271774,56.469112 
	C26.924433,55.448700 27.947859,52.101788 25.986824,47.674881 
M22.166136,66.064751 
	C16.887136,66.533966 13.528177,70.012878 15.384769,73.755531 
	C16.356625,75.714653 19.144947,77.775070 21.212799,77.883415 
	C22.992887,77.976692 25.745838,75.741371 26.591278,73.868660 
	C28.097439,70.532417 26.224148,67.824417 22.166136,66.064751 
M20.606585,99.158577 
	C25.681217,98.304085 28.548922,94.882622 26.550592,91.257103 
	C25.479488,89.313828 22.530754,87.149483 20.592125,87.292450 
	C18.640615,87.436371 15.928877,90.009323 15.271509,92.067657 
	C14.205906,95.404236 16.140446,98.123032 20.606585,99.158577 
M60.901814,99.000839 
	C61.722809,99.053795 62.550091,99.199532 63.363754,99.144348 
	C67.914932,98.835670 68.592888,95.264977 68.288612,92.045792 
	C68.000092,88.993355 65.827553,86.684853 62.187904,86.994278 
	C58.814125,87.281097 56.114323,90.633217 56.969921,94.044571 
	C57.401184,95.764061 59.038322,97.181107 60.901814,99.000839 
M277.245087,114.760513 
	C277.197632,112.833702 277.150208,110.906891 277.102753,108.980080 
	C276.495972,109.040588 275.889191,109.101097 275.282410,109.161606 
	C275.084625,111.133842 270.622650,113.670937 277.245087,114.760513 
M313.491913,115.987503 
	C313.681030,116.199234 313.851044,116.435448 314.071167,116.607491 
	C314.135559,116.657814 314.446411,116.554474 314.469238,116.472687 
	C315.045807,114.407928 315.598969,112.336639 316.300385,109.731133 
	C313.403137,111.094223 310.960968,112.023788 313.491913,115.987503 
M305.302917,112.976662 
	C304.942047,113.216522 304.581146,113.456383 304.220245,113.696228 
	C305.572845,113.891899 306.925476,114.087570 308.278076,114.283241 
	C308.303741,113.839371 308.329407,113.395500 308.355072,112.951630 
	C307.551880,112.906609 306.748718,112.861595 305.302917,112.976662 
M320.740173,118.641098 
	C321.106476,118.098732 321.472809,117.556374 321.839111,117.014008 
	C321.583130,116.912804 321.128143,116.687065 321.101654,116.729439 
	C320.798157,117.214531 320.559845,117.740402 320.740173,118.641098 
M323.856323,114.015381 
	C323.589722,114.172806 323.191620,114.277084 323.099518,114.505013 
	C323.030029,114.677017 323.352051,115.007210 323.499847,115.266983 
	C323.647675,115.007027 323.795502,114.747063 323.856323,114.015381 
M320.374786,109.479797 
	C320.374786,109.479797 320.543762,109.575745 320.543762,109.575745 
	C320.543762,109.575745 320.519470,109.385757 320.374786,109.479797 
M321.518677,112.411148 
	C321.518677,112.411148 321.586365,112.523125 321.518677,112.411148 
z"/>
<path fill="#292425" opacity="1.000000" stroke="none" 
	d="
M258.570190,82.208603 
	C258.472412,70.338036 258.374664,58.467472 258.705444,46.122837 
	C259.439117,45.142086 259.744232,44.635410 260.049347,44.128731 
	C269.464691,38.195526 278.830383,32.180023 288.356201,26.429773 
	C289.593842,25.682661 292.050232,25.652782 293.275208,26.393517 
	C302.612671,32.039814 311.770477,37.982449 321.016022,43.782127 
	C323.918335,45.602730 324.003784,47.186142 321.013031,49.013153 
	C314.491058,52.997383 308.016296,57.059235 301.539917,61.117588 
	C300.200409,61.956997 298.937744,62.919132 297.243042,64.101387 
	C299.880768,65.871819 301.862427,67.735069 304.211487,68.597054 
	C305.864319,69.203552 308.250793,68.954117 309.896027,68.192856 
	C313.039093,66.738503 315.896973,64.662209 318.854614,62.814308 
	C321.603851,61.096630 323.266113,61.406788 323.229065,65.065254 
	C323.223999,65.565178 323.235138,66.065277 323.228638,66.565163 
	C322.965668,86.764328 326.336090,80.482330 309.633514,91.289078 
	C304.471710,94.628799 299.302490,97.993889 293.891571,100.889305 
	C292.271362,101.756287 289.358673,101.863602 287.826752,100.968819 
	C278.501251,95.521957 269.403351,89.685394 259.914429,83.451370 
	C259.256287,82.685455 258.913239,82.447029 258.570190,82.208603 
M262.834839,77.022308 
	C269.970703,72.771484 277.106567,68.520660 284.693817,64.000954 
	C280.059479,61.087795 276.340759,58.592510 272.468597,56.363808 
	C269.102448,54.426350 265.562805,52.790295 261.435028,51.539104 
	C261.285736,57.995110 261.037628,64.451233 261.045471,70.907051 
	C261.047913,72.930435 261.739349,74.952995 262.834839,77.022308 
M309.236298,41.285988 
	C303.994568,38.062172 298.806061,34.745556 293.470337,31.685631 
	C292.270874,30.997765 290.151031,30.517820 289.144440,31.111435 
	C281.016174,35.904987 273.052673,40.977966 264.518433,46.289577 
	C273.079773,51.632545 281.054077,56.664639 289.114746,61.554459 
	C289.926636,62.046974 291.526459,62.117798 292.311249,61.642452 
	C300.380646,56.754761 308.357361,51.713974 317.019135,46.304150 
	C314.214172,44.512321 312.021027,43.111324 309.236298,41.285988 
M277.715759,73.202713 
	C273.513672,75.855659 269.311615,78.508614 264.190826,81.741570 
	C272.571716,86.847343 280.350403,91.586258 288.129089,96.325165 
	C288.611725,96.231049 289.094360,96.136932 289.576996,96.042816 
	C284.621338,82.720520 293.386780,77.576515 302.890808,72.185143 
	C298.184784,69.853859 293.622253,67.185593 289.141235,67.316055 
	C285.493835,67.422256 281.944061,70.880188 277.715759,73.202713 
M314.699188,83.047523 
	C319.468414,80.091972 320.446533,76.028740 318.189758,68.357635 
	C310.731537,72.986786 303.266968,77.562241 295.882721,82.263901 
	C294.745697,82.987869 293.282867,84.221634 293.169128,85.341354 
	C292.815918,88.818657 293.039856,92.354576 293.039856,96.582832 
	C300.623901,91.831444 307.333649,87.627800 314.699188,83.047523 
z"/>
<path fill="#283A53" opacity="1.000000" stroke="none" 
	d="
M85.959381,47.243210 
	C87.269501,46.197281 88.561378,45.173878 89.879028,45.139545 
	C96.372742,44.970375 102.874008,45.002544 109.371246,45.078941 
	C117.887680,45.179077 123.627251,49.444263 125.226944,56.717113 
	C127.240524,65.871635 124.393448,72.281120 116.556358,76.265991 
	C115.973854,76.562172 115.430641,76.935631 114.546638,77.467056 
	C117.776176,84.230042 120.965904,90.909645 124.142937,97.562668 
	C118.939034,100.487740 116.182022,99.805946 113.989929,95.286476 
	C112.540230,92.297630 111.093674,89.307236 109.653214,86.313919 
	C105.155098,76.966690 105.156471,76.966026 93.860672,78.257240 
	C93.860672,84.933861 93.860672,91.682503 93.860672,98.827751 
	C91.151886,98.962463 88.880516,99.075417 85.953018,99.220993 
	C85.953018,81.913399 85.953018,64.817551 85.959381,47.243210 
M93.781219,57.559528 
	C93.781219,61.645752 93.781219,65.731979 93.781219,70.023865 
	C99.440674,70.023865 104.420601,70.146645 109.391800,69.990814 
	C114.828575,69.820389 117.809593,66.731689 117.853302,61.586407 
	C117.897858,56.340721 115.033699,53.170193 109.671669,52.913120 
	C105.517120,52.713936 101.334511,53.036949 97.187149,52.771732 
	C94.096214,52.574078 93.427208,53.975780 93.781219,57.559528 
z"/>
<path fill="#273953" opacity="1.000000" stroke="none" 
	d="
M138.504883,87.342010 
	C134.922256,78.539093 134.687164,69.857170 137.034988,61.136093 
	C139.553268,51.781914 146.757889,44.882954 153.722778,44.782967 
	C167.984665,44.578224 174.563293,48.780151 178.193146,60.635189 
	C180.804657,69.164375 180.631226,77.687469 177.339966,86.018524 
	C173.983597,94.514404 167.825195,99.645142 158.548752,99.998253 
	C149.341324,100.348732 142.641632,96.092125 138.504883,87.342010 
M163.547501,53.605286 
	C155.339966,51.182663 149.331070,52.751865 146.350327,59.022038 
	C142.215317,67.720215 141.801010,76.985611 146.600769,85.426636 
	C151.762772,94.504730 160.656586,94.341530 167.394470,87.469429 
	C173.802994,80.933289 173.922058,58.972164 163.547501,53.605286 
z"/>
<path fill="#273953" opacity="1.000000" stroke="none" 
	d="
M218.331024,84.098068 
	C216.522354,81.682014 215.114182,79.016106 212.908218,77.812897 
	C209.305923,75.848061 205.162842,74.891068 201.284866,73.411987 
	C192.552917,70.081581 189.076691,65.049576 190.148163,57.428059 
	C191.203049,49.924534 197.400543,44.376492 205.955612,44.294731 
	C209.974670,44.256325 214.290039,45.159977 217.975937,46.770222 
	C224.998901,49.838322 225.022659,51.405582 219.919556,56.288322 
	C215.477264,54.833126 211.426910,52.937119 207.185120,52.283600 
	C203.271698,51.680679 199.275528,52.982033 198.237122,57.604332 
	C197.187225,62.277851 200.712021,64.069283 204.251389,65.444321 
	C208.413956,67.061462 212.756363,68.249283 216.830536,70.053009 
	C224.353165,73.383430 226.974701,78.274353 226.085449,86.403107 
	C225.348663,93.138092 220.902222,97.689560 213.503647,99.282089 
	C203.275284,101.483727 195.269104,99.007721 188.135239,90.965279 
	C190.144028,89.612289 192.202911,88.225563 193.664108,87.241402 
	C198.101273,88.735184 202.901703,90.847755 207.924271,91.908684 
	C213.438278,93.073418 217.020554,90.140869 218.331024,84.098068 
z"/>
<path fill="#293B55" opacity="1.000000" stroke="none" 
	d="
M44.927402,66.879425 
	C46.110764,68.431091 47.838303,70.020561 47.578758,71.155701 
	C47.044941,73.490433 45.950794,76.478333 44.133923,77.496864 
	C42.618164,78.346588 38.790993,77.494392 37.716816,76.081337 
	C36.450253,74.415215 36.208088,70.999695 37.028553,68.944054 
	C38.275135,65.820755 41.360882,65.161247 44.927402,66.879425 
z"/>
<path fill="#2A3B55" opacity="1.000000" stroke="none" 
	d="
M65.167931,66.549301 
	C66.403191,67.852707 67.687141,68.844559 68.119057,70.124023 
	C69.271835,73.538918 68.267349,76.478004 64.777702,77.798828 
	C61.590958,79.005005 58.850132,77.894356 57.314968,74.752480 
	C55.776402,71.603653 57.286835,67.633118 60.525967,66.515701 
	C61.822601,66.068390 63.386120,66.394707 65.167931,66.549301 
z"/>
<path fill="#293B55" opacity="1.000000" stroke="none" 
	d="
M43.506207,87.184769 
	C44.936207,88.309914 46.325359,89.127449 46.987572,90.341484 
	C48.773422,93.615509 47.936150,96.689728 44.769627,98.435822 
	C41.657009,100.152206 38.494041,99.504349 36.723946,96.114494 
	C35.047565,92.904099 35.727520,89.883545 38.897198,87.943573 
	C40.056000,87.234337 41.707249,87.329689 43.506207,87.184769 
z"/>
<path fill="#293B54" opacity="1.000000" stroke="none" 
	d="
M68.549736,51.771950 
	C67.564972,55.598438 65.348549,58.112694 61.776241,56.905216 
	C59.769730,56.227001 57.626209,53.682220 57.051830,51.568718 
	C56.179123,48.357494 58.149544,45.689083 61.606380,45.115242 
	C66.314034,44.333763 68.084389,47.260223 68.549736,51.771950 
z"/>
<path fill="#2C3D56" opacity="1.000000" stroke="none" 
	d="
M36.743370,47.980556 
	C39.410557,44.513950 42.420147,43.859821 45.558887,46.346081 
	C48.248508,48.476574 48.920353,51.780277 46.710712,54.239777 
	C45.261215,55.853180 41.982426,57.181854 40.014256,56.686340 
	C35.977142,55.669952 35.118946,52.212757 36.743370,47.980556 
z"/>
<path fill="#283A54" opacity="1.000000" stroke="none" 
	d="
M26.167873,48.030067 
	C27.947859,52.101788 26.924433,55.448700 23.271774,56.469112 
	C21.190979,57.050415 17.716421,55.812607 16.109978,54.176174 
	C13.722563,51.744198 14.628773,48.418045 17.325563,46.332340 
	C20.477175,43.894875 23.519873,44.504433 26.167873,48.030067 
z"/>
<path fill="#273952" opacity="1.000000" stroke="none" 
	d="
M22.549543,66.167007 
	C26.224148,67.824417 28.097439,70.532417 26.591278,73.868660 
	C25.745838,75.741371 22.992887,77.976692 21.212799,77.883415 
	C19.144947,77.775070 16.356625,75.714653 15.384769,73.755531 
	C13.528177,70.012878 16.887136,66.533966 22.549543,66.167007 
z"/>
<path fill="#263852" opacity="1.000000" stroke="none" 
	d="
M20.205040,99.128708 
	C16.140446,98.123032 14.205906,95.404236 15.271509,92.067657 
	C15.928877,90.009323 18.640615,87.436371 20.592125,87.292450 
	C22.530754,87.149483 25.479488,89.313828 26.550592,91.257103 
	C28.548922,94.882622 25.681217,98.304085 20.205040,99.128708 
z"/>
<path fill="#283A54" opacity="1.000000" stroke="none" 
	d="
M60.515999,98.867874 
	C59.038322,97.181107 57.401184,95.764061 56.969921,94.044571 
	C56.114323,90.633217 58.814125,87.281097 62.187904,86.994278 
	C65.827553,86.684853 68.000092,88.993355 68.288612,92.045792 
	C68.592888,95.264977 67.914932,98.835670 63.363754,99.144348 
	C62.550091,99.199532 61.722809,99.053795 60.515999,98.867874 
z"/>
<path fill="#C6C6C6" opacity="1.000000" stroke="none" 
	d="
M276.830017,114.805107 
	C270.622650,113.670937 275.084625,111.133842 275.282410,109.161606 
	C275.889191,109.101097 276.495972,109.040588 277.102753,108.980080 
	C277.150208,110.906891 277.197632,112.833702 276.830017,114.805107 
z"/>
<path fill="#F5F5F5" opacity="1.000000" stroke="none" 
	d="
M313.438538,115.696136 
	C310.960968,112.023788 313.403137,111.094223 316.300385,109.731133 
	C315.598969,112.336639 315.045807,114.407928 314.469238,116.472687 
	C314.446411,116.554474 314.135559,116.657814 314.071167,116.607491 
	C313.851044,116.435448 313.681030,116.199234 313.438538,115.696136 
z"/>
<path fill="#888687" opacity="1.000000" stroke="none" 
	d="
M305.624207,112.896622 
	C306.748718,112.861595 307.551880,112.906609 308.355072,112.951630 
	C308.329407,113.395500 308.303741,113.839371 308.278076,114.283241 
	C306.925476,114.087570 305.572845,113.891899 304.220245,113.696236 
	C304.581146,113.456383 304.942047,113.216522 305.624207,112.896622 
z"/>
<path fill="#F5F5F5" opacity="1.000000" stroke="none" 
	d="
M320.522156,118.448257 
	C320.559845,117.740402 320.798157,117.214531 321.101654,116.729439 
	C321.128143,116.687065 321.583130,116.912804 321.839111,117.014008 
	C321.472809,117.556374 321.106476,118.098732 320.522156,118.448257 
z"/>
<path fill="#F5F5F5" opacity="1.000000" stroke="none" 
	d="
M323.899841,114.251236 
	C323.795502,114.747063 323.647675,115.007027 323.499847,115.266983 
	C323.352051,115.007210 323.030029,114.677017 323.099518,114.505013 
	C323.191620,114.277084 323.589722,114.172806 323.899841,114.251236 
z"/>
<path fill="#444041" opacity="1.000000" stroke="none" 
	d="
M259.738007,44.170746 
	C259.744232,44.635410 259.439117,45.142086 258.837708,45.722458 
	C258.836487,45.268356 259.131592,44.740559 259.738007,44.170746 
z"/>
<path fill="#444041" opacity="1.000000" stroke="none" 
	d="
M258.636688,82.522217 
	C258.913239,82.447029 259.256287,82.685455 259.666626,83.239212 
	C259.390350,83.314964 259.046753,83.075401 258.636688,82.522217 
z"/>
<path fill="#F5F5F5" opacity="1.000000" stroke="none" 
	d="
M320.447144,109.432777 
	C320.519470,109.385757 320.543762,109.575745 320.543762,109.575745 
	C320.543762,109.575745 320.374786,109.479797 320.447144,109.432777 
z"/>
<path fill="#F5F5F5" opacity="1.000000" stroke="none" 
	d="
M321.552521,112.467133 
	C321.586365,112.523125 321.518677,112.411148 321.552521,112.467133 
z"/>
<path fill="#F27F13" opacity="1.000000" stroke="none" 
	d="
M309.532104,41.498154 
	C312.021027,43.111324 314.214172,44.512321 317.019135,46.304150 
	C308.357361,51.713974 300.380646,56.754761 292.311249,61.642452 
	C291.526459,62.117798 289.926636,62.046974 289.114746,61.554459 
	C281.054077,56.664639 273.079773,51.632545 264.518433,46.289577 
	C273.052673,40.977966 281.016174,35.904987 289.144440,31.111435 
	C290.151031,30.517820 292.270874,30.997765 293.470337,31.685631 
	C298.806061,34.745556 303.994568,38.062172 309.532104,41.498154 
z"/>
<path fill="#F7F7F7" opacity="1.000000" stroke="none" 
	d="
M278.033386,73.027267 
	C281.944061,70.880188 285.493835,67.422256 289.141235,67.316055 
	C293.622253,67.185593 298.184784,69.853859 302.890808,72.185143 
	C293.386780,77.576515 284.621338,82.720520 289.576996,96.042816 
	C289.094360,96.136932 288.611725,96.231049 288.129089,96.325165 
	C280.350403,91.586258 272.571716,86.847343 264.190826,81.741570 
	C269.311615,78.508614 273.513672,75.855659 278.033386,73.027267 
z"/>
<path fill="#FAF9FA" opacity="1.000000" stroke="none" 
	d="
M314.371277,83.235840 
	C307.333649,87.627800 300.623901,91.831444 293.039856,96.582832 
	C293.039856,92.354576 292.815918,88.818657 293.169128,85.341354 
	C293.282867,84.221634 294.745697,82.987869 295.882721,82.263901 
	C303.266968,77.562241 310.731537,72.986786 318.189758,68.357635 
	C320.446533,76.028740 319.468414,80.091972 314.371277,83.235840 
z"/>
<path fill="#F4F4F4" opacity="1.000000" stroke="none" 
	d="
M262.099854,51.021046 
	C265.562805,52.790295 269.102448,54.426350 272.468597,56.363808 
	C276.340759,58.592510 280.059479,61.087795 284.693817,64.000954 
	C277.106567,68.520660 269.970703,72.771484 262.517334,76.533630 
	C262.166504,67.703644 262.133179,59.362347 262.099854,51.021046 
z"/>
<path fill="#0A0001" opacity="1.000000" stroke="none" 
	d="
M261.767456,51.280075 
	C262.133179,59.362347 262.166504,67.703644 262.157623,76.510437 
	C261.739349,74.952995 261.047913,72.930435 261.045471,70.907051 
	C261.037628,64.451233 261.285736,57.995110 261.767456,51.280075 
z"/>
<path fill="#FCFCFD" opacity="1.000000" stroke="none" 
	d="
M93.781349,57.067738 
	C93.427208,53.975780 94.096214,52.574078 97.187149,52.771732 
	C101.334511,53.036949 105.517120,52.713936 109.671669,52.913120 
	C115.033699,53.170193 117.897858,56.340721 117.853302,61.586407 
	C117.809593,66.731689 114.828575,69.820389 109.391800,69.990814 
	C104.420601,70.146645 99.440674,70.023865 93.781219,70.023865 
	C93.781219,65.731979 93.781219,61.645752 93.781349,57.067738 
z"/>
<path fill="#FCFCFC" opacity="1.000000" stroke="none" 
	d="
M163.882019,53.790134 
	C173.922058,58.972164 173.802994,80.933289 167.394470,87.469429 
	C160.656586,94.341530 151.762772,94.504730 146.600769,85.426636 
	C141.801010,76.985611 142.215317,67.720215 146.350327,59.022038 
	C149.331070,52.751865 155.339966,51.182663 163.882019,53.790134 
z"/>
</svg>