<svg version="1.1" id="Layer_1" xmlns="http://www.w3.org/2000/svg" xmlns:xlink="http://www.w3.org/1999/xlink" x="0px" y="0px"
	 width="100%" viewBox="0 0 436 115" enable-background="new 0 0 436 115" xml:space="preserve">
<path fill="#FCFDFD" opacity="1.000000" stroke="none" 
	d="
M289.000000,116.000000 
	C193.000000,116.000000 96.999992,116.000000 1.000000,116.000000 
	C1.000000,112.622131 1.000000,109.294022 1.294460,105.662460 
	C4.734900,112.513496 10.659783,115.672691 16.978319,113.564774 
	C23.078634,111.529655 26.446983,105.505150 25.184742,98.887077 
	C23.979815,92.569496 18.314054,88.365219 11.904812,88.995880 
	C6.238558,89.553436 3.451100,93.565437 1.000000,98.000000 
	C1.000000,86.312439 1.000000,74.624878 1.311913,62.614876 
	C1.862043,62.909237 2.024266,63.569767 2.350158,64.136124 
	C5.844547,70.208908 11.969667,72.498322 17.968666,70.002220 
	C23.705471,67.615219 26.659063,61.224167 25.033051,54.716145 
	C23.572859,48.871815 19.194838,46.907188 12.064218,46.578854 
	C5.370933,46.270657 3.672176,50.897911 1.000000,55.000000 
	C1.000000,42.979103 1.000000,30.958210 1.144627,18.783527 
	C3.673312,24.310360 7.195682,27.579702 14.116017,27.212490 
	C19.246040,26.940279 22.292593,24.691996 24.220158,20.640621 
	C26.437937,15.979270 26.104002,11.119775 22.676750,7.088997 
	C19.815531,3.723924 16.441956,2.700229 11.445609,3.250686 
	C5.235514,3.934864 3.413750,7.851527 1.000000,12.000000 
	C1.000000,8.338723 1.000000,4.677446 1.000000,1.000000 
	C96.354225,1.000000 191.708450,1.000000 287.387512,1.355349 
	C273.984680,4.200336 264.073578,11.955239 257.652832,24.109051 
	C249.120300,40.260193 247.961945,57.561951 251.503021,75.078316 
	C255.670715,95.694458 266.431335,110.808327 288.489502,115.238251 
	C288.702087,115.280945 288.831665,115.736954 289.000000,116.000000 
M147.719803,4.915970 
	C147.709473,31.491045 147.675186,58.066143 147.701630,84.641182 
	C147.711044,94.098549 147.867874,103.555756 148.329727,113.804558 
	C153.214752,113.533554 158.099792,113.262543 163.194397,112.075981 
	C163.231491,98.073463 163.268570,84.070946 164.204346,70.037788 
	C170.858978,70.018860 177.520874,70.176041 184.164948,69.901466 
	C187.169403,69.777298 188.517273,70.919624 189.748428,73.506813 
	C195.661896,85.933586 201.723267,98.291870 207.927200,110.575951 
	C208.652939,112.012939 210.517426,113.688065 211.966080,113.799828 
	C217.064102,114.193100 222.211014,113.952637 228.023438,113.952637 
	C220.558212,98.563156 213.311356,83.623825 206.033432,68.620461 
	C226.183945,62.384647 232.068054,45.544746 228.970566,27.495935 
	C226.480682,12.987529 211.747742,2.520516 196.050751,2.938105 
	C181.282700,2.926198 166.514557,2.887356 151.746811,2.950097 
	C150.473404,2.955507 149.202866,3.633363 147.719803,4.915970 
M63.246506,111.990097 
	C70.515495,107.727455 69.900002,94.887207 62.972549,90.836525 
	C57.902439,87.871902 51.504929,88.489273 47.500618,92.742210 
	C43.355145,97.145088 42.858917,103.809151 46.306141,108.783562 
	C49.975189,114.078072 55.896595,115.384003 63.246506,111.990097 
M110.396935,52.699123 
	C106.471069,46.355461 101.632210,44.465286 94.909813,46.649487 
	C90.335419,48.135773 86.569473,54.203205 87.064857,59.288734 
	C87.635674,65.148613 92.054260,69.971611 97.671616,70.866287 
	C102.858131,71.692329 109.156578,68.534286 110.464012,63.632175 
	C111.320557,60.420654 110.753578,56.829468 110.396935,52.699123 
M45.689484,64.496773 
	C49.512840,69.974640 54.325821,72.057953 59.586678,70.512215 
	C64.426071,69.090309 68.237061,64.629814 68.392693,60.205414 
	C68.644020,53.060505 65.831505,48.210423 60.372047,46.374107 
	C55.383987,44.696350 49.806412,46.400658 46.614906,50.718399 
	C43.601414,54.795311 43.224899,59.216274 45.689484,64.496773 
M110.757652,96.433723 
	C109.937592,95.200699 109.256264,93.841843 108.272545,92.757256 
	C104.728378,88.849648 98.920006,87.815163 94.173439,90.116867 
	C89.616859,92.326447 86.467308,97.967796 87.105865,102.776024 
	C87.837288,108.283623 91.920547,112.897041 96.999611,113.954323 
	C102.082039,115.012321 108.028305,112.650146 109.873482,107.810249 
	C111.094048,104.608742 110.684669,100.785828 110.757652,96.433723 
M68.154472,12.032484 
	C65.291962,3.687397 58.042507,0.362630 50.572113,3.968804 
	C46.552101,5.909380 43.485706,11.766757 44.033600,16.458586 
	C44.607544,21.373549 48.411625,26.104586 52.567944,27.072533 
	C59.018303,28.574726 63.139343,27.092878 66.024460,21.450960 
	C67.333931,18.890253 67.533638,15.762045 68.154472,12.032484 
M87.447914,17.770840 
	C89.943817,25.199890 92.371613,26.927200 100.463333,27.030952 
	C106.012421,27.102100 110.777061,23.070019 111.164474,17.975092 
	C111.730896,10.526103 107.527382,3.527426 102.098106,2.879950 
	C92.842056,1.776107 86.940468,7.374414 87.447914,17.770840 
z"/>
<path fill="#FDFDFD" opacity="1.000000" stroke="none" 
	d="
M302.000000,0.999999 
	C331.354218,1.000000 360.708466,1.000000 390.379120,1.353822 
	C382.777588,3.011785 375.743256,6.091034 370.206573,12.072950 
	C360.012665,23.086517 360.287842,41.378189 370.660278,52.212578 
	C377.061096,58.898521 385.779236,60.787659 393.947449,63.860359 
	C400.455750,66.308647 407.179504,68.337189 413.376801,71.418510 
	C420.314148,74.867813 422.467590,80.735741 420.563843,87.691109 
	C419.049103,93.225235 411.021149,99.814819 405.550873,99.691612 
	C392.379517,99.394958 379.740570,97.529762 370.792328,86.283081 
	C366.856079,90.319756 363.169647,94.100235 359.243164,98.126862 
	C365.045715,104.936882 372.392822,110.105675 381.303558,113.010628 
	C384.518829,114.058823 387.766907,115.006470 391.000000,116.000000 
	C360.979095,116.000000 330.958221,116.000000 300.630615,115.632149 
	C317.180145,113.605728 328.329895,104.085777 335.218750,89.254646 
	C342.422699,73.745171 342.864807,57.332184 339.697601,40.888031 
	C337.128998,27.551775 331.138062,15.715436 319.304810,8.212996 
	C314.103119,4.915040 307.801971,3.351197 302.000000,0.999999 
z"/>
<path fill="#222F4B" opacity="1.000000" stroke="none" 
	d="
M301.535339,0.999999 
	C307.801971,3.351197 314.103119,4.915040 319.304810,8.212996 
	C331.138062,15.715436 337.128998,27.551775 339.697601,40.888031 
	C342.864807,57.332184 342.422699,73.745171 335.218750,89.254646 
	C328.329895,104.085777 317.180145,113.605728 300.161957,115.632149 
	C299.555542,116.000000 299.111115,116.000000 298.122101,115.672379 
	C295.385040,115.563171 293.192505,115.781586 291.000000,116.000000 
	C290.555542,116.000000 290.111115,116.000000 289.333313,116.000000 
	C288.831665,115.736954 288.702087,115.280945 288.489502,115.238251 
	C266.431335,110.808327 255.670715,95.694458 251.503021,75.078316 
	C247.961945,57.561951 249.120300,40.260193 257.652832,24.109051 
	C264.073578,11.955239 273.984680,4.200336 287.856171,1.355349 
	C292.356903,1.000000 296.713806,1.000000 301.535339,0.999999 
M302.661987,98.143303 
	C309.763397,96.591652 315.299591,92.501793 318.456177,86.205116 
	C327.679108,67.807465 327.769836,48.990528 318.526672,30.654842 
	C313.871613,21.420530 305.321442,17.548567 294.915344,17.745565 
	C284.426941,17.944122 276.686615,22.662571 271.954102,31.838804 
	C265.253876,44.830322 265.077789,58.660198 267.692444,72.692696 
	C269.292755,81.281487 272.668091,89.043358 279.976227,94.231483 
	C286.516663,98.874619 293.928375,100.505066 302.661987,98.143303 
z"/>
<path fill="#222F4B" opacity="1.000000" stroke="none" 
	d="
M391.375000,116.000000 
	C387.766907,115.006470 384.518829,114.058823 381.303558,113.010628 
	C372.392822,110.105675 365.045715,104.936882 359.243164,98.126862 
	C363.169647,94.100235 366.856079,90.319756 370.792328,86.283081 
	C379.740570,97.529762 392.379517,99.394958 405.550873,99.691612 
	C411.021149,99.814819 419.049103,93.225235 420.563843,87.691109 
	C422.467590,80.735741 420.314148,74.867813 413.376801,71.418510 
	C407.179504,68.337189 400.455750,66.308647 393.947449,63.860359 
	C385.779236,60.787659 377.061096,58.898521 370.660278,52.212578 
	C360.287842,41.378189 360.012665,23.086517 370.206573,12.072950 
	C375.743256,6.091034 382.777588,3.011785 390.847778,1.353822 
	C395.689240,1.000000 400.378510,1.000000 405.675598,1.361173 
	C416.926300,3.604016 426.330994,7.712591 433.413086,16.487795 
	C429.651581,20.428179 426.118530,24.129223 422.510559,27.908741 
	C413.824463,19.336853 403.741241,15.759928 391.868744,17.890806 
	C384.351959,19.239918 380.042694,23.157845 379.126343,29.300329 
	C378.236084,35.267925 380.756134,39.791901 388.267914,43.024433 
	C396.303314,46.482300 404.779175,48.900578 412.960083,52.040245 
	C423.795563,56.198650 432.935455,62.359879 437.000000,74.000000 
	C437.000000,79.022095 437.000000,84.044182 436.751892,89.800613 
	C432.594940,105.488731 421.828796,113.896561 404.610626,115.013374 
	C400.772461,115.291809 397.386230,115.645905 394.000000,116.000000 
	C393.250000,116.000000 392.500000,116.000000 391.375000,116.000000 
z"/>
<path fill="#FCFCFD" opacity="1.000000" stroke="none" 
	d="
M437.000000,73.531342 
	C432.935455,62.359879 423.795563,56.198650 412.960083,52.040245 
	C404.779175,48.900578 396.303314,46.482300 388.267914,43.024433 
	C380.756134,39.791901 378.236084,35.267925 379.126343,29.300329 
	C380.042694,23.157845 384.351959,19.239918 391.868744,17.890806 
	C403.741241,15.759928 413.824463,19.336853 422.510559,27.908741 
	C426.118530,24.129223 429.651581,20.428179 433.413086,16.487795 
	C426.330994,7.712591 416.926300,3.604016 406.141724,1.361173 
	C416.289673,1.000000 426.579346,1.000000 437.000000,1.000000 
	C437.000000,25.020750 437.000000,49.041718 437.000000,73.531342 
z"/>
<path fill="#23304C" opacity="1.000000" stroke="none" 
	d="
M1.000000,55.437500 
	C3.672176,50.897911 5.370933,46.270657 12.064218,46.578854 
	C19.194838,46.907188 23.572859,48.871815 25.033051,54.716145 
	C26.659063,61.224167 23.705471,67.615219 17.968666,70.002220 
	C11.969667,72.498322 5.844547,70.208908 2.350158,64.136124 
	C2.024266,63.569767 1.862043,62.909237 1.311913,62.146217 
	C1.000000,59.958332 1.000000,57.916668 1.000000,55.437500 
z"/>
<path fill="#222F4B" opacity="1.000000" stroke="none" 
	d="
M1.000000,98.437500 
	C3.451100,93.565437 6.238558,89.553436 11.904812,88.995880 
	C18.314054,88.365219 23.979815,92.569496 25.184742,98.887077 
	C26.446983,105.505150 23.078634,111.529655 16.978319,113.564774 
	C10.659783,115.672691 4.734900,112.513496 1.294460,105.179504 
	C1.000000,102.958336 1.000000,100.916664 1.000000,98.437500 
z"/>
<path fill="#222F4B" opacity="1.000000" stroke="none" 
	d="
M1.000000,12.428463 
	C3.413750,7.851527 5.235514,3.934864 11.445609,3.250686 
	C16.441956,2.700229 19.815531,3.723924 22.676750,7.088997 
	C26.104002,11.119775 26.437937,15.979270 24.220158,20.640621 
	C22.292593,24.691996 19.246040,26.940279 14.116017,27.212490 
	C7.195682,27.579702 3.673312,24.310360 1.144627,18.314871 
	C1.000000,16.285641 1.000000,14.571283 1.000000,12.428463 
z"/>
<path fill="#FAFAFA" opacity="1.000000" stroke="none" 
	d="
M405.062561,115.089035 
	C421.828796,113.896561 432.594940,105.488731 436.751892,90.267471 
	C437.000000,98.600754 437.000000,107.201500 437.000000,116.000000 
	C426.646606,116.000000 416.291962,116.000000 405.428436,115.768417 
	C404.919556,115.536842 405.062561,115.089035 405.062561,115.089035 
z"/>
<path fill="#9A9EA9" opacity="1.000000" stroke="none" 
	d="
M404.610626,115.013374 
	C405.062561,115.089035 404.919556,115.536842 404.959778,115.768417 
	C401.638702,116.000000 398.277435,116.000000 394.458069,116.000000 
	C397.386230,115.645905 400.772461,115.291809 404.610626,115.013374 
z"/>
<path fill="#9A9EA9" opacity="1.000000" stroke="none" 
	d="
M291.437500,116.000000 
	C293.192505,115.781586 295.385040,115.563171 297.788757,115.672379 
	C295.958344,116.000000 293.916656,116.000000 291.437500,116.000000 
z"/>
<path fill="#222F4B" opacity="1.000000" stroke="none" 
	d="
M196.971786,3.101894 
	C211.747742,2.520516 226.480682,12.987529 228.970566,27.495935 
	C232.068054,45.544746 226.183945,62.384647 206.033432,68.620461 
	C213.311356,83.623825 220.558212,98.563156 228.023438,113.952637 
	C222.211014,113.952637 217.064102,114.193100 211.966080,113.799828 
	C210.517426,113.688065 208.652939,112.012939 207.927200,110.575951 
	C201.723267,98.291870 195.661896,85.933586 189.748428,73.506813 
	C188.517273,70.919624 187.169403,69.777298 184.164948,69.901466 
	C177.520874,70.176041 170.858978,70.018860 163.393646,70.274979 
	C162.389877,71.300919 162.030945,72.089157 162.028549,72.878487 
	C161.991226,85.189461 161.975800,97.500710 162.040955,109.811432 
	C162.046570,110.873108 162.655914,111.931580 162.984818,112.991531 
	C158.099792,113.262543 153.214752,113.533554 148.453156,113.123985 
	C148.718338,110.634171 148.981827,108.825058 148.983826,107.015656 
	C149.021744,72.686424 149.028809,38.357155 149.506653,4.018418 
	C163.901871,4.006794 177.832901,4.035993 191.763382,3.962748 
	C193.500992,3.953611 195.235718,3.402096 196.971786,3.101894 
M163.990875,54.058273 
	C174.935776,54.077248 185.881424,54.183590 196.825348,54.089375 
	C206.755981,54.003883 212.147675,47.107780 213.030365,40.559074 
	C214.716949,28.046352 210.250458,21.679018 196.522049,17.516886 
	C186.185211,17.374933 175.848480,17.217026 165.511154,17.137833 
	C164.990784,17.133844 164.465210,17.810452 163.770233,18.524353 
	C163.604401,18.742012 163.388992,18.884981 162.475037,19.504614 
	C162.345139,30.472910 162.199921,41.441116 162.133759,52.409801 
	C162.130676,52.920029 162.834167,53.434517 163.990875,54.058273 
z"/>
<path fill="#222F4B" opacity="1.000000" stroke="none" 
	d="
M62.904232,112.179398 
	C55.896595,115.384003 49.975189,114.078072 46.306141,108.783562 
	C42.858917,103.809151 43.355145,97.145088 47.500618,92.742210 
	C51.504929,88.489273 57.902439,87.871902 62.972549,90.836525 
	C69.900002,94.887207 70.515495,107.727455 62.904232,112.179398 
z"/>
<path fill="#23304C" opacity="1.000000" stroke="none" 
	d="
M110.610550,53.053726 
	C110.753578,56.829468 111.320557,60.420654 110.464012,63.632175 
	C109.156578,68.534286 102.858131,71.692329 97.671616,70.866287 
	C92.054260,69.971611 87.635674,65.148613 87.064857,59.288734 
	C86.569473,54.203205 90.335419,48.135773 94.909813,46.649487 
	C101.632210,44.465286 106.471069,46.355461 110.610550,53.053726 
z"/>
<path fill="#23304C" opacity="1.000000" stroke="none" 
	d="
M45.472755,64.173866 
	C43.224899,59.216274 43.601414,54.795311 46.614906,50.718399 
	C49.806412,46.400658 55.383987,44.696350 60.372047,46.374107 
	C65.831505,48.210423 68.644020,53.060505 68.392693,60.205414 
	C68.237061,64.629814 64.426071,69.090309 59.586678,70.512215 
	C54.325821,72.057953 49.512840,69.974640 45.472755,64.173866 
z"/>
<path fill="#222F4B" opacity="1.000000" stroke="none" 
	d="
M110.881332,96.837418 
	C110.684669,100.785828 111.094048,104.608742 109.873482,107.810249 
	C108.028305,112.650146 102.082039,115.012321 96.999611,113.954323 
	C91.920547,112.897041 87.837288,108.283623 87.105865,102.776024 
	C86.467308,97.967796 89.616859,92.326447 94.173439,90.116867 
	C98.920006,87.815163 104.728378,88.849648 108.272545,92.757256 
	C109.256264,93.841843 109.937592,95.200699 110.881332,96.837418 
z"/>
<path fill="#23304B" opacity="1.000000" stroke="none" 
	d="
M68.195618,12.461878 
	C67.533638,15.762045 67.333931,18.890253 66.024460,21.450960 
	C63.139343,27.092878 59.018303,28.574726 52.567944,27.072533 
	C48.411625,26.104586 44.607544,21.373549 44.033600,16.458586 
	C43.485706,11.766757 46.552101,5.909380 50.572113,3.968804 
	C58.042507,0.362630 65.291962,3.687397 68.195618,12.461878 
z"/>
<path fill="#23304C" opacity="1.000000" stroke="none" 
	d="
M87.331367,17.384613 
	C86.940468,7.374414 92.842056,1.776107 102.098106,2.879950 
	C107.527382,3.527426 111.730896,10.526103 111.164474,17.975092 
	C110.777061,23.070019 106.012421,27.102100 100.463333,27.030952 
	C92.371613,26.927200 89.943817,25.199890 87.331367,17.384613 
z"/>
<path fill="#081D3F" opacity="1.000000" stroke="none" 
	d="
M149.042297,4.027893 
	C149.028809,38.357155 149.021744,72.686424 148.983826,107.015656 
	C148.981827,108.825058 148.718338,110.634171 148.266998,112.728226 
	C147.867874,103.555756 147.711044,94.098549 147.701630,84.641182 
	C147.675186,58.066143 147.709473,31.491045 148.103287,4.462102 
	C148.671936,4.014787 148.857117,4.021340 149.042297,4.027893 
z"/>
<path fill="#001A3D" opacity="1.000000" stroke="none" 
	d="
M149.506653,4.018418 
	C148.857117,4.021340 148.671936,4.014787 148.208878,4.003544 
	C149.202866,3.633363 150.473404,2.955507 151.746811,2.950097 
	C166.514557,2.887356 181.282700,2.926198 196.511261,3.020000 
	C195.235718,3.402096 193.500992,3.953611 191.763382,3.962748 
	C177.832901,4.035993 163.901871,4.006794 149.506653,4.018418 
z"/>
<path fill="#001A3D" opacity="1.000000" stroke="none" 
	d="
M163.089600,112.533760 
	C162.655914,111.931580 162.046570,110.873108 162.040955,109.811432 
	C161.975800,97.500710 161.991226,85.189461 162.028549,72.878487 
	C162.030945,72.089157 162.389877,71.300919 162.944305,70.290298 
	C163.268570,84.070946 163.231491,98.073463 163.089600,112.533760 
z"/>
<path fill="#FDFDFD" opacity="1.000000" stroke="none" 
	d="
M302.279114,98.231422 
	C293.928375,100.505066 286.516663,98.874619 279.976227,94.231483 
	C272.668091,89.043358 269.292755,81.281487 267.692444,72.692696 
	C265.077789,58.660198 265.253876,44.830322 271.954102,31.838804 
	C276.686615,22.662571 284.426941,17.944122 294.915344,17.745565 
	C305.321442,17.548567 313.871613,21.420530 318.526672,30.654842 
	C327.769836,48.990528 327.679108,67.807465 318.456177,86.205116 
	C315.299591,92.501793 309.763397,96.591652 302.279114,98.231422 
z"/>
<path fill="#FBFBFB" opacity="1.000000" stroke="none" 
	d="
M163.124008,18.953262 
	C163.388992,18.884981 163.604401,18.742012 164.326187,18.404325 
	C175.608749,18.250689 186.335358,18.217077 197.061966,18.183468 
	C210.250458,21.679018 214.716949,28.046352 213.030365,40.559074 
	C212.147675,47.107780 206.755981,54.003883 196.825348,54.089375 
	C185.881424,54.183590 174.935776,54.077248 163.602661,53.537643 
	C163.184296,41.662430 163.154144,30.307846 163.124008,18.953262 
z"/>
<path fill="#001A3D" opacity="1.000000" stroke="none" 
	d="
M162.799530,19.228939 
	C163.154144,30.307846 163.184296,41.662430 163.211517,53.482018 
	C162.834167,53.434517 162.130676,52.920029 162.133759,52.409801 
	C162.199921,41.441116 162.345139,30.472910 162.799530,19.228939 
z"/>
<path fill="#0C2042" opacity="1.000000" stroke="none" 
	d="
M196.792007,17.850178 
	C186.335358,18.217077 175.608749,18.250689 164.412094,18.227230 
	C164.465210,17.810452 164.990784,17.133844 165.511154,17.137833 
	C175.848480,17.217026 186.185211,17.374933 196.792007,17.850178 
z"/>
</svg>