<svg version="1.1" id="Layer_1" xmlns="http://www.w3.org/2000/svg" xmlns:xlink="http://www.w3.org/1999/xlink" x="0px" y="0px"
	 width="100%" viewBox="0 0 512 212" enable-background="new 0 0 512 212" xml:space="preserve">
<path fill="#FFFFFF" opacity="1.000000" stroke="none" 
	d="
M356.000000,213.000000 
	C237.374130,213.000000 119.248253,213.000000 1.061192,213.000000 
	C1.061192,142.398575 1.061192,71.797073 1.061192,1.097786 
	C171.542511,1.097786 342.085114,1.097786 512.813843,1.097786 
	C512.813843,71.666267 512.813843,142.333099 512.813843,213.000000 
	C460.797119,213.000000 408.648560,213.000000 356.000000,213.000000 
M107.778130,47.004105 
	C88.288383,47.004105 68.798637,47.004105 49.597050,47.004105 
	C42.295738,59.679684 35.471848,72.285812 27.890869,84.418892 
	C22.889439,92.423500 18.431393,99.836777 26.666624,108.252739 
	C26.871107,108.461716 26.855843,108.868782 27.014423,109.142052 
	C34.115723,121.379097 41.348999,133.542404 48.235573,145.898956 
	C49.728367,148.577469 51.426224,149.060974 54.092667,149.045563 
	C68.923035,148.959824 83.759026,148.782013 98.582787,149.106628 
	C105.116745,149.249710 109.764442,148.701706 113.309395,141.598526 
	C120.330788,127.529442 128.964020,114.270233 136.668228,100.528931 
	C137.553436,98.950089 137.520615,96.015984 136.634613,94.420303 
	C130.624557,83.596107 124.314522,72.936874 118.009270,62.278858 
	C114.984924,57.166695 111.759529,52.173470 107.778130,47.004105 
M337.979248,108.960388 
	C336.229523,102.449898 332.255371,97.813133 325.467712,97.150757 
	C318.773438,96.497505 311.965576,97.008125 305.268127,97.008125 
	C305.268127,111.967316 305.268127,126.361435 305.268127,140.733337 
	C309.278931,140.733337 313.015442,140.733337 317.316467,140.733337 
	C317.316467,135.335068 317.316467,130.196213 317.316467,125.057350 
	C317.780823,124.924049 318.245178,124.790741 318.709534,124.657440 
	C321.387299,129.981949 324.065033,135.306473 326.831818,140.808014 
	C330.889404,140.808014 335.323151,140.808014 340.318207,140.808014 
	C337.963837,136.013000 335.850861,131.553375 333.590546,127.169739 
	C332.398682,124.858292 331.397308,123.534225 334.143158,120.798149 
	C336.620239,118.329910 336.803558,113.559731 337.979248,108.960388 
M460.000000,131.466156 
	C460.000000,134.574829 460.000000,137.683487 460.000000,140.724335 
	C463.959167,140.724335 467.365234,140.724335 471.152954,140.724335 
	C471.152954,135.041656 471.152954,129.624939 471.152954,124.277672 
	C474.962433,124.277672 478.368408,124.277672 482.156799,124.277672 
	C482.156799,129.962524 482.156799,135.378998 482.156799,140.720169 
	C485.966248,140.720169 489.372192,140.720169 492.725037,140.720169 
	C492.725037,126.034904 492.725037,111.631157 492.725037,97.277512 
	C489.037109,97.277512 485.630920,97.277512 481.843506,97.277512 
	C481.843506,102.962196 481.843506,108.378685 481.843506,113.720490 
	C478.033936,113.720490 474.627838,113.720490 470.839661,113.720490 
	C470.839661,108.033607 470.839661,102.617447 470.839661,97.281677 
	C467.030121,97.281677 463.624084,97.281677 460.000000,97.281677 
	C460.000000,108.533493 460.000000,119.505142 460.000000,131.466156 
M248.406982,108.000000 
	C250.182236,108.000000 251.957474,108.000000 253.743637,108.000000 
	C253.743637,104.081512 253.743637,100.676369 253.743637,97.259048 
	C243.747391,97.259048 234.009399,97.259048 224.260254,97.259048 
	C224.260254,111.923073 224.260254,126.326508 224.260254,140.740692 
	C234.263962,140.740692 244.005386,140.740692 253.737534,140.740692 
	C253.737534,137.402817 253.737534,134.330353 253.737534,130.876465 
	C247.395035,130.876465 241.306671,130.876465 235.258820,130.876465 
	C235.258820,128.406281 235.258820,126.334915 235.258820,123.877357 
	C240.593353,123.877357 245.681808,123.877357 250.735809,123.877357 
	C250.735809,120.398895 250.735809,117.326088 250.735809,113.876511 
	C245.387787,113.876511 240.293304,113.876511 235.257782,113.876511 
	C235.257782,111.745369 235.257782,110.006760 235.257782,108.000000 
	C239.485886,108.000000 243.459763,108.000000 248.406982,108.000000 
M282.969849,97.019791 
	C280.971191,97.013573 278.936920,96.782227 276.988129,97.090889 
	C275.925842,97.259140 274.448273,98.134941 274.109955,99.045364 
	C268.989624,112.825638 264.027344,126.664642 258.843994,140.998825 
	C262.463165,140.998825 265.759430,141.202576 269.004211,140.883072 
	C270.071899,140.777939 271.691010,139.446396 271.876007,138.455093 
	C272.483307,135.200241 274.428467,134.791168 277.176575,134.961578 
	C279.978363,135.135330 282.799316,135.000000 285.509613,135.000000 
	C286.252869,137.198669 286.897858,139.106674 287.481445,140.832993 
	C291.729340,140.832993 295.646271,140.832993 299.956329,140.832993 
	C294.497375,126.135727 289.140778,111.714088 282.969849,97.019791 
M349.676819,97.000275 
	C348.785065,97.778366 347.124847,98.547630 347.115784,99.335869 
	C346.957581,113.113396 347.001526,126.893234 347.001526,140.770172 
	C351.196899,140.770172 354.935425,140.770172 359.064728,140.770172 
	C359.064728,135.799820 359.064728,131.044495 359.064728,125.999954 
	C361.587036,125.999954 363.732635,126.161713 365.846588,125.971519 
	C374.291504,125.211723 378.648743,120.938232 379.925323,113.138016 
	C381.155121,105.623520 376.785583,99.466591 368.819855,98.093513 
	C362.877014,97.069122 356.714661,97.318100 349.676819,97.000275 
M405.998016,101.384918 
	C405.473511,99.928947 404.949036,98.472977 404.418396,97.000008 
	C403.228638,97.000008 402.197052,97.173424 401.245575,96.970764 
	C396.474304,95.954491 394.328400,98.287743 392.986755,102.600899 
	C391.039612,108.860741 388.573151,114.957535 386.396393,121.147858 
	C384.131989,127.587379 381.948730,134.055420 379.561920,141.000000 
	C381.596741,141.000000 382.913513,141.051224 384.225067,140.990265 
	C387.994598,140.815048 392.773621,142.629761 393.465057,136.245255 
	C393.518768,135.749390 395.028198,135.109726 395.891571,135.059174 
	C398.548553,134.903549 401.250916,134.767960 403.872009,135.110886 
	C404.991974,135.257385 406.826660,136.596924 406.836548,137.412582 
	C406.878143,140.834167 408.820465,141.117798 411.434784,141.022736 
	C414.219818,140.921478 417.011353,140.999954 420.437103,140.999954 
	C415.495483,127.699135 410.762238,114.959244 405.998016,101.384918 
M152.522690,137.013641 
	C158.246902,141.770508 166.991425,142.642975 173.465591,139.103195 
	C178.737244,136.220901 181.141739,131.783844 180.439697,126.104874 
	C176.812347,126.104874 173.171692,126.104874 169.531021,126.104874 
	C167.976151,128.375397 165.712570,130.882385 163.831024,130.622589 
	C162.017502,130.372162 159.573364,127.439156 159.221146,125.375031 
	C158.503647,121.170113 158.563202,116.689438 159.204300,112.459030 
	C159.504242,110.479721 161.590637,108.031616 163.457657,107.297798 
	C164.637802,106.833946 166.911194,109.138466 168.688171,110.211365 
	C169.657471,110.796616 170.581940,111.844475 171.582489,111.917412 
	C174.672333,112.142624 177.789017,111.999611 180.907867,111.999611 
	C180.385712,101.412621 174.516815,96.901146 162.040527,97.000000 
	C154.513290,97.059647 148.055969,103.440071 148.006317,110.912323 
	C147.973145,115.905357 147.501572,120.966179 148.164520,125.869812 
	C148.656677,129.510239 150.656128,132.946884 152.522690,137.013641 
M430.517059,97.000000 
	C426.744537,97.000000 422.972015,97.000000 419.279907,97.000000 
	C419.279907,100.972176 419.279907,104.380478 419.279907,108.169647 
	C422.964874,108.169647 426.381165,108.169647 430.163757,108.169647 
	C430.163757,119.303833 430.163757,130.047699 430.163757,140.717163 
	C433.971893,140.717163 437.378113,140.717163 441.164215,140.717163 
	C441.164215,129.695648 441.164215,118.951767 441.164215,107.829369 
	C444.967926,107.829369 448.382294,107.829369 451.716248,107.829369 
	C451.716248,104.024689 451.716248,100.618584 451.716248,97.000000 
	C444.793518,97.000000 438.152161,97.000000 430.517059,97.000000 
M188.000000,104.561066 
	C188.000000,116.650734 188.000000,128.740402 188.000000,140.696838 
	C198.025818,140.696838 207.435669,140.696838 216.690918,140.696838 
	C216.690918,137.309952 216.690918,134.235336 216.690918,130.779709 
	C210.641846,130.779709 204.899246,130.779709 199.000000,130.779709 
	C199.000000,124.895660 199.000000,119.412712 199.000000,113.929764 
	C199.000000,108.333763 199.000000,102.737762 199.000000,97.313950 
	C194.969742,97.313950 191.562775,97.313950 188.000000,97.313950 
	C188.000000,99.610527 188.000000,101.594223 188.000000,104.561066 
M172.997818,160.672043 
	C172.902649,159.006775 172.469147,157.275742 172.777588,155.688934 
	C173.606293,151.425262 171.535004,148.411911 166.998337,148.033569 
	C164.754517,147.846420 162.482208,148.001068 160.255112,148.001068 
	C160.255112,154.615707 160.255112,160.680511 160.255112,166.999985 
	C162.801987,166.999985 165.108078,166.886765 167.399002,167.025085 
	C171.377762,167.265320 173.324432,165.591934 172.997818,160.672043 
M124.000000,152.629761 
	C124.000000,157.398087 124.000000,162.166412 124.000000,166.934723 
	C124.673195,167.032898 125.346382,167.131073 126.019577,167.229233 
	C126.512512,164.869873 127.005447,162.510498 127.845818,158.488159 
	C130.218155,161.699966 131.949173,164.043518 134.014511,166.839722 
	C134.756317,166.839722 136.218124,166.839722 137.838150,166.839722 
	C136.600006,164.290176 135.413193,161.846375 134.226395,159.402557 
	C134.678513,159.470093 135.130646,159.537628 135.582764,159.605164 
	C135.944427,156.784073 137.533798,153.278595 136.419754,151.280151 
	C133.867630,146.701996 128.809830,147.988342 124.000008,148.139496 
	C124.000008,149.414398 124.000008,150.540710 124.000000,152.629761 
M141.001434,160.139801 
	C141.074890,160.626846 141.141617,161.115021 141.222839,161.600769 
	C142.132233,167.040222 146.004639,167.799576 150.369080,166.917358 
	C154.536102,166.075043 155.395279,162.799103 155.020569,158.988953 
	C154.891190,157.673248 154.926025,156.329193 155.013840,155.006592 
	C155.276154,151.056015 153.046600,148.397476 149.580505,148.461273 
	C147.019135,148.508438 143.889099,150.282288 142.159225,152.279938 
	C140.840347,153.802979 141.320358,156.883774 141.001434,160.139801 
M177.304001,161.834137 
	C178.266403,166.947815 181.916412,167.719727 186.129166,166.942917 
	C190.300751,166.173676 191.378815,163.109116 191.025055,159.228775 
	C190.874817,157.581131 191.047256,155.906754 190.989456,154.247421 
	C190.863419,150.628922 188.708450,147.960556 185.414764,148.249298 
	C182.845398,148.474533 179.612015,150.361786 178.245789,152.510193 
	C176.843567,154.715164 177.350510,158.134232 177.304001,161.834137 
M250.064636,157.611221 
	C247.208969,156.315414 244.353317,155.019608 241.497650,153.723816 
	C241.722565,153.113800 241.947464,152.503799 242.172379,151.893784 
	C243.864395,152.169952 245.557724,152.650146 247.247925,152.639435 
	C248.143448,152.633759 249.033585,151.775131 249.926163,151.301559 
	C249.422623,150.494431 248.936600,149.007431 248.412628,148.993927 
	C245.654572,148.922913 242.563675,148.546249 240.244904,149.652252 
	C238.872681,150.306793 238.056656,153.543793 238.165649,155.555878 
	C238.329758,158.585754 240.926926,159.025787 243.657394,159.130020 
	C244.792419,159.173370 245.973862,160.430771 246.909363,161.361984 
	C247.113525,161.565201 246.461563,163.271408 246.024612,163.355667 
	C244.697937,163.611450 243.283554,163.401993 241.903183,163.392136 
	C240.332306,163.380920 238.761276,163.389542 236.031235,163.389542 
	C240.488724,168.655228 245.089050,167.565903 248.668304,166.477081 
	C252.213730,165.398544 251.078979,161.260773 250.064636,157.611221 
M230.090576,166.998978 
	C231.909729,165.400497 233.728882,163.802032 235.548035,162.203552 
	C235.114746,161.630096 234.681473,161.056641 234.248184,160.483185 
	C232.669785,161.309647 231.155426,162.320221 229.490952,162.899246 
	C228.339584,163.299774 226.980988,163.104630 225.714996,163.175659 
	C225.620667,159.805771 225.398788,156.427750 225.611908,153.077423 
	C225.635529,152.706329 228.136826,152.452148 229.505600,152.264877 
	C229.656967,152.244156 229.813278,153.223770 230.146240,153.398560 
	C231.564606,154.143036 233.050278,154.759323 235.300430,155.780472 
	C232.571457,148.317703 227.097366,145.757858 223.203339,149.479736 
	C219.213120,153.293594 220.720505,158.620865 221.319611,163.085052 
	C221.798889,166.656342 225.656357,167.534576 230.090576,166.998978 
M265.700531,149.831894 
	C265.282959,150.441971 264.865356,151.052048 264.423157,151.698074 
	C262.039032,145.123642 256.994904,149.105377 252.996460,147.924881 
	C253.804779,150.988846 254.340134,153.303024 255.062057,155.557449 
	C255.246140,156.132278 256.028473,156.893372 256.523682,156.884537 
	C257.019775,156.875671 257.804565,156.077576 257.928955,155.508698 
	C258.256073,154.012375 258.292999,152.452606 258.445496,150.918121 
	C258.867065,150.962204 259.288635,151.006302 259.710205,151.050385 
	C259.877838,152.957642 260.045441,154.864883 260.261475,157.323074 
	C262.573486,156.194870 264.585358,155.213135 266.424042,154.315903 
	C267.000336,155.401672 267.447327,156.243835 267.894318,157.085999 
	C268.148895,157.017365 268.403442,156.948746 268.658020,156.880112 
	C268.658020,154.029007 268.658020,151.177902 268.658020,147.683945 
	C267.635925,148.218948 266.817047,148.647583 265.700531,149.831894 
M202.000000,162.351700 
	C202.000000,159.058228 202.000000,155.764771 202.000000,152.517807 
	C206.884491,151.809036 206.884491,151.809036 206.440414,148.235794 
	C202.352890,148.235794 198.265381,148.235794 194.355621,148.235794 
	C192.122879,153.918747 197.858917,150.845215 199.000000,152.767670 
	C199.000000,156.324661 198.892670,159.814087 199.057281,163.290634 
	C199.116150,164.534149 199.832474,165.746521 200.248734,166.973099 
	C200.832489,165.749924 201.416245,164.526749 202.000000,162.351700 
M212.002747,165.190018 
	C212.546860,165.786819 213.090988,166.383621 213.635117,166.980423 
	C214.089417,166.291794 214.920395,165.612289 214.937332,164.913055 
	C215.053406,160.122177 215.066925,155.325302 214.935776,150.535233 
	C214.912476,149.683807 214.059509,148.855087 213.589645,148.015884 
	C213.059814,148.960510 212.107697,149.889648 212.072388,150.852417 
	C211.908936,155.309494 212.000168,159.775909 212.002747,165.190018 
z"/>
<path fill="#030301" opacity="1.000000" stroke="none" 
	d="
M108.201660,47.065243 
	C111.759529,52.173470 114.984924,57.166695 118.009270,62.278858 
	C124.314522,72.936874 130.624557,83.596107 136.634613,94.420303 
	C137.520615,96.015984 137.553436,98.950089 136.668228,100.528931 
	C128.964020,114.270233 120.330788,127.529442 113.309395,141.598526 
	C109.764442,148.701706 105.116745,149.249710 98.582787,149.106628 
	C83.759026,148.782013 68.923035,148.959824 54.092667,149.045563 
	C51.426224,149.060974 49.728367,148.577469 48.235573,145.898956 
	C41.348999,133.542404 34.115723,121.379097 27.014423,109.142052 
	C26.855843,108.868782 26.871107,108.461716 26.666624,108.252739 
	C18.431393,99.836777 22.889439,92.423500 27.890869,84.418892 
	C35.471848,72.285812 42.295738,59.679684 49.597050,47.004105 
	C68.798637,47.004105 88.288383,47.004105 108.201660,47.065243 
M113.786026,103.665619 
	C112.668533,102.287758 111.668198,99.863113 110.412224,99.722542 
	C106.143196,99.244743 101.591415,98.839981 97.540207,99.903229 
	C95.511841,100.435585 94.200943,104.129059 92.794998,106.527336 
	C88.139641,114.468567 93.927353,124.636703 103.072212,124.515800 
	C105.980919,124.477341 109.956322,124.967766 111.553986,123.350014 
	C114.476334,120.390938 116.820335,116.235458 117.763840,112.195518 
	C118.281563,109.978706 115.447884,106.979195 113.786026,103.665619 
M50.887901,95.998489 
	C59.723518,98.048882 64.815224,93.862808 67.677094,85.936829 
	C67.843857,85.474960 68.273788,85.087570 68.364029,84.623306 
	C68.508232,83.881340 68.684746,83.038879 68.476395,82.351410 
	C65.891319,73.821564 61.701622,70.766426 52.528969,70.888145 
	C50.671230,70.912811 48.207458,70.923241 47.070873,72.023048 
	C40.960876,77.935333 40.302147,83.709885 44.817863,90.998863 
	C46.043575,92.977318 48.250076,94.348152 50.887901,95.998489 
M92.246849,123.585640 
	C89.577202,115.166878 83.799675,112.152779 75.308746,113.824471 
	C74.829483,113.918839 74.261551,113.705147 73.831436,113.876793 
	C72.972443,114.219589 71.969017,114.544807 71.393486,115.200516 
	C65.389580,122.040588 65.146225,126.053650 69.245659,133.820114 
	C71.148613,137.425278 73.241241,139.422470 77.600281,138.915573 
	C82.099266,138.392441 87.441872,140.455872 89.380981,133.906082 
	C90.348335,130.638596 91.588722,127.451927 92.246849,123.585640 
M61.719028,99.857910 
	C57.756069,99.753845 53.792175,99.563065 49.830791,99.605606 
	C48.817684,99.616486 47.537678,100.100456 46.846867,100.816940 
	C40.954559,106.928200 40.987892,111.800629 44.477573,119.536339 
	C47.135403,125.428040 51.510349,124.107109 55.951736,124.541916 
	C60.340828,124.971596 62.520557,123.160431 64.997047,119.580772 
	C68.871719,113.980103 68.959679,109.285362 64.727974,104.189819 
	C63.788139,103.058121 63.141109,101.683250 61.719028,99.857910 
M92.819687,70.859550 
	C93.622696,64.293343 87.051453,56.421532 80.686508,56.593998 
	C77.662155,56.675941 73.621658,56.257050 71.868073,57.953335 
	C68.905586,60.819012 66.648979,64.988976 65.589874,69.004623 
	C65.062798,71.003059 67.831665,73.885490 69.146240,76.348465 
	C69.769676,77.516525 70.326561,78.777008 71.197777,79.737968 
	C71.897339,80.509598 72.969025,81.229691 73.971497,81.396584 
	C83.825851,83.037270 86.378006,81.805489 91.400940,73.244003 
	C91.735962,72.672958 92.057350,72.093903 92.819687,70.859550 
M114.228271,69.786194 
	C110.916206,69.849014 107.591400,70.119179 104.295624,69.916771 
	C100.950745,69.711349 99.010376,70.926575 97.999306,74.141769 
	C97.527023,75.643600 96.492966,77.002686 95.562256,78.319565 
	C93.474579,81.273476 94.902977,84.769928 98.709869,85.850578 
	C96.612297,80.781258 97.186607,75.602547 101.393394,72.602570 
	C105.928947,69.368134 111.212006,70.641006 116.892006,72.586731 
	C116.020813,71.262123 115.467476,70.420792 114.228271,69.786194 
M105.761215,93.025719 
	C116.285332,93.025665 117.102715,92.523155 119.237572,84.043472 
	C113.820427,93.279137 106.721062,92.831848 98.901817,88.187820 
	C99.347969,91.769028 101.255447,93.487099 105.761215,93.025719 
M117.940773,76.839088 
	C118.473274,76.951881 119.005768,77.064674 119.538269,77.177475 
	C119.500122,76.917862 119.489876,76.442070 119.419403,76.432976 
	C118.876701,76.362930 118.322319,76.383369 117.940773,76.839088 
M121.473404,81.604301 
	C121.181618,81.875450 120.889832,82.146599 120.598045,82.417747 
	C120.702560,82.520676 120.887764,82.721977 120.899780,82.712128 
	C121.193367,82.471313 121.468529,82.208038 121.473404,81.604301 
M116.614281,74.473564 
	C116.834564,74.529572 117.054855,74.585587 117.275139,74.641602 
	C117.133461,74.503090 116.991776,74.364571 116.614281,74.473564 
M119.811562,79.225021 
	C119.871918,79.405464 119.932274,79.585915 119.992630,79.766357 
	C120.050804,79.584770 120.108978,79.403191 119.811562,79.225021 
z"/>
<path fill="#000000" opacity="1.000000" stroke="none" 
	d="
M337.988861,109.382568 
	C336.803558,113.559731 336.620239,118.329910 334.143158,120.798149 
	C331.397308,123.534225 332.398682,124.858292 333.590546,127.169739 
	C335.850861,131.553375 337.963837,136.013000 340.318207,140.808014 
	C335.323151,140.808014 330.889404,140.808014 326.831818,140.808014 
	C324.065033,135.306473 321.387299,129.981949 318.709534,124.657440 
	C318.245178,124.790741 317.780823,124.924049 317.316467,125.057350 
	C317.316467,130.196213 317.316467,135.335068 317.316467,140.733337 
	C313.015442,140.733337 309.278931,140.733337 305.268127,140.733337 
	C305.268127,126.361435 305.268127,111.967316 305.268127,97.008125 
	C311.965576,97.008125 318.773438,96.497505 325.467712,97.150757 
	C332.255371,97.813133 336.229523,102.449898 337.988861,109.382568 
M321.159698,108.000061 
	C319.783081,108.081940 318.406464,108.163818 317.304138,108.229378 
	C317.304138,110.808723 317.304138,112.868118 317.304138,116.654785 
	C320.830627,114.758469 323.402191,113.375641 325.973785,111.992805 
	C324.658447,110.662163 323.343140,109.331520 321.159698,108.000061 
z"/>
<path fill="#000000" opacity="1.000000" stroke="none" 
	d="
M460.000000,130.971466 
	C460.000000,119.505142 460.000000,108.533493 460.000000,97.281677 
	C463.624084,97.281677 467.030121,97.281677 470.839661,97.281677 
	C470.839661,102.617447 470.839661,108.033607 470.839661,113.720490 
	C474.627838,113.720490 478.033936,113.720490 481.843506,113.720490 
	C481.843506,108.378685 481.843506,102.962196 481.843506,97.277512 
	C485.630920,97.277512 489.037109,97.277512 492.725037,97.277512 
	C492.725037,111.631157 492.725037,126.034904 492.725037,140.720169 
	C489.372192,140.720169 485.966248,140.720169 482.156799,140.720169 
	C482.156799,135.378998 482.156799,129.962524 482.156799,124.277672 
	C478.368408,124.277672 474.962433,124.277672 471.152954,124.277672 
	C471.152954,129.624939 471.152954,135.041656 471.152954,140.724335 
	C467.365234,140.724335 463.959167,140.724335 460.000000,140.724335 
	C460.000000,137.683487 460.000000,134.574829 460.000000,130.971466 
z"/>
<path fill="#000000" opacity="1.000000" stroke="none" 
	d="
M247.920319,108.000000 
	C243.459763,108.000000 239.485886,108.000000 235.257782,108.000000 
	C235.257782,110.006760 235.257782,111.745369 235.257782,113.876511 
	C240.293304,113.876511 245.387787,113.876511 250.735809,113.876511 
	C250.735809,117.326088 250.735809,120.398895 250.735809,123.877357 
	C245.681808,123.877357 240.593353,123.877357 235.258820,123.877357 
	C235.258820,126.334915 235.258820,128.406281 235.258820,130.876465 
	C241.306671,130.876465 247.395035,130.876465 253.737534,130.876465 
	C253.737534,134.330353 253.737534,137.402817 253.737534,140.740692 
	C244.005386,140.740692 234.263962,140.740692 224.260254,140.740692 
	C224.260254,126.326508 224.260254,111.923073 224.260254,97.259048 
	C234.009399,97.259048 243.747391,97.259048 253.743637,97.259048 
	C253.743637,100.676369 253.743637,104.081512 253.743637,108.000000 
	C251.957474,108.000000 250.182236,108.000000 247.920319,108.000000 
z"/>
<path fill="#000000" opacity="1.000000" stroke="none" 
	d="
M283.377014,97.156120 
	C289.140778,111.714088 294.497375,126.135727 299.956329,140.832993 
	C295.646271,140.832993 291.729340,140.832993 287.481445,140.832993 
	C286.897858,139.106674 286.252869,137.198669 285.509613,135.000000 
	C282.799316,135.000000 279.978363,135.135330 277.176575,134.961578 
	C274.428467,134.791168 272.483307,135.200241 271.876007,138.455093 
	C271.691010,139.446396 270.071899,140.777939 269.004211,140.883072 
	C265.759430,141.202576 262.463165,140.998825 258.843994,140.998825 
	C264.027344,126.664642 268.989624,112.825638 274.109955,99.045364 
	C274.448273,98.134941 275.925842,97.259140 276.988129,97.090889 
	C278.936920,96.782227 280.971191,97.013573 283.377014,97.156120 
M277.949982,121.446991 
	C277.602844,122.509079 277.255737,123.571159 276.772095,125.050858 
	C279.015320,124.944656 280.446533,124.876900 282.343414,124.787102 
	C281.353058,121.779190 280.478912,119.124161 279.463776,116.040962 
	C278.862152,117.920952 278.429993,119.271431 277.949982,121.446991 
z"/>
<path fill="#000000" opacity="1.000000" stroke="none" 
	d="
M350.163452,97.000137 
	C356.714661,97.318100 362.877014,97.069122 368.819855,98.093513 
	C376.785583,99.466591 381.155121,105.623520 379.925323,113.138016 
	C378.648743,120.938232 374.291504,125.211723 365.846588,125.971519 
	C363.732635,126.161713 361.587036,125.999954 359.064728,125.999954 
	C359.064728,131.044495 359.064728,135.799820 359.064728,140.770172 
	C354.935425,140.770172 351.196899,140.770172 347.001526,140.770172 
	C347.001526,126.893234 346.957581,113.113396 347.115784,99.335869 
	C347.124847,98.547630 348.785065,97.778366 350.163452,97.000137 
M367.481293,113.004768 
	C367.751160,108.089104 366.941345,107.620178 359.291779,108.338669 
	C359.291779,110.522858 359.291779,112.709778 359.291779,115.683151 
	C362.143433,114.910805 364.532227,114.263809 367.481293,113.004768 
z"/>
<path fill="#000000" opacity="1.000000" stroke="none" 
	d="
M406.013489,101.802132 
	C410.762238,114.959244 415.495483,127.699135 420.437103,140.999954 
	C417.011353,140.999954 414.219818,140.921478 411.434784,141.022736 
	C408.820465,141.117798 406.878143,140.834167 406.836548,137.412582 
	C406.826660,136.596924 404.991974,135.257385 403.872009,135.110886 
	C401.250916,134.767960 398.548553,134.903549 395.891571,135.059174 
	C395.028198,135.109726 393.518768,135.749390 393.465057,136.245255 
	C392.773621,142.629761 387.994598,140.815048 384.225067,140.990265 
	C382.913513,141.051224 381.596741,141.000000 379.561920,141.000000 
	C381.948730,134.055420 384.131989,127.587379 386.396393,121.147858 
	C388.573151,114.957535 391.039612,108.860741 392.986755,102.600899 
	C394.328400,98.287743 396.474304,95.954491 401.245575,96.970764 
	C402.197052,97.173424 403.228638,97.000008 404.418396,97.000008 
	C404.949036,98.472977 405.473511,99.928947 406.013489,101.802132 
M401.200806,124.998383 
	C401.586823,124.620682 402.360443,124.154373 402.297546,123.879303 
	C401.795746,121.684196 401.135468,119.525322 400.218689,116.273132 
	C399.005157,119.756744 398.143494,122.230309 397.178711,124.999870 
	C398.432861,124.999870 399.417786,124.999870 401.200806,124.998383 
z"/>
<path fill="#000000" opacity="1.000000" stroke="none" 
	d="
M152.253448,136.743973 
	C150.656128,132.946884 148.656677,129.510239 148.164520,125.869812 
	C147.501572,120.966179 147.973145,115.905357 148.006317,110.912323 
	C148.055969,103.440071 154.513290,97.059647 162.040527,97.000000 
	C174.516815,96.901146 180.385712,101.412621 180.907867,111.999611 
	C177.789017,111.999611 174.672333,112.142624 171.582489,111.917412 
	C170.581940,111.844475 169.657471,110.796616 168.688171,110.211365 
	C166.911194,109.138466 164.637802,106.833946 163.457657,107.297798 
	C161.590637,108.031616 159.504242,110.479721 159.204300,112.459030 
	C158.563202,116.689438 158.503647,121.170113 159.221146,125.375031 
	C159.573364,127.439156 162.017502,130.372162 163.831024,130.622589 
	C165.712570,130.882385 167.976151,128.375397 169.531021,126.104874 
	C173.171692,126.104874 176.812347,126.104874 180.439697,126.104874 
	C181.141739,131.783844 178.737244,136.220901 173.465591,139.103195 
	C166.991425,142.642975 158.246902,141.770508 152.253448,136.743973 
z"/>
<path fill="#000000" opacity="1.000000" stroke="none" 
	d="
M431.013947,97.000000 
	C438.152161,97.000000 444.793518,97.000000 451.716248,97.000000 
	C451.716248,100.618584 451.716248,104.024689 451.716248,107.829369 
	C448.382294,107.829369 444.967926,107.829369 441.164215,107.829369 
	C441.164215,118.951767 441.164215,129.695648 441.164215,140.717163 
	C437.378113,140.717163 433.971893,140.717163 430.163757,140.717163 
	C430.163757,130.047699 430.163757,119.303833 430.163757,108.169647 
	C426.381165,108.169647 422.964874,108.169647 419.279907,108.169647 
	C419.279907,104.380478 419.279907,100.972176 419.279907,97.000000 
	C422.972015,97.000000 426.744537,97.000000 431.013947,97.000000 
z"/>
<path fill="#000000" opacity="1.000000" stroke="none" 
	d="
M188.000000,104.069496 
	C188.000000,101.594223 188.000000,99.610527 188.000000,97.313950 
	C191.562775,97.313950 194.969742,97.313950 199.000000,97.313950 
	C199.000000,102.737762 199.000000,108.333763 199.000000,113.929764 
	C199.000000,119.412712 199.000000,124.895660 199.000000,130.779709 
	C204.899246,130.779709 210.641846,130.779709 216.690918,130.779709 
	C216.690918,134.235336 216.690918,137.309952 216.690918,140.696838 
	C207.435669,140.696838 198.025818,140.696838 188.000000,140.696838 
	C188.000000,128.740402 188.000000,116.650734 188.000000,104.069496 
z"/>
<path fill="#000000" opacity="1.000000" stroke="none" 
	d="
M172.998825,161.099060 
	C173.324432,165.591934 171.377762,167.265320 167.399002,167.025085 
	C165.108078,166.886765 162.801987,166.999985 160.255112,166.999985 
	C160.255112,160.680511 160.255112,154.615707 160.255112,148.001068 
	C162.482208,148.001068 164.754517,147.846420 166.998337,148.033569 
	C171.535004,148.411911 173.606293,151.425262 172.777588,155.688934 
	C172.469147,157.275742 172.902649,159.006775 172.998825,161.099060 
M166.874329,163.988831 
	C167.903320,163.186325 168.932312,162.383820 170.948349,160.811523 
	C167.763489,159.877502 165.655411,159.259277 162.967819,158.471085 
	C163.345230,161.413483 161.442368,164.592224 166.874329,163.988831 
z"/>
<path fill="#000000" opacity="1.000000" stroke="none" 
	d="
M124.000000,152.148392 
	C124.000008,150.540710 124.000008,149.414398 124.000008,148.139496 
	C128.809830,147.988342 133.867630,146.701996 136.419754,151.280151 
	C137.533798,153.278595 135.944427,156.784073 135.582764,159.605164 
	C135.130646,159.537628 134.678513,159.470093 134.226395,159.402557 
	C135.413193,161.846375 136.600006,164.290176 137.838150,166.839722 
	C136.218124,166.839722 134.756317,166.839722 134.014511,166.839722 
	C131.949173,164.043518 130.218155,161.699966 127.845818,158.488159 
	C127.005447,162.510498 126.512512,164.869873 126.019577,167.229233 
	C125.346382,167.131073 124.673195,167.032898 124.000000,166.934723 
	C124.000000,162.166412 124.000000,157.398087 124.000000,152.148392 
z"/>
<path fill="#000000" opacity="1.000000" stroke="none" 
	d="
M141.000763,159.705688 
	C141.320358,156.883774 140.840347,153.802979 142.159225,152.279938 
	C143.889099,150.282288 147.019135,148.508438 149.580505,148.461273 
	C153.046600,148.397476 155.276154,151.056015 155.013840,155.006592 
	C154.926025,156.329193 154.891190,157.673248 155.020569,158.988953 
	C155.395279,162.799103 154.536102,166.075043 150.369080,166.917358 
	C146.004639,167.799576 142.132233,167.040222 141.222839,161.600769 
	C141.141617,161.115021 141.074890,160.626846 141.000763,159.705688 
M150.029800,152.568222 
	C148.620316,152.924133 146.052536,153.145660 145.993088,153.658203 
	C145.657669,156.549210 145.792908,159.524506 146.110397,162.433670 
	C146.166183,162.944748 148.233917,163.873383 148.696472,163.571899 
	C149.696594,162.920074 150.781082,161.647995 150.892303,160.535767 
	C151.134933,158.109207 150.791214,155.624039 150.029800,152.568222 
z"/>
<path fill="#000000" opacity="1.000000" stroke="none" 
	d="
M177.162964,161.428040 
	C177.350510,158.134232 176.843567,154.715164 178.245789,152.510193 
	C179.612015,150.361786 182.845398,148.474533 185.414764,148.249298 
	C188.708450,147.960556 190.863419,150.628922 190.989456,154.247421 
	C191.047256,155.906754 190.874817,157.581131 191.025055,159.228775 
	C191.378815,163.109116 190.300751,166.173676 186.129166,166.942917 
	C181.916412,167.719727 178.266403,166.947815 177.162964,161.428040 
M181.001877,155.787094 
	C181.001495,157.115097 180.545166,158.693375 181.105270,159.713699 
	C181.993805,161.332367 183.561722,162.578094 184.842224,163.981598 
	C185.561478,162.552948 186.467712,161.182449 186.936295,159.675842 
	C187.265823,158.616333 187.282761,157.276733 186.932220,156.232376 
	C186.433212,154.745712 185.469131,153.415146 184.703751,152.017883 
	C183.477722,152.985672 182.251709,153.953445 181.001877,155.787094 
z"/>
<path fill="#000000" opacity="1.000000" stroke="none" 
	d="
M250.381439,157.890289 
	C251.078979,161.260773 252.213730,165.398544 248.668304,166.477081 
	C245.089050,167.565903 240.488724,168.655228 236.031235,163.389542 
	C238.761276,163.389542 240.332306,163.380920 241.903183,163.392136 
	C243.283554,163.401993 244.697937,163.611450 246.024612,163.355667 
	C246.461563,163.271408 247.113525,161.565201 246.909363,161.361984 
	C245.973862,160.430771 244.792419,159.173370 243.657394,159.130020 
	C240.926926,159.025787 238.329758,158.585754 238.165649,155.555878 
	C238.056656,153.543793 238.872681,150.306793 240.244904,149.652252 
	C242.563675,148.546249 245.654572,148.922913 248.412628,148.993927 
	C248.936600,149.007431 249.422623,150.494431 249.926163,151.301559 
	C249.033585,151.775131 248.143448,152.633759 247.247925,152.639435 
	C245.557724,152.650146 243.864395,152.169952 242.172379,151.893784 
	C241.947464,152.503799 241.722565,153.113800 241.497650,153.723816 
	C244.353317,155.019608 247.208969,156.315414 250.381439,157.890289 
z"/>
<path fill="#000000" opacity="1.000000" stroke="none" 
	d="
M229.670959,166.999451 
	C225.656357,167.534576 221.798889,166.656342 221.319611,163.085052 
	C220.720505,158.620865 219.213120,153.293594 223.203339,149.479736 
	C227.097366,145.757858 232.571457,148.317703 235.300430,155.780472 
	C233.050278,154.759323 231.564606,154.143036 230.146240,153.398560 
	C229.813278,153.223770 229.656967,152.244156 229.505600,152.264877 
	C228.136826,152.452148 225.635529,152.706329 225.611908,153.077423 
	C225.398788,156.427750 225.620667,159.805771 225.714996,163.175659 
	C226.980988,163.104630 228.339584,163.299774 229.490952,162.899246 
	C231.155426,162.320221 232.669785,161.309647 234.248184,160.483185 
	C234.681473,161.056641 235.114746,161.630096 235.548035,162.203552 
	C233.728882,163.802032 231.909729,165.400497 229.670959,166.999451 
z"/>
<path fill="#000000" opacity="1.000000" stroke="none" 
	d="
M265.849365,149.454041 
	C266.817047,148.647583 267.635925,148.218948 268.658020,147.683945 
	C268.658020,151.177902 268.658020,154.029007 268.658020,156.880112 
	C268.403442,156.948746 268.148895,157.017365 267.894318,157.085999 
	C267.447327,156.243835 267.000336,155.401672 266.424042,154.315903 
	C264.585358,155.213135 262.573486,156.194870 260.261475,157.323074 
	C260.045441,154.864883 259.877838,152.957642 259.710205,151.050385 
	C259.288635,151.006302 258.867065,150.962204 258.445496,150.918121 
	C258.292999,152.452606 258.256073,154.012375 257.928955,155.508698 
	C257.804565,156.077576 257.019775,156.875671 256.523682,156.884537 
	C256.028473,156.893372 255.246140,156.132278 255.062057,155.557449 
	C254.340134,153.303024 253.804779,150.988846 252.996460,147.924881 
	C256.994904,149.105377 262.039032,145.123642 264.423157,151.698074 
	C264.865356,151.052048 265.282959,150.441971 265.849365,149.454041 
z"/>
<path fill="#000000" opacity="1.000000" stroke="none" 
	d="
M202.000000,162.827637 
	C201.416245,164.526749 200.832489,165.749924 200.248718,166.973099 
	C199.832474,165.746521 199.116150,164.534149 199.057281,163.290634 
	C198.892670,159.814087 199.000000,156.324661 199.000000,152.767670 
	C197.858917,150.845215 192.122879,153.918747 194.355621,148.235794 
	C198.265381,148.235794 202.352890,148.235794 206.442688,148.233185 
	C206.884491,151.809036 206.884491,151.809036 202.000000,152.517807 
	C202.000000,155.764771 202.000000,159.058228 202.000000,162.827637 
z"/>
<path fill="#000000" opacity="1.000000" stroke="none" 
	d="
M212.001465,164.714508 
	C212.000168,159.775909 211.908936,155.309494 212.072388,150.852417 
	C212.107697,149.889648 213.059814,148.960510 213.589645,148.015884 
	C214.059509,148.855087 214.912476,149.683807 214.935776,150.535233 
	C215.066925,155.325302 215.053406,160.122177 214.937332,164.913055 
	C214.920395,165.612289 214.089417,166.291794 213.635101,166.980423 
	C213.090988,166.383621 212.546860,165.786819 212.001465,164.714508 
z"/>
<path fill="#E9C51B" opacity="1.000000" stroke="none" 
	d="
M113.955688,103.999115 
	C115.447884,106.979195 118.281563,109.978706 117.763840,112.195518 
	C116.820335,116.235458 114.476334,120.390938 111.553986,123.350014 
	C109.956322,124.967766 105.980919,124.477341 103.072212,124.515800 
	C93.927353,124.636703 88.139641,114.468567 92.794998,106.527336 
	C94.200943,104.129059 95.511841,100.435585 97.540207,99.903229 
	C101.591415,98.839981 106.143196,99.244743 110.412224,99.722542 
	C111.668198,99.863113 112.668533,102.287758 113.955688,103.999115 
z"/>
<path fill="#EFCB1C" opacity="1.000000" stroke="none" 
	d="
M50.447159,95.998184 
	C48.250076,94.348152 46.043575,92.977318 44.817863,90.998863 
	C40.302147,83.709885 40.960876,77.935333 47.070873,72.023048 
	C48.207458,70.923241 50.671230,70.912811 52.528969,70.888145 
	C61.701622,70.766426 65.891319,73.821564 68.476395,82.351410 
	C68.684746,83.038879 68.508232,83.881340 68.364029,84.623306 
	C68.273788,85.087570 67.843857,85.474960 67.677094,85.936829 
	C64.815224,93.862808 59.723518,98.048882 50.447159,95.998184 
z"/>
<path fill="#EECA1C" opacity="1.000000" stroke="none" 
	d="
M92.476227,123.907173 
	C91.588722,127.451927 90.348335,130.638596 89.380981,133.906082 
	C87.441872,140.455872 82.099266,138.392441 77.600281,138.915573 
	C73.241241,139.422470 71.148613,137.425278 69.245659,133.820114 
	C65.146225,126.053650 65.389580,122.040588 71.393486,115.200516 
	C71.969017,114.544807 72.972443,114.219589 73.831436,113.876793 
	C74.261551,113.705147 74.829483,113.918839 75.308746,113.824471 
	C83.799675,112.152779 89.577202,115.166878 92.476227,123.907173 
z"/>
<path fill="#EFCB1C" opacity="1.000000" stroke="none" 
	d="
M62.039146,100.139130 
	C63.141109,101.683250 63.788139,103.058121 64.727974,104.189819 
	C68.959679,109.285362 68.871719,113.980103 64.997047,119.580772 
	C62.520557,123.160431 60.340828,124.971596 55.951736,124.541916 
	C51.510349,124.107109 47.135403,125.428040 44.477573,119.536339 
	C40.987892,111.800629 40.954559,106.928200 46.846867,100.816940 
	C47.537678,100.100456 48.817684,99.616486 49.830791,99.605606 
	C53.792175,99.563065 57.756069,99.753845 62.039146,100.139130 
z"/>
<path fill="#EFCB1C" opacity="1.000000" stroke="none" 
	d="
M92.602386,71.189056 
	C92.057350,72.093903 91.735962,72.672958 91.400940,73.244003 
	C86.378006,81.805489 83.825851,83.037270 73.971497,81.396584 
	C72.969025,81.229691 71.897339,80.509598 71.197777,79.737968 
	C70.326561,78.777008 69.769676,77.516525 69.146240,76.348465 
	C67.831665,73.885490 65.062798,71.003059 65.589874,69.004623 
	C66.648979,64.988976 68.905586,60.819012 71.868073,57.953335 
	C73.621658,56.257050 77.662155,56.675941 80.686508,56.593998 
	C87.051453,56.421532 93.622696,64.293343 92.602386,71.189056 
z"/>
<path fill="#090909" opacity="1.000000" stroke="none" 
	d="
M114.571205,69.682831 
	C115.467476,70.420792 116.020813,71.262123 116.892006,72.586731 
	C111.212006,70.641006 105.928947,69.368134 101.393394,72.602570 
	C97.186607,75.602547 96.612297,80.781258 98.709869,85.850578 
	C94.902977,84.769928 93.474579,81.273476 95.562256,78.319565 
	C96.492966,77.002686 97.527023,75.643600 97.999306,74.141769 
	C99.010376,70.926575 100.950745,69.711349 104.295624,69.916771 
	C107.591400,70.119179 110.916206,69.849014 114.571205,69.682831 
z"/>
<path fill="#090909" opacity="1.000000" stroke="none" 
	d="
M105.333023,93.025711 
	C101.255447,93.487099 99.347969,91.769028 98.901817,88.187820 
	C106.721062,92.831848 113.820427,93.279137 119.237572,84.043472 
	C117.102715,92.523155 116.285332,93.025665 105.333023,93.025711 
z"/>
<path fill="#090909" opacity="1.000000" stroke="none" 
	d="
M117.856171,76.607414 
	C118.322319,76.383369 118.876701,76.362930 119.419403,76.432976 
	C119.489876,76.442070 119.500122,76.917862 119.538269,77.177475 
	C119.005768,77.064674 118.473274,76.951881 117.856171,76.607414 
z"/>
<path fill="#090909" opacity="1.000000" stroke="none" 
	d="
M121.610199,81.776550 
	C121.468529,82.208038 121.193367,82.471313 120.899780,82.712128 
	C120.887764,82.721977 120.702560,82.520676 120.598053,82.417755 
	C120.889832,82.146599 121.181618,81.875450 121.610199,81.776550 
z"/>
<path fill="#090909" opacity="1.000000" stroke="none" 
	d="
M116.732193,74.349808 
	C116.991776,74.364571 117.133461,74.503090 117.275139,74.641602 
	C117.054855,74.585587 116.834564,74.529572 116.732193,74.349808 
z"/>
<path fill="#090909" opacity="1.000000" stroke="none" 
	d="
M119.989349,79.223312 
	C120.108978,79.403191 120.050804,79.584770 119.992630,79.766357 
	C119.932274,79.585915 119.871918,79.405464 119.989349,79.223312 
z"/>
<path fill="#FFFFFF" opacity="1.000000" stroke="none" 
	d="
M321.593750,108.000465 
	C323.343140,109.331520 324.658447,110.662163 325.973785,111.992805 
	C323.402191,113.375641 320.830627,114.758469 317.304138,116.654785 
	C317.304138,112.868118 317.304138,110.808723 317.304138,108.229378 
	C318.406464,108.163818 319.783081,108.081940 321.593750,108.000465 
z"/>
<path fill="#FFFFFF" opacity="1.000000" stroke="none" 
	d="
M277.973877,121.034454 
	C278.429993,119.271431 278.862152,117.920952 279.463776,116.040962 
	C280.478912,119.124161 281.353058,121.779190 282.343414,124.787102 
	C280.446533,124.876900 279.015320,124.944656 276.772095,125.050858 
	C277.255737,123.571159 277.602844,122.509079 277.973877,121.034454 
z"/>
<path fill="#FFFFFF" opacity="1.000000" stroke="none" 
	d="
M367.201172,113.310791 
	C364.532227,114.263809 362.143433,114.910805 359.291779,115.683151 
	C359.291779,112.709778 359.291779,110.522858 359.291779,108.338669 
	C366.941345,107.620178 367.751160,108.089104 367.201172,113.310791 
z"/>
<path fill="#FFFFFF" opacity="1.000000" stroke="none" 
	d="
M400.801758,124.999130 
	C399.417786,124.999870 398.432861,124.999870 397.178711,124.999870 
	C398.143494,122.230309 399.005157,119.756744 400.218689,116.273132 
	C401.135468,119.525322 401.795746,121.684196 402.297546,123.879303 
	C402.360443,124.154373 401.586823,124.620682 400.801758,124.999130 
z"/>
<path fill="#FFFFFF" opacity="1.000000" stroke="none" 
	d="
M166.458923,163.994034 
	C161.442368,164.592224 163.345230,161.413483 162.967819,158.471085 
	C165.655411,159.259277 167.763489,159.877502 170.948349,160.811523 
	C168.932312,162.383820 167.903320,163.186325 166.458923,163.994034 
z"/>
<path fill="#FFFFFF" opacity="1.000000" stroke="none" 
	d="
M150.358429,152.865509 
	C150.791214,155.624039 151.134933,158.109207 150.892303,160.535767 
	C150.781082,161.647995 149.696594,162.920074 148.696472,163.571899 
	C148.233917,163.873383 146.166183,162.944748 146.110397,162.433670 
	C145.792908,159.524506 145.657669,156.549210 145.993088,153.658203 
	C146.052536,153.145660 148.620316,152.924133 150.358429,152.865509 
z"/>
<path fill="#FFFFFF" opacity="1.000000" stroke="none" 
	d="
M181.013779,155.354156 
	C182.251709,153.953445 183.477722,152.985672 184.703751,152.017883 
	C185.469131,153.415146 186.433212,154.745712 186.932220,156.232376 
	C187.282761,157.276733 187.265823,158.616333 186.936295,159.675842 
	C186.467712,161.182449 185.561478,162.552948 184.842224,163.981598 
	C183.561722,162.578094 181.993805,161.332367 181.105270,159.713699 
	C180.545166,158.693375 181.001495,157.115097 181.013779,155.354156 
z"/>
</svg>