<svg version="1.1" id="Layer_1" xmlns="http://www.w3.org/2000/svg" xmlns:xlink="http://www.w3.org/1999/xlink" x="0px" y="0px"
	 width="100%" viewBox="0 0 512 144" enable-background="new 0 0 512 144" xml:space="preserve">
<path fill="#010200" opacity="1.000000" stroke="none" 
	d="
M513.000000,41.999992 
	C513.000000,76.321053 513.000000,110.642097 513.000000,144.981567 
	C342.406677,144.981567 171.813370,144.981567 1.110026,144.981567 
	C1.110026,97.090752 1.110026,49.181164 1.110026,1.000000 
	C153.354660,1.000000 305.709473,1.000000 458.528015,1.348714 
	C449.661163,8.682608 446.904602,19.958620 441.347565,29.362669 
	C440.057587,31.545620 441.244873,35.706303 442.284424,38.600605 
	C443.234344,41.245426 445.527313,43.407871 446.896545,45.951214 
	C445.901611,47.017593 445.432495,48.264709 444.544525,48.758335 
	C437.632111,52.600918 435.285095,58.618805 435.621185,65.986938 
	C431.465149,61.961460 427.993530,57.584316 423.673187,54.335999 
	C402.856903,38.684914 373.587585,51.082508 369.598999,76.849533 
	C368.946991,76.129257 368.567047,75.488335 368.197632,74.454285 
	C365.910431,68.603790 364.320740,62.691547 361.167572,57.783752 
	C354.610504,47.577774 345.651550,44.768616 333.906158,47.992516 
	C329.785461,49.123577 326.745178,51.176914 325.777069,55.719898 
	C325.356781,57.692223 324.226044,59.513149 323.117279,62.105995 
	C321.302429,60.133598 320.117981,58.821018 318.906464,57.533932 
	C313.111542,51.377495 307.046448,50.351276 299.651428,54.392742 
	C292.315582,58.401844 289.194153,65.156403 287.591736,73.300247 
	C285.185303,84.058983 284.291748,94.514359 287.011108,105.405197 
	C288.928162,113.500816 290.721741,121.272293 296.531738,127.249062 
	C302.993622,133.896408 312.936157,132.990128 317.561371,124.912781 
	C321.302368,118.379646 321.809998,111.449890 317.390839,104.421753 
	C316.551666,103.030998 315.820312,101.959229 315.073914,100.924934 
	C315.058868,100.962410 315.139557,100.959023 315.154358,100.693436 
	C314.948700,100.169914 314.728271,99.911972 314.500671,99.600777 
	C314.493530,99.547523 314.442902,99.452744 314.359314,99.126167 
	C312.186798,93.672112 309.870331,88.619324 308.148071,83.371521 
	C307.633270,81.802811 307.313385,78.683464 310.993347,79.038361 
	C311.000061,79.004204 310.931213,78.994064 311.002625,79.264587 
	C311.380920,79.714371 311.687805,79.893631 311.989563,80.038971 
	C311.984436,80.005043 311.920197,80.029198 311.973083,80.375366 
	C315.602753,86.080597 318.937775,91.627342 322.878448,96.703934 
	C324.398529,98.662163 327.554871,100.921005 329.491608,100.552353 
	C331.510834,100.168007 333.741486,97.033287 334.505432,94.658920 
	C336.573273,88.231834 337.911835,81.570137 339.726410,74.749619 
	C342.679504,72.889610 342.679504,72.889610 345.251770,78.383087 
	C344.234497,86.245224 343.243591,93.648033 342.146484,101.410698 
	C341.998932,102.762917 341.957611,103.755280 341.747009,105.024170 
	C341.714081,106.545135 341.850433,107.789581 341.954956,109.420509 
	C342.745453,115.440269 345.826996,119.440453 350.984100,122.319962 
	C351.768005,122.629562 352.361176,122.697456 353.296692,122.849716 
	C354.103180,122.881721 354.567352,122.829346 355.352112,122.838959 
	C356.241760,122.642998 356.810791,122.385056 357.718506,122.099815 
	C363.130280,119.580528 366.038300,115.492325 367.184937,109.771927 
	C367.502350,109.072838 367.622009,108.561562 367.849579,107.693832 
	C368.033020,106.597931 368.108582,105.858475 368.142883,105.085144 
	C368.101685,105.051254 368.044800,105.141525 368.258759,105.149406 
	C368.472717,105.157288 368.883728,105.037262 369.009460,105.271149 
	C369.405762,105.730309 369.676300,105.955589 369.952271,106.539505 
	C372.984436,114.731750 377.768005,121.286598 385.076721,125.481903 
	C410.232697,139.921783 431.278534,132.099792 441.156799,107.863220 
	C441.828339,106.215561 442.318481,104.251953 442.066833,102.558022 
	C441.908051,101.489151 440.211792,100.648682 438.856384,99.484566 
	C433.530640,99.588432 428.557373,100.001236 423.575500,100.210388 
	C419.688843,100.373566 416.854218,101.835815 415.332581,105.929550 
	C412.196716,110.366882 408.202972,111.292496 403.761078,109.387024 
	C400.174255,107.848351 396.857788,105.679459 393.319031,103.526749 
	C392.923920,103.045761 392.631195,102.828156 392.336243,102.599426 
	C392.333984,102.588310 392.369720,102.586678 392.296295,102.215134 
	C391.906952,100.391373 391.429169,98.952271 391.310181,97.484077 
	C391.090271,94.770973 391.795074,93.315292 395.217468,93.471634 
	C405.464203,93.939720 415.739960,94.305038 425.989227,94.064590 
	C443.010712,93.665253 442.477631,93.933792 439.579285,76.492294 
	C439.501282,76.022835 439.181183,75.593582 438.987610,74.822823 
	C439.006287,73.579681 439.011383,72.659302 439.332275,71.890930 
	C442.515015,74.007431 445.381897,75.971924 448.149048,78.398186 
	C448.032501,80.857475 448.225189,82.882919 447.963196,84.847740 
	C446.746216,93.974388 446.229187,103.310600 443.814514,112.120369 
	C442.209534,117.976044 437.828583,123.070854 434.505280,128.826447 
	C437.151581,132.427612 441.120239,134.489609 446.297974,135.304077 
	C458.657440,137.693817 468.862213,134.951065 474.209808,123.180199 
	C479.955566,110.532845 484.719391,97.438385 489.833160,84.507950 
	C490.086823,83.866478 489.591492,82.928787 489.923950,82.118576 
	C499.502747,81.953583 505.276154,77.466888 506.770721,69.388214 
	C507.693298,64.401321 505.164429,58.927868 500.922058,57.024841 
	C500.384857,56.762466 500.227264,56.513996 500.507751,55.972069 
	C501.127197,54.548161 501.491669,53.301628 501.984283,51.721523 
	C505.741638,48.258629 509.370819,45.129307 513.000000,41.999992 
M106.107986,103.879753 
	C106.107986,103.879753 106.210251,103.844688 106.029724,103.165306 
	C100.799896,94.301895 90.799606,93.334831 84.736641,101.684242 
	C80.383415,108.992897 80.920036,114.654625 86.694366,120.560852 
	C94.422089,128.465134 104.308258,131.633881 114.923592,132.587555 
	C133.568176,134.262604 151.002258,127.967880 154.988495,104.369576 
	C155.561707,100.425140 156.134918,96.480713 156.755936,92.207352 
	C162.086945,99.295425 188.350143,100.084419 196.880783,93.609848 
	C196.880783,97.498322 196.880783,101.215179 196.919571,104.959663 
	C196.919571,104.959663 196.945786,104.919891 196.448318,105.064728 
	C196.385468,105.393394 196.322617,105.722054 195.928925,106.665199 
	C192.934402,108.880264 189.939865,111.095329 186.413010,113.261116 
	C185.949951,113.509598 185.486893,113.758072 184.233215,113.950676 
	C178.963348,113.385864 178.150345,112.236298 177.948547,104.309425 
	C175.741882,100.283043 171.814316,100.330124 167.327591,99.961426 
	C166.877014,100.024223 166.426453,100.087013 165.501144,100.009544 
	C165.501144,100.009544 165.022766,100.136909 164.354752,100.116791 
	C163.570129,100.476891 162.785507,100.836990 161.329788,101.172951 
	C160.445770,102.406265 159.561768,103.639580 158.057159,105.345161 
	C157.764282,108.571671 157.471405,111.798172 157.068176,115.675598 
	C157.372009,116.468178 157.675842,117.260765 157.970184,118.782280 
	C160.244202,125.499176 164.665131,129.804276 172.283691,131.547714 
	C173.177017,131.636627 174.070328,131.725540 175.740829,131.996231 
	C177.063217,132.026337 178.385620,132.056427 180.468170,132.444092 
	C184.045074,132.317642 187.621979,132.191177 191.967438,132.174622 
	C192.990280,132.037613 194.013107,131.900604 195.629562,131.855469 
	C196.142319,131.591461 196.655060,131.327469 197.903748,131.069794 
	C204.527756,128.980316 210.166428,125.902420 211.391113,117.619904 
	C211.498474,117.099823 211.605835,116.579742 211.946075,115.355034 
	C211.980850,114.616234 212.015625,113.877441 212.470322,112.560349 
	C212.580032,111.387337 212.689728,110.214317 212.978912,108.418617 
	C213.314957,107.952682 213.651001,107.486755 214.089340,107.697456 
	C214.367065,108.537117 214.644791,109.376770 214.908905,110.960297 
	C216.096924,116.957077 220.058655,120.901207 224.877243,124.093445 
	C234.762390,130.642197 245.729431,133.197906 257.521698,132.984756 
	C266.081726,132.830063 272.990997,129.459564 276.977325,122.063416 
	C279.829742,116.771103 281.132263,110.643433 283.473297,104.539352 
	C283.486420,104.061584 283.499542,103.583809 283.689880,102.461411 
	C283.558716,102.041374 283.427551,101.621346 283.634552,100.295029 
	C283.023468,91.201591 282.412384,82.108154 281.874207,72.269730 
	C278.939758,66.377327 276.549286,60.110886 272.856262,54.740101 
	C270.811066,51.765797 266.726624,48.713810 263.320465,48.411568 
	C248.618317,47.106953 235.094879,51.261513 223.181061,60.028378 
	C218.030777,63.818253 217.722336,69.085846 220.021225,75.479538 
	C221.366226,79.415939 224.356384,80.770645 228.258179,80.962807 
	C229.651627,81.031433 231.016739,81.675514 231.674194,82.165138 
	C223.052567,86.238266 217.691040,93.292725 214.308502,102.156967 
	C213.884232,102.014160 213.459961,101.871353 213.035690,101.728546 
	C213.035690,93.450531 213.035690,85.172523 213.163239,76.003967 
	C211.869095,68.170250 210.900177,60.263798 209.170013,52.527592 
	C207.953079,47.086205 199.539230,44.475529 196.121872,48.631504 
	C193.565201,51.740761 191.108078,51.061356 188.341049,50.764359 
	C185.548462,50.464619 182.815170,49.411793 180.029037,49.286503 
	C165.387634,48.628090 163.323517,46.828335 155.999008,62.456760 
	C155.860428,62.752434 155.708237,63.041740 155.770233,62.917503 
	C153.120300,58.485462 150.779114,53.509670 147.468292,49.295692 
	C143.147766,43.796570 138.221878,43.939644 130.704956,48.783581 
	C124.368439,52.866863 123.752205,54.903294 126.709030,61.988724 
	C128.902069,67.243904 127.712471,70.370811 122.103828,71.485634 
	C118.131187,72.275276 113.787292,72.248665 109.784790,71.562202 
	C105.108162,70.760109 103.761414,67.733727 105.005859,63.213840 
	C105.533867,61.296104 106.183098,59.407806 106.627655,57.471783 
	C107.905960,51.904881 104.174530,46.720810 98.462791,47.187366 
	C94.705879,47.494244 90.549683,48.774181 87.562714,50.967300 
	C84.680008,53.083858 83.067940,56.930977 80.943382,59.952854 
	C78.468300,53.928017 72.946724,50.263000 66.419449,49.186611 
	C56.648438,47.575317 46.616848,45.842041 36.827160,46.412003 
	C18.296864,47.490841 11.567904,56.094788 12.939341,74.911339 
	C13.386841,85.276077 13.834342,95.640816 14.160399,106.832062 
	C15.107258,112.383789 15.908168,117.965393 17.036879,123.479904 
	C18.543150,130.839035 19.767567,132.110489 27.135418,132.717834 
	C30.878141,133.026382 34.771515,132.588638 38.485126,131.892548 
	C43.021969,131.042160 44.746578,127.913948 43.777115,123.373009 
	C43.465656,121.914124 43.159405,120.454094 42.841427,118.996628 
	C40.617508,108.803169 41.028664,108.279305 51.520016,108.009468 
	C53.017174,107.970963 54.580952,108.239189 56.000668,107.896439 
	C60.455429,106.820976 64.856110,105.521477 69.912552,104.078667 
	C79.348053,97.876419 81.860886,88.484322 82.625374,78.176109 
	C85.966667,86.678978 90.349083,94.186951 100.748672,94.862190 
	C105.000801,95.138283 109.313538,94.804222 113.577461,94.473686 
	C117.019371,94.206863 120.423279,93.191833 123.855301,93.129608 
	C127.141624,93.070023 129.807541,94.362717 128.710464,98.623955 
	C128.710464,98.623955 128.716995,98.662964 128.161804,98.876839 
	C127.987152,99.229172 127.812508,99.581512 127.098740,100.303848 
	C121.500626,105.258263 115.244820,107.546417 107.491531,104.606155 
	C107.029243,104.328003 106.566956,104.049850 106.107986,103.879753 
M323.982025,112.926010 
	C323.683655,115.641396 323.385315,118.356781 323.005737,121.811111 
	C326.344421,121.481636 329.008301,121.218758 331.572510,120.965714 
	C331.269989,115.324158 331.005829,110.398476 330.685120,104.417717 
	C327.939514,107.648567 326.028015,109.897858 323.982025,112.926010 
M67.409508,131.803558 
	C69.171478,130.383102 70.933449,128.962662 72.764435,127.486572 
	C71.918045,125.796219 71.223953,124.410019 70.515915,122.995972 
	C63.522903,127.450264 60.775814,132.112839 61.759327,137.682465 
	C63.498932,135.824997 65.170288,134.040375 67.409508,131.803558 
z"/>
<path fill="#F6D828" opacity="1.000000" stroke="none" 
	d="
M513.000000,41.562492 
	C509.370819,45.129307 505.741638,48.258629 501.675415,51.746124 
	C500.463959,52.396271 499.689545,52.688244 498.675079,52.724861 
	C500.463074,46.879459 498.667877,42.372993 494.528107,38.495499 
	C494.207306,38.195019 494.161102,37.601383 494.301147,36.988922 
	C500.189545,34.441875 502.054382,29.045538 502.647156,24.105837 
	C503.082245,20.479971 501.183655,15.830050 498.807556,12.844159 
	C496.875366,10.416093 492.925293,8.337806 488.812683,10.977637 
	C488.405365,10.884670 488.226166,10.861328 488.114807,10.761929 
	C488.006989,10.665723 487.876495,10.402991 487.913788,10.363915 
	C489.264801,8.947269 490.634277,7.548250 492.429108,6.078160 
	C501.872711,5.902094 504.882294,8.217937 507.185120,17.175213 
	C508.527374,22.396013 509.711243,27.658279 511.115753,32.861549 
	C511.337769,33.683979 512.352051,34.292545 513.000000,34.999992 
	C513.000000,37.041668 513.000000,39.083332 513.000000,41.562492 
z"/>
<path fill="#E7C707" opacity="1.000000" stroke="none" 
	d="
M447.228363,45.782906 
	C445.527313,43.407871 443.234344,41.245426 442.284424,38.600605 
	C441.244873,35.706303 440.057587,31.545620 441.347565,29.362669 
	C446.904602,19.958620 449.661163,8.682608 458.995850,1.348714 
	C460.714355,1.000000 462.428711,1.000000 464.596069,1.292603 
	C465.482910,1.965017 465.916779,2.344828 465.972229,2.814599 
	C464.163422,4.278822 462.733032,5.653084 461.099792,7.327032 
	C455.346619,10.462338 452.183228,16.188215 453.523193,23.116833 
	C452.823669,23.773993 452.417450,24.383953 452.003265,25.424877 
	C451.138947,29.316387 450.170746,32.755249 449.493469,36.250477 
	C449.285889,37.321507 449.875824,38.547066 450.100525,39.701859 
	C450.706726,39.132664 451.312927,38.563469 452.226074,37.834141 
	C453.034851,36.455891 453.536713,35.237778 454.377899,33.947498 
	C455.144287,32.890816 455.571320,31.906296 456.325989,31.065880 
	C457.770813,31.516771 458.887939,31.823563 459.966400,32.470974 
	C452.239349,43.754089 452.171417,45.432144 459.068390,54.326168 
	C459.127350,55.039608 459.187225,55.445301 458.875122,55.828506 
	C457.334259,55.410919 456.165375,55.015820 454.928741,54.446793 
	C454.694855,54.064674 454.481964,53.930439 454.153687,53.530125 
	C453.712463,52.361183 453.339905,51.532276 452.775818,50.450829 
	C450.798950,48.726501 449.013641,47.254707 447.228363,45.782906 
z"/>
<path fill="#050401" opacity="1.000000" stroke="none" 
	d="
M466.350677,2.724628 
	C465.916779,2.344828 465.482910,1.965017 465.024536,1.292603 
	C480.914154,1.000000 496.828278,1.000000 513.000000,1.000000 
	C513.000000,12.019558 513.000000,23.041121 513.000000,34.531334 
	C512.352051,34.292545 511.337769,33.683979 511.115753,32.861549 
	C509.711243,27.658279 508.527374,22.396013 507.185120,17.175213 
	C504.882294,8.217937 501.872711,5.902094 492.054016,6.013565 
	C487.842316,7.058555 484.433594,8.099497 480.648560,9.067700 
	C478.074371,8.053103 475.861664,7.144206 473.682678,6.160648 
	C471.222870,5.050325 468.793365,3.872872 466.350677,2.724628 
z"/>
<path fill="#0ADD1C" opacity="1.000000" stroke="none" 
	d="
M13.085009,73.975731 
	C11.567904,56.094788 18.296864,47.490841 36.827160,46.412003 
	C46.616848,45.842041 56.648438,47.575317 66.419449,49.186611 
	C72.946724,50.263000 78.468300,53.928017 80.943382,59.952854 
	C83.067940,56.930977 84.680008,53.083858 87.562714,50.967300 
	C90.549683,48.774181 94.705879,47.494244 98.462791,47.187366 
	C104.174530,46.720810 107.905960,51.904881 106.627655,57.471783 
	C106.183098,59.407806 105.533867,61.296104 105.005859,63.213840 
	C103.761414,67.733727 105.108162,70.760109 109.784790,71.562202 
	C113.787292,72.248665 118.131187,72.275276 122.103828,71.485634 
	C127.712471,70.370811 128.902069,67.243904 126.709030,61.988724 
	C123.752205,54.903294 124.368439,52.866863 130.704956,48.783581 
	C138.221878,43.939644 143.147766,43.796570 147.468292,49.295692 
	C150.779114,53.509670 153.120300,58.485462 155.770233,62.917503 
	C155.708237,63.041740 155.860428,62.752434 155.999008,62.456760 
	C163.323517,46.828335 165.387634,48.628090 180.029037,49.286503 
	C182.815170,49.411793 185.548462,50.464619 188.341049,50.764359 
	C191.108078,51.061356 193.565201,51.740761 196.121872,48.631504 
	C199.539230,44.475529 207.953079,47.086205 209.170013,52.527592 
	C210.900177,60.263798 211.869095,68.170250 212.724243,76.452011 
	C210.189865,76.307060 208.094482,75.714066 205.642578,75.245438 
	C203.157791,76.210999 201.029526,77.052177 198.952911,77.942123 
	C199.004547,77.990891 198.907730,77.885139 198.548492,77.892708 
	C196.173416,76.230103 194.157562,74.559921 192.083633,72.501808 
	C191.102219,65.093872 189.449158,63.059586 184.591782,62.965771 
	C178.160187,62.841557 176.078186,64.710411 174.867523,71.608719 
	C174.727905,72.404366 174.338989,73.156258 173.755859,74.079369 
	C171.693604,76.074516 169.941147,77.918739 168.117386,79.837997 
	C166.259216,78.137825 164.629623,76.646805 162.719818,74.959915 
	C161.180801,75.092087 159.921997,75.420128 158.345520,75.848061 
	C155.948318,77.238640 153.868820,78.529320 152.112778,79.619240 
	C150.224564,77.892342 148.612549,76.418037 146.620819,74.898056 
	C144.503220,75.597626 142.765350,76.342880 140.695007,77.199692 
	C138.448349,76.358315 136.534164,75.405365 133.719330,74.004059 
	C133.586014,74.099625 132.283951,75.033051 130.670975,75.940460 
	C129.946136,75.873199 129.532196,75.831963 128.887970,75.566162 
	C127.471397,75.904640 126.285126,76.467682 124.870880,77.132645 
	C124.353951,77.419533 124.137268,77.667618 123.629135,77.983749 
	C121.909897,77.203194 120.602760,76.310715 119.182388,75.668785 
	C118.188416,75.219566 117.039719,75.112709 115.610748,74.929443 
	C113.507408,75.676674 111.753433,76.347397 109.646194,76.992538 
	C108.197205,77.337326 107.101463,77.707695 105.717834,77.928741 
	C104.328362,77.118797 103.226784,76.458183 101.947464,75.530899 
	C99.509407,72.253380 97.604477,73.058632 95.600052,75.887848 
	C94.885864,76.329201 94.452667,76.695351 93.701431,77.167068 
	C91.925056,77.174385 90.466736,77.076126 88.836090,76.674271 
	C86.390884,74.174576 83.955544,73.012863 80.582710,75.137451 
	C77.124176,74.960419 72.639931,73.469688 71.300766,74.907745 
	C66.559998,79.998604 63.756149,78.888184 60.979774,73.482414 
	C60.851852,73.233345 60.432953,73.133720 60.041985,72.628983 
	C58.127541,66.830429 51.803226,65.366974 46.736557,66.084167 
	C41.560474,66.816864 38.687920,70.735817 37.402081,77.827652 
	C36.188564,76.584328 35.227139,75.518066 34.177746,74.354256 
	C31.951262,75.847237 29.854471,77.253258 26.740089,79.341629 
	C27.395830,76.755096 27.736710,75.410515 28.224476,73.989166 
	C28.212856,73.902580 28.054354,73.892776 27.523842,73.880936 
	C25.668955,74.500214 23.936094,74.818428 22.748598,75.797859 
	C18.672033,79.160156 15.689357,77.839874 13.085009,73.975731 
z"/>
<path fill="#69ED29" opacity="1.000000" stroke="none" 
	d="
M102.125206,75.797577 
	C103.226784,76.458183 104.328362,77.118797 105.785660,78.250992 
	C108.667847,80.962204 109.488388,79.340416 109.999458,77.018127 
	C111.753433,76.347397 113.507408,75.676674 115.660423,75.290588 
	C117.127129,76.960106 118.019936,78.539963 119.300095,79.687843 
	C121.707390,81.846390 123.369942,81.139465 123.992874,77.978836 
	C124.137268,77.667618 124.353951,77.419533 125.238525,77.121674 
	C126.928848,76.602760 128.023544,76.196747 129.118256,75.790726 
	C129.532196,75.831963 129.946136,75.873199 130.896378,76.198792 
	C132.902267,77.432693 134.474838,78.256271 135.821091,79.356720 
	C139.143097,82.072166 140.715012,81.109467 141.027466,77.088135 
	C142.765350,76.342880 144.503220,75.597626 146.620773,75.312523 
	C147.087891,76.903931 146.763962,78.680824 147.338837,79.047119 
	C149.168381,80.212860 152.036041,82.093506 153.213211,81.425552 
	C155.324860,80.227348 159.893478,80.397903 158.663208,75.748169 
	C159.921997,75.420128 161.180801,75.092087 162.719803,75.351868 
	C163.930069,77.869576 164.586502,81.156258 165.854218,81.411942 
	C167.765289,81.797356 170.190475,80.230301 172.220703,79.158836 
	C173.140091,78.673637 173.635605,77.385284 174.558792,76.740898 
	C179.831589,83.661484 187.387589,83.028152 191.968719,75.911308 
	C192.777786,76.996300 193.307816,77.844460 194.004807,78.520515 
	C194.865265,79.355118 195.864548,80.046631 196.803833,80.799980 
	C197.505127,79.828362 198.206421,78.856750 198.907730,77.885139 
	C198.907730,77.885139 199.004547,77.990891 199.334717,78.022385 
	C202.692352,79.054779 205.805847,80.241447 205.999084,75.121063 
	C208.094482,75.714066 210.189865,76.307060 212.660477,76.897278 
	C213.035690,85.172523 213.035690,93.450531 213.035690,101.728546 
	C213.459961,101.871353 213.884232,102.014160 214.308502,102.156967 
	C217.691040,93.292725 223.052567,86.238266 232.147964,82.048149 
	C232.773239,81.837440 232.893417,81.713379 233.380005,81.392471 
	C240.665573,79.061211 246.759293,81.423012 252.925232,84.249222 
	C260.345245,87.650246 263.553192,85.134964 262.874664,76.733414 
	C269.313507,69.408798 270.112457,79.080162 273.367035,79.970016 
	C276.367157,77.495956 279.084229,75.255333 281.801300,73.014709 
	C282.412384,82.108154 283.023468,91.201591 283.097656,100.698456 
	C279.626770,101.752724 276.692780,102.403572 273.343658,103.146523 
	C273.215790,102.952118 272.766541,102.300880 272.349762,101.629486 
	C271.223236,99.814751 270.110565,97.991440 268.992371,96.171539 
	C267.328949,97.579704 265.660522,98.982056 264.003265,100.397400 
	C261.521667,102.516731 260.564178,106.737076 255.791321,105.951225 
	C248.216324,99.064049 243.871155,99.161186 239.481995,105.862091 
	C236.718445,99.084717 236.733475,99.105347 231.203568,103.136246 
	C228.038467,105.443398 224.949890,106.092178 222.040710,102.607368 
	C221.236542,101.644104 220.113480,100.947075 219.034149,100.041862 
	C217.533585,101.265495 216.268478,102.297127 214.772797,103.401520 
	C214.281036,103.692688 214.109756,103.967285 213.646393,104.221939 
	C212.035339,103.497009 210.443741,103.141472 209.640366,102.148331 
	C206.272522,97.984947 205.296234,98.000877 201.525909,102.088814 
	C200.341873,103.372589 198.449142,104.002724 196.880783,104.932037 
	C196.880783,101.215179 196.880783,97.498322 196.880783,93.609848 
	C188.350143,100.084419 162.086945,99.295425 156.755936,92.207352 
	C156.134918,96.480713 155.561707,100.425140 154.507034,104.734283 
	C153.542496,104.978256 152.798706,105.015930 152.614868,104.713379 
	C148.989288,98.746262 145.189011,100.457710 140.796417,103.980278 
	C138.322983,105.963799 135.415222,105.287987 134.588913,101.873451 
	C133.721268,98.288017 131.418930,98.295410 128.687347,98.590927 
	C129.807541,94.362717 127.141624,93.070023 123.855301,93.129608 
	C120.423279,93.191833 117.019371,94.206863 113.577461,94.473686 
	C109.313538,94.804222 105.000801,95.138283 100.748672,94.862190 
	C90.349083,94.186951 85.966667,86.678978 82.052185,77.866211 
	C81.319160,76.759888 81.159317,75.963455 80.999466,75.167023 
	C83.955544,73.012863 86.390884,74.174576 88.840797,77.040916 
	C89.829391,78.681473 90.640961,79.651779 91.452530,80.622086 
	C92.308174,79.435226 93.163826,78.248360 94.019470,77.061501 
	C94.452667,76.695351 94.885864,76.329201 95.862000,76.179855 
	C98.311699,76.196976 100.218452,75.997276 102.125206,75.797577 
z"/>
<path fill="#69EE2A" opacity="1.000000" stroke="none" 
	d="
M368.187134,74.847412 
	C368.567047,75.488335 368.946991,76.129257 369.667786,77.128006 
	C372.746033,78.270424 375.483368,79.055023 379.395020,80.176216 
	C378.350494,80.528549 378.701141,80.488419 378.950653,80.308243 
	C379.348694,80.020844 379.785400,79.701347 380.022461,79.289833 
	C382.727722,74.594002 385.789368,73.341568 390.312866,77.435524 
	C391.195160,78.234039 393.885071,77.035316 396.108948,76.960754 
	C403.701569,80.151970 410.892059,80.326111 418.318848,77.035004 
	C419.991882,76.898048 421.384552,76.625862 422.777191,76.353683 
	C424.928131,76.910614 427.786591,77.783241 429.319061,76.728783 
	C432.501770,74.538902 435.510315,74.183929 438.973999,75.145584 
	C439.181183,75.593582 439.501282,76.022835 439.579285,76.492294 
	C442.477631,93.933792 443.010712,93.665253 425.989227,94.064590 
	C415.739960,94.305038 405.464203,93.939720 395.217468,93.471634 
	C391.795074,93.315292 391.090271,94.770973 391.310181,97.484077 
	C391.429169,98.952271 391.906952,100.391373 391.946594,102.171486 
	C389.795135,100.177193 387.829742,99.003479 385.069916,101.412666 
	C382.143494,103.967293 379.521759,103.850853 377.432953,100.174675 
	C376.929688,99.288895 375.837250,98.737846 374.579010,97.658028 
	C372.250214,100.325119 370.147522,102.733322 368.044800,105.141525 
	C368.044800,105.141525 368.101685,105.051254 367.711243,104.976425 
	C364.609833,104.173668 361.215240,104.213112 359.342285,102.544548 
	C356.250305,99.790016 353.481506,99.356598 350.603577,101.776337 
	C347.321991,104.535484 344.805695,103.938377 342.252686,101.050842 
	C343.243591,93.648033 344.234497,86.245224 345.636597,78.448486 
	C347.595612,77.662216 349.442993,77.677864 350.635986,76.802109 
	C354.436096,74.012611 357.262054,75.050461 360.011719,78.327606 
	C361.181305,79.721558 362.753204,80.777939 364.238342,82.071388 
	C365.793488,79.226418 366.990326,77.036919 368.187134,74.847412 
z"/>
<path fill="#0ADD1C" opacity="1.000000" stroke="none" 
	d="
M368.197662,74.454292 
	C366.990326,77.036919 365.793488,79.226418 364.238342,82.071388 
	C362.753204,80.777939 361.181305,79.721558 360.011719,78.327606 
	C357.262054,75.050461 354.436096,74.012611 350.635986,76.802109 
	C349.442993,77.677864 347.595612,77.662216 345.662964,77.989166 
	C342.679504,72.889610 342.679504,72.889610 339.335815,74.753654 
	C333.941162,75.759575 329.440216,79.080215 324.148224,75.366142 
	C321.931152,73.810143 318.023560,74.368309 316.887695,78.111450 
	C315.934326,81.253349 313.995026,80.500946 311.920197,80.029198 
	C311.920197,80.029198 311.984436,80.005043 311.895508,79.787277 
	C311.514801,79.377693 311.223022,79.185875 310.931213,78.994064 
	C310.931213,78.994064 311.000061,79.004204 310.978821,78.679466 
	C309.081207,76.946007 307.204803,75.537292 305.328430,74.128571 
	C304.467102,75.706955 303.536285,77.251953 302.758759,78.870613 
	C301.101532,82.320839 299.148102,81.260727 296.871613,79.500153 
	C293.927429,77.223259 290.829041,75.145813 287.797058,72.982483 
	C289.194153,65.156403 292.315582,58.401844 299.651428,54.392742 
	C307.046448,50.351276 313.111542,51.377495 318.906464,57.533932 
	C320.117981,58.821018 321.302429,60.133598 323.117279,62.105995 
	C324.226044,59.513149 325.356781,57.692223 325.777069,55.719898 
	C326.745178,51.176914 329.785461,49.123577 333.906158,47.992516 
	C345.651550,44.768616 354.610504,47.577774 361.167572,57.783752 
	C364.320740,62.691547 365.910431,68.603790 368.197662,74.454292 
z"/>
<path fill="#BEFB20" opacity="1.000000" stroke="none" 
	d="
M128.698914,98.607437 
	C131.418930,98.295410 133.721268,98.288017 134.588913,101.873451 
	C135.415222,105.287987 138.322983,105.963799 140.796417,103.980278 
	C145.189011,100.457710 148.989288,98.746262 152.614868,104.713379 
	C152.798706,105.015930 153.542496,104.978256 154.381470,105.147057 
	C151.002258,127.967880 133.568176,134.262604 114.923592,132.587555 
	C104.308258,131.633881 94.422089,128.465134 86.694366,120.560852 
	C80.920036,114.654625 80.383415,108.992897 85.362953,101.392174 
	C87.929337,101.850342 89.853058,102.647400 91.815750,103.332870 
	C92.954582,103.730606 94.762352,104.590942 95.233124,104.146278 
	C98.903687,100.679344 102.492905,101.541771 106.210251,103.844688 
	C106.210251,103.844688 106.107986,103.879753 106.210220,104.100372 
	C106.812172,104.567818 107.311890,104.814644 107.811615,105.061462 
	C115.244820,107.546417 121.500626,105.258263 127.664673,100.022156 
	C128.392731,99.381294 128.554855,99.022125 128.716980,98.662964 
	C128.716995,98.662964 128.710464,98.623955 128.698914,98.607437 
z"/>
<path fill="#BEFB20" opacity="1.000000" stroke="none" 
	d="
M215.003372,103.328758 
	C216.268478,102.297127 217.533585,101.265495 219.034149,100.041862 
	C220.113480,100.947075 221.236542,101.644104 222.040710,102.607368 
	C224.949890,106.092178 228.038467,105.443398 231.203568,103.136246 
	C236.733475,99.105347 236.718445,99.084717 239.570709,106.209702 
	C241.323990,111.594879 245.503662,112.672768 249.513947,113.414467 
	C251.742294,113.826599 254.730591,113.608490 256.374939,112.357796 
	C257.318665,111.639961 256.259277,108.288536 256.101685,106.122704 
	C260.564178,106.737076 261.521667,102.516731 264.003265,100.397400 
	C265.660522,98.982056 267.328949,97.579704 268.992371,96.171539 
	C270.110565,97.991440 271.223236,99.814751 272.349762,101.629486 
	C272.766541,102.300880 273.215790,102.952118 273.343658,103.146523 
	C276.692780,102.403572 279.626770,101.752724 282.928528,101.151596 
	C283.427551,101.621346 283.558716,102.041374 283.437561,102.965546 
	C283.165558,103.942612 283.145905,104.415543 283.126282,104.888489 
	C281.132263,110.643433 279.829742,116.771103 276.977325,122.063416 
	C272.990997,129.459564 266.081726,132.830063 257.521698,132.984756 
	C245.729431,133.197906 234.762390,130.642197 224.877243,124.093445 
	C220.058655,120.901207 216.096924,116.957077 214.936676,110.147362 
	C214.977432,107.332542 214.990402,105.330650 215.003372,103.328758 
z"/>
<path fill="#BEFB20" opacity="1.000000" stroke="none" 
	d="
M368.258759,105.149399 
	C370.147522,102.733322 372.250214,100.325119 374.579010,97.658028 
	C375.837250,98.737846 376.929688,99.288895 377.432953,100.174675 
	C379.521759,103.850853 382.143494,103.967293 385.069916,101.412666 
	C387.829742,99.003479 389.795135,100.177193 392.020020,102.543030 
	C392.369720,102.586678 392.333984,102.588310 392.367920,102.905746 
	C392.741730,103.412178 393.081543,103.601166 393.421387,103.790146 
	C396.857788,105.679459 400.174255,107.848351 403.761078,109.387024 
	C408.202972,111.292496 412.196716,110.366882 415.739075,105.976685 
	C417.863190,105.493912 419.546021,105.555565 420.733398,104.818756 
	C424.582642,102.430161 428.399994,101.747093 432.966095,102.681641 
	C434.767303,103.050301 437.109375,100.776390 439.205170,99.705765 
	C440.211792,100.648682 441.908051,101.489151 442.066833,102.558022 
	C442.318481,104.251953 441.828339,106.215561 441.156799,107.863220 
	C431.278534,132.099792 410.232697,139.921783 385.076721,125.481903 
	C377.768005,121.286598 372.984436,114.731750 369.845795,106.290161 
	C369.450531,105.467209 369.167114,105.252235 368.883728,105.037262 
	C368.883728,105.037262 368.472717,105.157288 368.258759,105.149399 
z"/>
<path fill="#69EE2A" opacity="1.000000" stroke="none" 
	d="
M80.582710,75.137451 
	C81.159317,75.963455 81.319160,76.759888 81.710571,77.764061 
	C81.860886,88.484322 79.348053,97.876419 69.401527,103.894897 
	C68.007393,102.566208 67.124283,101.421295 66.227631,100.258835 
	C65.536568,100.573624 65.002930,100.673004 64.676971,100.987579 
	C61.676441,103.883308 58.746002,106.037682 55.227879,101.512184 
	C54.812519,100.977898 53.099911,101.340744 52.008385,101.463356 
	C47.976715,101.916199 43.958843,102.502899 39.920555,102.873238 
	C39.351608,102.925415 38.287327,102.158783 38.146820,101.597343 
	C36.601982,95.424461 33.792370,98.895973 30.987019,100.453018 
	C29.243748,101.420570 26.335497,102.991638 25.422270,102.312431 
	C19.614109,97.992699 17.201145,102.490952 14.281842,106.005554 
	C13.834342,95.640816 13.386841,85.276077 13.012175,74.443535 
	C15.689357,77.839874 18.672033,79.160156 22.748598,75.797859 
	C23.936094,74.818428 25.668955,74.500214 27.567860,73.928085 
	C27.983891,73.977272 28.077589,74.065933 28.077591,74.065933 
	C27.736710,75.410515 27.395830,76.755096 26.740089,79.341629 
	C29.854471,77.253258 31.951262,75.847237 34.177746,74.354256 
	C35.227139,75.518066 36.188564,76.584328 37.450062,78.211227 
	C39.218262,84.378128 43.298649,87.893082 48.487511,88.021355 
	C53.207134,88.138016 57.386806,85.015076 59.022152,79.784012 
	C59.702984,77.606201 59.791641,75.243256 60.149574,72.964493 
	C60.432953,73.133720 60.851852,73.233345 60.979774,73.482414 
	C63.756149,78.888184 66.559998,79.998604 71.300766,74.907745 
	C72.639931,73.469688 77.124176,74.960419 80.582710,75.137451 
z"/>
<path fill="#0ADD1C" opacity="1.000000" stroke="none" 
	d="
M395.741211,76.757812 
	C393.885071,77.035316 391.195160,78.234039 390.312866,77.435524 
	C385.789368,73.341568 382.727722,74.594002 380.022461,79.289833 
	C379.785400,79.701347 379.348694,80.020844 378.950653,80.308243 
	C378.701141,80.488419 378.350494,80.528549 379.395020,80.176216 
	C375.483368,79.055023 372.746033,78.270424 369.939880,77.207359 
	C373.587585,51.082508 402.856903,38.684914 423.673187,54.335999 
	C427.993530,57.584316 431.465149,61.961460 435.820160,66.248085 
	C437.213715,68.364845 438.115082,70.051888 439.016449,71.738922 
	C439.011383,72.659302 439.006287,73.579681 438.987610,74.822823 
	C435.510315,74.183929 432.501770,74.538902 429.319061,76.728783 
	C427.786591,77.783241 424.928131,76.910614 422.777191,76.353683 
	C421.384552,76.625862 419.991882,76.898048 418.328308,76.672516 
	C416.123657,71.718040 409.551514,67.584572 405.082581,68.014465 
	C400.104126,68.493370 395.655396,72.657310 395.741211,76.757812 
z"/>
<path fill="#09DE1C" opacity="1.000000" stroke="none" 
	d="
M281.837769,72.642220 
	C279.084229,75.255333 276.367157,77.495956 273.367035,79.970016 
	C270.112457,79.080162 269.313507,69.408798 262.651245,76.520813 
	C260.983612,75.026260 259.885284,73.339737 258.527374,71.897690 
	C254.065186,67.158966 251.464279,66.818680 245.910675,70.202873 
	C243.936035,71.406151 242.088943,72.818741 239.921112,74.199089 
	C239.439346,74.530991 239.220093,74.799583 239.013519,75.035141 
	C239.026184,75.002106 239.092041,75.027977 238.693909,74.992386 
	C232.157837,77.282661 226.028549,78.976089 219.980682,74.706711 
	C217.722336,69.085846 218.030777,63.818253 223.181061,60.028378 
	C235.094879,51.261513 248.618317,47.106953 263.320465,48.411568 
	C266.726624,48.713810 270.811066,51.765797 272.856262,54.740101 
	C276.549286,60.110886 278.939758,66.377327 281.837769,72.642220 
z"/>
<path fill="#BEFB20" opacity="1.000000" stroke="none" 
	d="
M196.900177,104.945847 
	C198.449142,104.002724 200.341873,103.372589 201.525909,102.088814 
	C205.296234,98.000877 206.272522,97.984947 209.640366,102.148331 
	C210.443741,103.141472 212.035339,103.497009 213.636169,104.557007 
	C214.000961,105.652412 213.993988,106.336617 213.987030,107.020828 
	C213.651001,107.486755 213.314957,107.952682 212.669189,109.008240 
	C212.256424,110.778130 212.153412,111.958382 212.050400,113.138641 
	C212.015625,113.877441 211.980850,114.616234 211.650543,115.906731 
	C211.238327,116.975410 211.121628,117.492393 211.004944,118.009384 
	C210.166428,125.902420 204.527756,128.980316 197.243057,131.065155 
	C196.066895,131.294861 195.551422,131.529236 195.035950,131.763596 
	C194.013107,131.900604 192.990280,132.037613 191.105743,132.101044 
	C186.732040,132.047150 183.220032,132.066833 179.708008,132.086517 
	C178.385620,132.056427 177.063217,132.026337 175.094177,131.687378 
	C173.559616,131.278625 172.671707,131.178696 171.783813,131.078766 
	C164.665131,129.804276 160.244202,125.499176 157.978516,118.090225 
	C157.717407,116.607002 157.447968,115.815842 157.178528,115.024681 
	C157.471405,111.798172 157.764282,108.571671 158.732086,105.108704 
	C160.271637,103.647194 161.136261,102.422150 162.000885,101.197098 
	C162.785507,100.836990 163.570129,100.476891 164.781403,100.258606 
	C165.208069,100.400429 165.641235,100.474442 165.641235,100.474442 
	C165.641235,100.474442 165.975876,100.149811 165.975876,100.149811 
	C166.426453,100.087013 166.877014,100.024223 167.845337,100.329849 
	C170.018356,105.521545 174.075912,105.038155 177.920639,105.024895 
	C178.150345,112.236298 178.963348,113.385864 184.892639,113.962646 
	C186.016479,113.753204 186.480911,113.531792 186.945328,113.310394 
	C189.939865,111.095329 192.934402,108.880264 196.314240,106.243538 
	C196.988266,105.577606 197.070343,105.276947 196.945786,104.919891 
	C196.945786,104.919891 196.919571,104.959663 196.900177,104.945847 
z"/>
<path fill="#A9900D" opacity="1.000000" stroke="none" 
	d="
M445.947693,135.078964 
	C441.120239,134.489609 437.151581,132.427612 434.505280,128.826447 
	C437.828583,123.070854 442.209534,117.976044 443.814514,112.120369 
	C446.229187,103.310600 446.746216,93.974388 447.963196,84.847740 
	C448.225189,82.882919 448.032501,80.857475 448.535217,78.377357 
	C450.310577,77.892723 451.599976,77.890678 452.922913,78.267242 
	C455.679047,86.028603 458.066864,87.871109 465.307251,88.261856 
	C469.710510,88.390671 473.837280,88.220345 477.915558,88.416306 
	C476.577789,92.357651 475.683441,96.140579 473.930115,99.471344 
	C466.792755,113.030151 463.441101,129.643402 445.947693,135.078964 
z"/>
<path fill="#BDFA20" opacity="1.000000" stroke="none" 
	d="
M14.221121,106.418808 
	C17.201145,102.490952 19.614109,97.992699 25.422270,102.312431 
	C26.335497,102.991638 29.243748,101.420570 30.987019,100.453018 
	C33.792370,98.895973 36.601982,95.424461 38.146820,101.597343 
	C38.287327,102.158783 39.351608,102.925415 39.920555,102.873238 
	C43.958843,102.502899 47.976715,101.916199 52.008385,101.463356 
	C53.099911,101.340744 54.812519,100.977898 55.227879,101.512184 
	C58.746002,106.037682 61.676441,103.883308 64.676971,100.987579 
	C65.002930,100.673004 65.536568,100.573624 66.227631,100.258835 
	C67.124283,101.421295 68.007393,102.566208 69.084122,104.009933 
	C64.856110,105.521477 60.455429,106.820976 56.000668,107.896439 
	C54.580952,108.239189 53.017174,107.970963 51.520016,108.009468 
	C41.028664,108.279305 40.617508,108.803169 42.841427,118.996628 
	C43.159405,120.454094 43.465656,121.914124 43.777115,123.373009 
	C44.746578,127.913948 43.021969,131.042160 38.485126,131.892548 
	C34.771515,132.588638 30.878141,133.026382 27.135418,132.717834 
	C19.767567,132.110489 18.543150,130.839035 17.036879,123.479904 
	C15.908168,117.965393 15.107258,112.383789 14.221121,106.418808 
z"/>
<path fill="#BEFB20" opacity="1.000000" stroke="none" 
	d="
M317.498657,104.740738 
	C321.809998,111.449890 321.302368,118.379646 317.561371,124.912781 
	C312.936157,132.990128 302.993622,133.896408 296.531738,127.249062 
	C290.721741,121.272293 288.928162,113.500816 287.390198,105.402802 
	C289.992584,103.848740 292.185913,102.692467 293.834900,101.823174 
	C296.153931,102.839180 298.501312,104.868370 300.287079,104.457375 
	C305.132935,103.342110 309.740723,101.192345 314.442902,99.452744 
	C314.442902,99.452744 314.493530,99.547523 314.409241,99.881271 
	C314.596497,100.463028 314.868042,100.711021 315.139557,100.959023 
	C315.139557,100.959023 315.058868,100.962410 315.023224,101.300446 
	C315.824585,102.672562 316.661621,103.706650 317.498657,104.740738 
z"/>
<path fill="#BDC1BE" opacity="1.000000" stroke="none" 
	d="
M452.889404,77.888641 
	C451.599976,77.890678 450.310577,77.892723 448.634979,77.915588 
	C445.381897,75.971924 442.515015,74.007431 439.332275,71.890930 
	C438.115082,70.051888 437.213715,68.364845 436.113403,66.416656 
	C435.285095,58.618805 437.632111,52.600918 444.544525,48.758335 
	C445.432495,48.264709 445.901611,47.017593 446.896545,45.951218 
	C449.013641,47.254707 450.798950,48.726501 452.434204,50.691586 
	C452.695740,55.453709 449.282562,57.107498 446.618195,59.084209 
	C443.965668,61.052170 443.941162,63.037998 447.308838,64.990448 
	C447.951935,68.424950 449.539764,69.679802 452.927063,68.501450 
	C453.302673,66.344147 453.680359,64.175018 454.117493,61.696796 
	C454.127380,61.183807 454.077820,60.979904 453.958405,60.389854 
	C453.908691,58.956642 453.928772,57.909584 453.956390,56.925285 
	C453.963898,56.988045 453.837738,56.995930 454.160645,56.844948 
	C454.654510,56.002888 454.825500,55.311802 454.996460,54.620720 
	C456.165375,55.015820 457.334259,55.410919 459.119415,55.907745 
	C460.080292,56.026318 460.424927,56.043167 460.964844,56.366585 
	C463.154877,57.382954 465.149628,58.092758 467.351959,58.930901 
	C468.071381,59.037884 468.583252,59.016525 469.239166,59.034416 
	C469.383209,59.073669 469.677887,59.121872 469.784668,59.526985 
	C473.266632,60.598568 476.641846,61.265034 479.801697,62.279343 
	C479.904022,67.079628 480.221619,71.532066 480.232574,76.025108 
	C479.307892,76.048134 478.689850,76.030548 477.830170,75.707657 
	C472.028778,74.613998 466.443909,73.967865 460.917389,72.991554 
	C456.628571,72.233887 453.554810,72.952232 452.889404,77.888641 
z"/>
<path fill="#68ED29" opacity="1.000000" stroke="none" 
	d="
M314.359314,99.126160 
	C309.740723,101.192345 305.132935,103.342110 300.287079,104.457375 
	C298.501312,104.868370 296.153931,102.839180 293.834900,101.823174 
	C292.185913,102.692467 289.992584,103.848740 287.420166,105.007408 
	C284.291748,94.514359 285.185303,84.058983 287.591736,73.300240 
	C290.829041,75.145813 293.927429,77.223259 296.871613,79.500153 
	C299.148102,81.260727 301.101532,82.320839 302.758759,78.870613 
	C303.536285,77.251953 304.467102,75.706955 305.328430,74.128571 
	C307.204803,75.537292 309.081207,76.946007 310.972107,78.713623 
	C307.313385,78.683464 307.633270,81.802811 308.148071,83.371521 
	C309.870331,88.619324 312.186798,93.672112 314.359314,99.126160 
z"/>
<path fill="#D7B800" opacity="1.000000" stroke="none" 
	d="
M446.297974,135.304077 
	C463.441101,129.643402 466.792755,113.030151 473.930115,99.471344 
	C475.683441,96.140579 476.577789,92.357651 478.064758,88.110619 
	C481.871918,85.206490 481.175171,81.272850 482.308289,78.139328 
	C484.738525,79.375412 486.873901,80.417870 489.057495,81.587158 
	C489.207977,81.861229 489.321014,81.999580 489.444946,82.129044 
	C489.591492,82.928787 490.086823,83.866478 489.833160,84.507950 
	C484.719391,97.438385 479.955566,110.532845 474.209808,123.180199 
	C468.862213,134.951065 458.657440,137.693817 446.297974,135.304077 
z"/>
<path fill="#68ED29" opacity="1.000000" stroke="none" 
	d="
M311.973083,80.375366 
	C313.995026,80.500946 315.934326,81.253349 316.887695,78.111450 
	C318.023560,74.368309 321.931152,73.810143 324.148224,75.366142 
	C329.440216,79.080215 333.941162,75.759575 339.149048,75.005539 
	C337.911835,81.570137 336.573273,88.231834 334.505432,94.658920 
	C333.741486,97.033287 331.510834,100.168007 329.491608,100.552353 
	C327.554871,100.921005 324.398529,98.662163 322.878448,96.703934 
	C318.937775,91.627342 315.602753,86.080597 311.973083,80.375366 
z"/>
<path fill="#BEFB20" opacity="1.000000" stroke="none" 
	d="
M342.146454,101.410698 
	C344.805695,103.938377 347.321991,104.535484 350.603577,101.776337 
	C353.481506,99.356598 356.250305,99.790016 359.342285,102.544548 
	C361.215240,104.213112 364.609833,104.173668 367.752441,105.010307 
	C368.108582,105.858475 368.033020,106.597931 367.665161,107.885132 
	C367.244263,108.941833 367.115692,109.450790 366.987152,109.959747 
	C366.038300,115.492325 363.130280,119.580528 357.399841,122.080841 
	C356.172211,122.318428 355.601837,122.547707 355.031494,122.776978 
	C354.567352,122.829346 354.103180,122.881721 353.075500,122.654755 
	C351.939056,122.276360 351.366211,122.177299 350.793335,122.078247 
	C345.826996,119.440453 342.745453,115.440269 341.960846,108.992599 
	C341.971130,107.034683 341.943726,105.891159 341.916290,104.747643 
	C341.957611,103.755280 341.998932,102.762917 342.146454,101.410698 
z"/>
<path fill="#4F646A" opacity="1.000000" stroke="none" 
	d="
M489.009247,81.460327 
	C486.873901,80.417870 484.738525,79.375412 482.194641,77.844910 
	C481.370483,76.899414 480.954865,76.441956 480.539246,75.984497 
	C480.221619,71.532066 479.904022,67.079628 480.171997,62.271011 
	C481.863983,62.265156 482.970398,62.615475 484.223511,63.266903 
	C485.589508,65.052040 486.808807,66.536072 487.825317,68.081573 
	C487.658264,68.319527 487.694061,68.496010 487.729858,68.672493 
	C487.803558,68.432327 487.877258,68.192169 488.252502,68.041718 
	C488.956726,68.014771 489.359436,67.898109 489.780945,68.164070 
	C490.158051,69.694244 490.516388,70.841789 490.913055,72.391167 
	C493.078644,72.796028 495.296906,73.148674 497.288208,72.629921 
	C498.084167,72.422569 499.156403,69.655029 498.752228,69.163467 
	C497.684509,67.864914 495.878052,67.173805 494.150513,66.117722 
	C493.935333,65.994553 493.811462,65.519783 494.010742,65.255600 
	C494.190674,64.254837 494.171356,63.518269 494.080383,62.491653 
	C493.972626,61.803429 493.936523,61.405251 494.072571,60.864258 
	C493.729156,60.465904 493.213531,60.210373 492.722015,59.640831 
	C492.496033,58.818428 492.245941,58.310028 491.987732,57.653591 
	C491.979645,57.505558 492.033417,57.213959 492.267303,57.074318 
	C492.664886,56.856026 492.828583,56.777382 493.269836,56.677925 
	C494.036255,56.108242 494.525116,55.559364 495.335754,54.893707 
	C496.717407,54.511597 497.777283,54.246269 498.990234,54.266289 
	C499.513123,55.084240 499.882935,55.616840 500.252747,56.149445 
	C500.227264,56.513996 500.384857,56.762466 500.961975,57.371063 
	C504.828522,63.287876 507.110565,69.488213 502.157654,74.626701 
	C498.908661,77.997429 493.468231,79.255882 489.009247,81.460327 
z"/>
<path fill="#69E728" opacity="1.000000" stroke="none" 
	d="
M106.119987,103.504997 
	C102.492905,101.541771 98.903687,100.679344 95.233124,104.146278 
	C94.762352,104.590942 92.954582,103.730606 91.815750,103.332870 
	C89.853058,102.647400 87.929337,101.850342 85.612625,101.127289 
	C90.799606,93.334831 100.799896,94.301895 106.119987,103.504997 
z"/>
<path fill="#A1890C" opacity="1.000000" stroke="none" 
	d="
M324.049286,112.536575 
	C326.028015,109.897858 327.939514,107.648567 330.685120,104.417717 
	C331.005829,110.398476 331.269989,115.324158 331.572510,120.965714 
	C329.008301,121.218758 326.344421,121.481636 323.005737,121.811111 
	C323.385315,118.356781 323.683655,115.641396 324.049286,112.536575 
z"/>
<path fill="#67DE26" opacity="1.000000" stroke="none" 
	d="
M438.856384,99.484573 
	C437.109375,100.776390 434.767303,103.050301 432.966095,102.681641 
	C428.399994,101.747093 424.582642,102.430161 420.733398,104.818756 
	C419.546021,105.555565 417.863190,105.493912 416.000702,105.750725 
	C416.854218,101.835815 419.688843,100.373566 423.575500,100.210388 
	C428.557373,100.001236 433.530640,99.588432 438.856384,99.484573 
z"/>
<path fill="#AFB5B3" opacity="1.000000" stroke="none" 
	d="
M489.057495,81.587158 
	C493.468231,79.255882 498.908661,77.997429 502.157654,74.626701 
	C507.110565,69.488213 504.828522,63.287876 501.158508,57.501045 
	C505.164429,58.927868 507.693298,64.401321 506.770721,69.388214 
	C505.276154,77.466888 499.502747,81.953583 489.923950,82.118576 
	C489.321014,81.999580 489.207977,81.861229 489.057495,81.587158 
z"/>
<path fill="#A18A0C" opacity="1.000000" stroke="none" 
	d="
M67.125580,132.029663 
	C65.170288,134.040375 63.498932,135.824997 61.759327,137.682465 
	C60.775814,132.112839 63.522903,127.450264 70.515915,122.995972 
	C71.223953,124.410019 71.918045,125.796219 72.764435,127.486572 
	C70.933449,128.962662 69.171478,130.383102 67.125580,132.029663 
z"/>
<path fill="#5FE027" opacity="1.000000" stroke="none" 
	d="
M220.000946,75.093124 
	C226.028549,78.976089 232.157837,77.282661 238.568390,75.316345 
	C236.888123,77.636909 234.935211,79.597939 232.982300,81.558968 
	C232.893417,81.713379 232.773239,81.837440 232.508255,81.994049 
	C231.016739,81.675514 229.651627,81.031433 228.258179,80.962807 
	C224.356384,80.770645 221.366226,79.415939 220.000946,75.093124 
z"/>
<path fill="#68E327" opacity="1.000000" stroke="none" 
	d="
M177.934601,104.667160 
	C174.075912,105.038155 170.018356,105.521545 168.182022,100.402573 
	C171.814316,100.330124 175.741882,100.283043 177.934601,104.667160 
z"/>
<path fill="#BEFB20" opacity="1.000000" stroke="none" 
	d="
M180.088089,132.265289 
	C183.220032,132.066833 186.732040,132.047150 190.721466,132.046082 
	C187.621979,132.191177 184.045074,132.317642 180.088089,132.265289 
z"/>
<path fill="#514E2F" opacity="1.000000" stroke="none" 
	d="
M500.507751,55.972065 
	C499.882935,55.616840 499.513123,55.084240 499.046204,54.018448 
	C498.937744,53.316906 498.926422,53.148563 498.915131,52.980217 
	C499.689545,52.688244 500.463959,52.396271 501.547241,52.079697 
	C501.491669,53.301628 501.127197,54.548161 500.507751,55.972065 
z"/>
<path fill="#BEFB20" opacity="1.000000" stroke="none" 
	d="
M161.665344,101.185028 
	C161.136261,102.422150 160.271637,103.647194 159.042389,104.872574 
	C159.561768,103.639580 160.445770,102.406265 161.665344,101.185028 
z"/>
<path fill="#BEFB20" opacity="1.000000" stroke="none" 
	d="
M214.038177,107.359138 
	C213.993988,106.336617 214.000961,105.652412 214.018158,104.633141 
	C214.109756,103.967285 214.281036,103.692688 214.772797,103.401520 
	C214.990402,105.330650 214.977432,107.332542 214.943497,109.775421 
	C214.644791,109.376770 214.367065,108.537117 214.038177,107.359138 
z"/>
<path fill="#68ED29" opacity="1.000000" stroke="none" 
	d="
M317.390839,104.421753 
	C316.661621,103.706650 315.824585,102.672562 315.038269,101.262970 
	C315.820312,101.959229 316.551666,103.030998 317.390839,104.421753 
z"/>
<path fill="#BDFA20" opacity="1.000000" stroke="none" 
	d="
M341.747009,105.024170 
	C341.943726,105.891159 341.971130,107.034683 341.992676,108.606110 
	C341.850433,107.789581 341.714081,106.545135 341.747009,105.024170 
z"/>
<path fill="#BEFB20" opacity="1.000000" stroke="none" 
	d="
M212.260361,112.849495 
	C212.153412,111.958382 212.256424,110.778130 212.579437,109.319588 
	C212.689728,110.214317 212.580032,111.387337 212.260361,112.849495 
z"/>
<path fill="#BEFB20" opacity="1.000000" stroke="none" 
	d="
M172.033752,131.313232 
	C172.671707,131.178696 173.559616,131.278625 174.705582,131.596497 
	C174.070328,131.725540 173.177017,131.636627 172.033752,131.313232 
z"/>
<path fill="#BEFB20" opacity="1.000000" stroke="none" 
	d="
M157.123352,115.350143 
	C157.447968,115.815842 157.717407,116.607002 157.983261,117.725754 
	C157.675842,117.260765 157.372009,116.468178 157.123352,115.350143 
z"/>
<path fill="#BEFB20" opacity="1.000000" stroke="none" 
	d="
M195.332764,131.809540 
	C195.551422,131.529236 196.066895,131.294861 196.875092,131.061981 
	C196.655060,131.327469 196.142319,131.591461 195.332764,131.809540 
z"/>
<path fill="#69E728" opacity="1.000000" stroke="none" 
	d="
M107.651573,104.833809 
	C107.311890,104.814644 106.812172,104.567818 106.208557,104.046349 
	C106.566956,104.049850 107.029243,104.328003 107.651573,104.833809 
z"/>
<path fill="#69ED29" opacity="1.000000" stroke="none" 
	d="
M283.299805,104.713913 
	C283.145905,104.415543 283.165558,103.942612 283.348938,103.287857 
	C283.499542,103.583809 283.486420,104.061584 283.299805,104.713913 
z"/>
<path fill="#BDFA20" opacity="1.000000" stroke="none" 
	d="
M367.184937,109.771927 
	C367.115692,109.450790 367.244263,108.941833 367.557251,108.241585 
	C367.622009,108.561562 367.502350,109.072838 367.184937,109.771927 
z"/>
<path fill="#BEFB20" opacity="1.000000" stroke="none" 
	d="
M186.679169,113.285751 
	C186.480911,113.531792 186.016479,113.753204 185.287949,113.990585 
	C185.486893,113.758072 185.949951,113.509598 186.679169,113.285751 
z"/>
<path fill="#BEFB20" opacity="1.000000" stroke="none" 
	d="
M211.198029,117.814644 
	C211.121628,117.492393 211.238327,116.975410 211.534119,116.259048 
	C211.605835,116.579742 211.498474,117.099823 211.198029,117.814644 
z"/>
<path fill="#BDFA20" opacity="1.000000" stroke="none" 
	d="
M350.984100,122.319962 
	C351.366211,122.177299 351.939056,122.276360 352.733124,122.570381 
	C352.361176,122.697456 351.768005,122.629562 350.984100,122.319962 
z"/>
<path fill="#BDFA20" opacity="1.000000" stroke="none" 
	d="
M355.352112,122.838959 
	C355.601837,122.547707 356.172211,122.318428 357.061218,122.108139 
	C356.810791,122.385056 356.241760,122.642998 355.352112,122.838959 
z"/>
<path fill="#BDFA20" opacity="1.000000" stroke="none" 
	d="
M369.009460,105.271149 
	C369.167114,105.252235 369.450531,105.467209 369.840393,105.931519 
	C369.676300,105.955589 369.405762,105.730309 369.009460,105.271149 
z"/>
<path fill="#69ED29" opacity="1.000000" stroke="none" 
	d="
M196.697052,104.992310 
	C197.070343,105.276947 196.988266,105.577606 196.479675,105.936295 
	C196.322617,105.722054 196.385468,105.393394 196.697052,104.992310 
z"/>
<path fill="#69EE2A" opacity="1.000000" stroke="none" 
	d="
M393.319031,103.526749 
	C393.081543,103.601166 392.741730,103.412178 392.370178,102.916870 
	C392.631195,102.828156 392.923920,103.045761 393.319031,103.526749 
z"/>
<path fill="#68ED29" opacity="1.000000" stroke="none" 
	d="
M315.154358,100.693436 
	C314.868042,100.711021 314.596497,100.463028 314.416412,99.934525 
	C314.728271,99.911972 314.948700,100.169914 315.154358,100.693436 
z"/>
<path fill="#BEFB20" opacity="1.000000" stroke="none" 
	d="
M165.738510,100.079681 
	C165.975876,100.149811 165.641235,100.474442 165.641235,100.474442 
	C165.641235,100.474442 165.208069,100.400429 165.115417,100.268669 
	C165.022766,100.136909 165.501144,100.009544 165.738510,100.079681 
z"/>
<path fill="#69ED29" opacity="1.000000" stroke="none" 
	d="
M128.439392,98.769897 
	C128.554855,99.022125 128.392731,99.381294 127.934235,99.837158 
	C127.812508,99.581512 127.987152,99.229172 128.439392,98.769897 
z"/>
<path fill="#68ED29" opacity="1.000000" stroke="none" 
	d="
M311.002625,79.264580 
	C311.223022,79.185875 311.514801,79.377693 311.900665,79.821198 
	C311.687805,79.893631 311.380920,79.714371 311.002625,79.264580 
z"/>
<path fill="#F9DF2E" opacity="1.000000" stroke="none" 
	d="
M498.675079,52.724861 
	C498.926422,53.148563 498.937744,53.316906 498.893127,53.733097 
	C497.777283,54.246269 496.717407,54.511597 495.043030,54.927013 
	C493.949768,55.617645 493.471008,56.158184 492.992279,56.698730 
	C492.828583,56.777382 492.664886,56.856026 491.952606,57.079823 
	C491.260529,57.506435 491.117065,57.787899 490.963013,58.028755 
	C490.952423,57.988155 491.029205,57.954365 490.630280,57.782494 
	C483.380188,58.114376 476.529053,58.618126 469.677887,59.121872 
	C469.677887,59.121872 469.383209,59.073669 469.086548,58.835606 
	C468.241394,58.665882 467.692902,58.734226 467.144409,58.802567 
	C465.149628,58.092758 463.154877,57.382954 460.921631,56.094620 
	C460.145172,55.016869 459.607239,54.517647 459.069305,54.018425 
	C452.171417,45.432144 452.239349,43.754089 460.235138,32.378056 
	C460.918365,31.900661 461.294189,31.856806 461.986023,31.845404 
	C462.851013,31.623089 463.399994,31.368320 464.231567,31.033119 
	C465.014954,30.676048 465.515778,30.399406 466.362244,30.080887 
	C467.763550,29.673353 468.819122,29.307697 470.155090,29.041737 
	C470.934662,28.384052 471.433929,27.626671 471.971863,26.485695 
	C476.502075,14.558310 470.244843,5.312551 461.302612,7.027344 
	C462.733032,5.653084 464.163422,4.278822 465.972229,2.814589 
	C468.793365,3.872872 471.222870,5.050325 473.682678,6.160648 
	C475.861664,7.144206 478.074371,8.053103 480.644104,9.471867 
	C479.622375,16.360590 478.193024,22.765234 476.901703,29.197607 
	C476.796295,29.722692 477.632904,30.436890 478.184753,31.261707 
	C478.888702,31.318783 479.439758,31.177361 480.326965,31.028915 
	C481.111389,31.029583 481.559631,31.037275 482.136414,31.247192 
	C482.480225,31.699923 482.746246,31.871927 483.330017,32.101646 
	C485.106415,32.587215 486.615814,32.936577 488.446350,33.302071 
	C490.507416,34.593468 492.247345,35.868732 493.987274,37.143997 
	C494.161102,37.601383 494.207306,38.195019 494.528107,38.495499 
	C498.667877,42.372993 500.463074,46.879459 498.675079,52.724861 
M460.000000,43.000000 
	C460.000000,43.000000 460.002777,42.994633 460.099213,43.703354 
	C461.774139,46.425938 463.787598,48.099724 467.712555,45.887520 
	C470.229248,44.946911 470.469299,43.050251 468.149658,42.310719 
	C465.643524,41.511742 462.710480,42.051819 459.675476,42.204380 
	C459.785431,42.469109 459.895386,42.733837 460.000000,43.000000 
M485.823242,45.755844 
	C485.610565,44.985199 485.397888,44.214558 485.185211,43.443913 
	C484.814789,43.611958 484.444366,43.780003 484.073944,43.948048 
	C484.525635,44.688892 484.977356,45.429737 485.823242,45.755844 
M480.469086,45.143814 
	C480.539246,44.755730 480.609406,44.367645 480.679596,43.979565 
	C480.511902,44.275593 480.344238,44.571625 480.469086,45.143814 
z"/>
<path fill="#F9F9F9" opacity="1.000000" stroke="none" 
	d="
M494.301147,36.988926 
	C492.247345,35.868732 490.507416,34.593468 488.211975,32.994736 
	C488.519836,31.070086 489.604309,29.531107 490.085236,27.822268 
	C490.199860,27.415092 487.769257,25.635313 487.416016,25.867306 
	C485.951996,26.828869 484.837219,28.321218 483.588135,29.612782 
	C483.476257,29.728422 483.320679,29.801744 483.177429,29.485909 
	C482.970581,26.432188 481.897522,23.444172 482.770447,21.219942 
	C484.207733,17.557858 486.904602,14.390128 489.070435,11.013989 
	C492.925293,8.337806 496.875366,10.416093 498.807556,12.844159 
	C501.183655,15.830050 503.082245,20.479971 502.647156,24.105837 
	C502.054382,29.045538 500.189545,34.441875 494.301147,36.988926 
z"/>
<path fill="#EAC909" opacity="1.000000" stroke="none" 
	d="
M488.812683,10.977643 
	C486.904602,14.390128 484.207733,17.557858 482.770447,21.219942 
	C481.897522,23.444172 482.970581,26.432188 483.153809,29.750195 
	C483.067322,30.585394 482.996460,30.747488 482.697083,30.949694 
	C482.468597,30.989807 482.007874,31.044964 482.007874,31.044964 
	C481.559631,31.037275 481.111389,31.029583 480.000244,31.017521 
	C478.902191,31.029833 478.467010,31.046516 478.031799,31.063206 
	C477.632904,30.436890 476.796295,29.722692 476.901703,29.197607 
	C478.193024,22.765234 479.622375,16.360590 481.020447,9.544605 
	C484.433594,8.099497 487.842316,7.058555 491.626099,6.082207 
	C490.634277,7.548250 489.264801,8.947269 487.913788,10.363915 
	C487.876495,10.402991 488.006989,10.665723 488.114807,10.761929 
	C488.226166,10.861328 488.405365,10.884670 488.812683,10.977643 
z"/>
<path fill="#F9F9F9" opacity="1.000000" stroke="none" 
	d="
M461.099792,7.327030 
	C470.244843,5.312551 476.502075,14.558310 471.729431,26.585747 
	C471.034241,27.384626 470.620209,27.699862 470.132233,27.633738 
	C469.164459,25.877188 468.420654,24.346600 467.270905,23.236492 
	C466.984772,22.960262 464.549988,24.032694 464.544373,24.502565 
	C464.525238,26.090263 465.140350,27.689241 465.546844,29.275236 
	C465.624451,29.577984 465.856049,29.841267 466.016571,30.122765 
	C465.515778,30.399406 465.014954,30.676048 463.901947,30.956516 
	C462.749817,31.244545 462.209900,31.528744 461.669983,31.812944 
	C461.294189,31.856806 460.918365,31.900661 460.273834,32.037434 
	C458.887939,31.823563 457.770813,31.516771 456.290039,30.845488 
	C455.820129,30.174944 455.612244,29.974003 455.276001,29.538364 
	C454.873871,28.424437 454.498474,27.650318 454.090454,26.562082 
	C453.986420,25.834633 453.914978,25.421299 453.899231,24.684559 
	C453.908752,23.930645 453.862610,23.500139 453.816498,23.069632 
	C452.183228,16.188215 455.346619,10.462338 461.099792,7.327030 
z"/>
<path fill="#202426" opacity="1.000000" stroke="none" 
	d="
M454.028198,60.776009 
	C454.077820,60.979904 454.127380,61.183807 453.689178,61.699612 
	C451.609528,62.016655 449.938354,61.738422 448.460724,62.151901 
	C447.769043,62.345451 447.451141,63.874710 446.963867,64.798599 
	C443.941162,63.037998 443.965668,61.052170 446.618195,59.084209 
	C449.282562,57.107498 452.695740,55.453709 452.625732,50.944122 
	C453.339905,51.532276 453.712463,52.361183 454.024048,53.906097 
	C453.921295,55.413376 453.879517,56.204655 453.837738,56.995930 
	C453.837738,56.995930 453.963898,56.988045 453.659912,57.123821 
	C453.580048,58.431736 453.804138,59.603870 454.028198,60.776009 
z"/>
<path fill="#F9DE2A" opacity="1.000000" stroke="none" 
	d="
M453.843536,25.007967 
	C453.914978,25.421299 453.986420,25.834633 453.894348,26.759930 
	C454.254822,28.140656 454.778778,29.009417 455.302765,29.878174 
	C455.612244,29.974003 455.820129,30.174944 455.962372,30.701385 
	C455.571320,31.906296 455.144287,32.890816 454.085876,34.073273 
	C452.942719,35.512234 452.430939,36.753258 451.919128,37.994278 
	C451.312927,38.563469 450.706726,39.132664 450.100525,39.701859 
	C449.875824,38.547066 449.285889,37.321507 449.493469,36.250477 
	C450.170746,32.755249 451.138947,29.316387 452.308533,25.427578 
	C453.029022,25.002197 453.436279,25.005083 453.843536,25.007967 
z"/>
<path fill="#F0D629" opacity="1.000000" stroke="none" 
	d="
M452.226074,37.834145 
	C452.430939,36.753258 452.942719,35.512234 453.746521,34.145432 
	C453.536713,35.237778 453.034851,36.455891 452.226074,37.834145 
z"/>
<path fill="#F0D629" opacity="1.000000" stroke="none" 
	d="
M453.899231,24.684559 
	C453.436279,25.005083 453.029022,25.002197 452.316528,24.996613 
	C452.417450,24.383953 452.823669,23.773993 453.523193,23.116833 
	C453.862610,23.500139 453.908752,23.930645 453.899231,24.684559 
z"/>
<path fill="#F9DE2A" opacity="1.000000" stroke="none" 
	d="
M459.068390,54.326172 
	C459.607239,54.517647 460.145172,55.016869 460.726349,55.788055 
	C460.424927,56.043167 460.080292,56.026318 459.491394,55.930233 
	C459.187225,55.445301 459.127350,55.039608 459.068390,54.326172 
z"/>
<path fill="#EFEFEF" opacity="1.000000" stroke="none" 
	d="
M454.160645,56.844948 
	C453.879517,56.204655 453.921295,55.413376 454.092712,54.246132 
	C454.481964,53.930439 454.694855,54.064674 454.928741,54.446793 
	C454.825500,55.311802 454.654510,56.002888 454.160645,56.844948 
z"/>
<path fill="#010401" opacity="1.000000" stroke="none" 
	d="
M60.041985,72.628983 
	C59.791641,75.243256 59.702984,77.606201 59.022152,79.784012 
	C57.386806,85.015076 53.207134,88.138016 48.487511,88.021355 
	C43.298649,87.893082 39.218262,84.378128 37.702152,78.388306 
	C38.687920,70.735817 41.560474,66.816864 46.736557,66.084167 
	C51.803226,65.366974 58.127541,66.830429 60.041985,72.628983 
z"/>
<path fill="#010501" opacity="1.000000" stroke="none" 
	d="
M191.763763,75.598137 
	C187.387589,83.028152 179.831589,83.661484 174.581085,76.423019 
	C174.267212,75.193169 174.166428,74.560806 174.065659,73.928436 
	C174.338989,73.156258 174.727905,72.404366 174.867523,71.608719 
	C176.078186,64.710411 178.160187,62.841557 184.591782,62.965771 
	C189.449158,63.059586 191.102219,65.093872 191.999405,72.836960 
	C191.903427,74.239410 191.833588,74.918777 191.763763,75.598137 
z"/>
<path fill="#69EE2A" opacity="1.000000" stroke="none" 
	d="
M158.345520,75.848061 
	C159.893478,80.397903 155.324860,80.227348 153.213211,81.425552 
	C152.036041,82.093506 149.168381,80.212860 147.338837,79.047119 
	C146.763962,78.680824 147.087891,76.903931 147.000488,75.358200 
	C148.612549,76.418037 150.224564,77.892342 152.112778,79.619240 
	C153.868820,78.529320 155.948318,77.238640 158.345520,75.848061 
z"/>
<path fill="#69EE2A" opacity="1.000000" stroke="none" 
	d="
M173.755859,74.079369 
	C174.166428,74.560806 174.267212,75.193169 174.345703,76.143417 
	C173.635605,77.385284 173.140091,78.673637 172.220703,79.158836 
	C170.190475,80.230301 167.765289,81.797356 165.854218,81.411942 
	C164.586502,81.156258 163.930069,77.869576 163.000031,75.547737 
	C164.629623,76.646805 166.259216,78.137825 168.117386,79.837997 
	C169.941147,77.918739 171.693604,76.074516 173.755859,74.079369 
z"/>
<path fill="#69EE2A" opacity="1.000000" stroke="none" 
	d="
M140.695007,77.199692 
	C140.715012,81.109467 139.143097,82.072166 135.821091,79.356720 
	C134.474838,78.256271 132.902267,77.432693 131.207275,76.224808 
	C132.283951,75.033051 133.586014,74.099625 133.719330,74.004059 
	C136.534164,75.405365 138.448349,76.358315 140.695007,77.199692 
z"/>
<path fill="#69EE2A" opacity="1.000000" stroke="none" 
	d="
M123.629135,77.983749 
	C123.369942,81.139465 121.707390,81.846390 119.300095,79.687843 
	C118.019936,78.539963 117.127129,76.960106 116.009796,75.214088 
	C117.039719,75.112709 118.188416,75.219566 119.182388,75.668785 
	C120.602760,76.310715 121.909897,77.203194 123.629135,77.983749 
z"/>
<path fill="#69EE2A" opacity="1.000000" stroke="none" 
	d="
M191.968719,75.911308 
	C191.833588,74.918777 191.903427,74.239410 192.057495,73.224899 
	C194.157562,74.559921 196.173416,76.230103 198.548492,77.892708 
	C198.206421,78.856750 197.505127,79.828362 196.803833,80.799980 
	C195.864548,80.046631 194.865265,79.355118 194.004807,78.520515 
	C193.307816,77.844460 192.777786,76.996300 191.968719,75.911308 
z"/>
<path fill="#69EE2A" opacity="1.000000" stroke="none" 
	d="
M205.642578,75.245438 
	C205.805847,80.241447 202.692352,79.054779 199.283081,77.973618 
	C201.029526,77.052177 203.157791,76.210999 205.642578,75.245438 
z"/>
<path fill="#69EE2A" opacity="1.000000" stroke="none" 
	d="
M101.947464,75.530899 
	C100.218452,75.997276 98.311699,76.196976 96.142990,76.104660 
	C97.604477,73.058632 99.509407,72.253380 101.947464,75.530899 
z"/>
<path fill="#69EE2A" opacity="1.000000" stroke="none" 
	d="
M93.701431,77.167068 
	C93.163826,78.248360 92.308174,79.435226 91.452530,80.622086 
	C90.640961,79.651779 89.829391,78.681473 89.013115,77.344513 
	C90.466736,77.076126 91.925056,77.174385 93.701431,77.167068 
z"/>
<path fill="#69EE2A" opacity="1.000000" stroke="none" 
	d="
M109.646194,76.992538 
	C109.488388,79.340416 108.667847,80.962204 106.073547,78.400330 
	C107.101463,77.707695 108.197205,77.337326 109.646194,76.992538 
z"/>
<path fill="#69EE2A" opacity="1.000000" stroke="none" 
	d="
M128.887970,75.566162 
	C128.023544,76.196747 126.928848,76.602760 125.466492,77.019753 
	C126.285126,76.467682 127.471397,75.904640 128.887970,75.566162 
z"/>
<path fill="#69EE2A" opacity="1.000000" stroke="none" 
	d="
M27.939871,73.930122 
	C28.054354,73.892776 28.212856,73.902580 28.224474,73.989166 
	C28.077589,74.065933 27.983891,73.977272 27.939871,73.930122 
z"/>
<path fill="#030801" opacity="1.000000" stroke="none" 
	d="
M233.380005,81.392471 
	C234.935211,79.597939 236.888123,77.636909 238.966537,75.351929 
	C239.092041,75.027977 239.026184,75.002106 239.280060,74.983116 
	C239.750488,74.688011 239.967056,74.411896 240.183624,74.135773 
	C242.088943,72.818741 243.936035,71.406151 245.910675,70.202873 
	C251.464279,66.818680 254.065186,67.158966 258.527374,71.897690 
	C259.885284,73.339737 260.983612,75.026260 262.424225,76.813416 
	C263.553192,85.134964 260.345245,87.650246 252.925232,84.249222 
	C246.759293,81.423012 240.665573,79.061211 233.380005,81.392471 
z"/>
<path fill="#040901" opacity="1.000000" stroke="none" 
	d="
M255.791321,105.951225 
	C256.259277,108.288536 257.318665,111.639961 256.374939,112.357796 
	C254.730591,113.608490 251.742294,113.826599 249.513947,113.414467 
	C245.503662,112.672768 241.323990,111.594879 239.807785,106.479721 
	C243.871155,99.161186 248.216324,99.064049 255.791321,105.951225 
z"/>
<path fill="#010601" opacity="1.000000" stroke="none" 
	d="
M396.108948,76.960754 
	C395.655396,72.657310 400.104126,68.493370 405.082581,68.014465 
	C409.551514,67.584572 416.123657,71.718040 418.047913,76.537292 
	C410.892059,80.326111 403.701569,80.151970 396.108948,76.960754 
z"/>
<path fill="#5FE027" opacity="1.000000" stroke="none" 
	d="
M239.921112,74.199097 
	C239.967056,74.411896 239.750488,74.688011 239.267380,75.016151 
	C239.220093,74.799583 239.439346,74.530991 239.921112,74.199097 
z"/>
<path fill="#FCE12D" opacity="1.000000" stroke="none" 
	d="
M480.232574,76.025101 
	C480.954865,76.441956 481.370483,76.899414 481.899719,77.651291 
	C481.175171,81.272850 481.871918,85.206490 478.113281,87.744339 
	C473.837280,88.220345 469.710510,88.390671 465.067719,88.012573 
	C462.857788,86.455490 460.542084,85.827637 459.630737,84.339645 
	C458.543945,82.565140 457.985565,79.873787 458.503601,77.926933 
	C458.826416,76.713783 461.547058,75.454414 463.220673,75.413811 
	C468.163330,75.293892 473.120392,75.770035 478.071838,76.012970 
	C478.689850,76.030548 479.307892,76.048134 480.232574,76.025101 
z"/>
<path fill="#E8C603" opacity="1.000000" stroke="none" 
	d="
M477.830170,75.707657 
	C473.120392,75.770035 468.163330,75.293892 463.220673,75.413811 
	C461.547058,75.454414 458.826416,76.713783 458.503601,77.926933 
	C457.985565,79.873787 458.543945,82.565140 459.630737,84.339645 
	C460.542084,85.827637 462.857788,86.455490 464.791260,87.713440 
	C458.066864,87.871109 455.679047,86.028603 452.922913,78.267242 
	C453.554810,72.952232 456.628571,72.233887 460.917389,72.991554 
	C466.443909,73.967865 472.028778,74.613998 477.830170,75.707657 
z"/>
<path fill="#302D19" opacity="1.000000" stroke="none" 
	d="
M469.784668,59.526989 
	C476.529053,58.618126 483.380188,58.114376 490.456726,58.216011 
	C490.472534,60.679581 490.262970,62.537758 489.855743,64.026566 
	C488.440521,58.237362 485.963593,62.983528 484.076813,62.965797 
	C482.970398,62.615475 481.863983,62.265156 480.387299,61.923168 
	C476.641846,61.265034 473.266632,60.598568 469.784668,59.526989 
z"/>
<path fill="#242D33" opacity="1.000000" stroke="none" 
	d="
M447.308838,64.990448 
	C447.451141,63.874710 447.769043,62.345451 448.460724,62.151901 
	C449.938354,61.738422 451.609528,62.016655 453.629730,62.008701 
	C453.680359,64.175018 453.302673,66.344147 452.927063,68.501450 
	C449.539764,69.679802 447.951935,68.424950 447.308838,64.990448 
z"/>
<path fill="#EFEFEF" opacity="1.000000" stroke="none" 
	d="
M453.958374,60.389854 
	C453.804138,59.603870 453.580048,58.431736 453.652405,57.061062 
	C453.928772,57.909584 453.908691,58.956642 453.958374,60.389854 
z"/>
<path fill="#F9DE2A" opacity="1.000000" stroke="none" 
	d="
M467.351959,58.930904 
	C467.692902,58.734226 468.241394,58.665882 468.942505,58.796356 
	C468.583252,59.016525 468.071381,59.037884 467.351959,58.930904 
z"/>
<path fill="#CCBDBA" opacity="1.000000" stroke="none" 
	d="
M494.365662,66.240891 
	C495.878052,67.173805 497.684509,67.864914 498.752228,69.163467 
	C499.156403,69.655029 498.084167,72.422569 497.288208,72.629921 
	C495.296906,73.148674 493.078644,72.796028 491.018524,72.066940 
	C491.448395,70.284836 491.811127,69.228783 492.410461,68.070427 
	C492.827118,67.691788 493.007202,67.415459 493.397064,67.007584 
	C493.912262,66.726997 494.165192,66.515274 494.365662,66.240891 
z"/>
<path fill="#C7C3C0" opacity="1.000000" stroke="none" 
	d="
M484.223511,63.266907 
	C485.963593,62.983528 488.440521,58.237362 489.847534,63.984177 
	C490.036926,64.311150 489.966400,64.429245 489.979523,64.849930 
	C489.915802,66.107552 489.838959,66.944504 489.762115,67.781448 
	C489.359436,67.898109 488.956726,68.014771 488.271301,68.059296 
	C487.988586,67.987160 488.028137,68.020103 488.028137,68.020103 
	C486.808807,66.536072 485.589508,65.052040 484.223511,63.266907 
z"/>
<path fill="#E0E0E0" opacity="1.000000" stroke="none" 
	d="
M489.966400,64.429245 
	C489.966400,64.429245 490.036926,64.311150 490.045166,64.353546 
	C490.262970,62.537758 490.472534,60.679581 490.855652,58.387886 
	C491.029205,57.954365 490.952423,57.988155 491.218536,57.961906 
	C491.655029,57.890984 491.825439,57.846306 491.995850,57.801628 
	C492.245941,58.310028 492.496033,58.818428 492.614166,59.854164 
	C492.482239,60.381504 492.761932,60.769234 492.780334,60.825867 
	C492.798737,60.882496 492.919983,60.904732 492.594757,61.104202 
	C492.215424,62.568176 492.161285,63.832687 491.735596,65.016815 
	C490.898193,64.767365 490.432281,64.598305 489.966400,64.429245 
z"/>
<path fill="#242324" opacity="1.000000" stroke="none" 
	d="
M489.979523,64.849930 
	C490.432281,64.598305 490.898193,64.767365 491.711548,64.994797 
	C492.059052,65.053169 492.009033,65.013588 492.023987,65.273758 
	C492.357086,65.361641 492.675232,65.189346 492.970093,65.032043 
	C492.946747,65.047028 492.908630,65.087296 493.107849,65.250717 
	C493.475189,65.449356 493.643341,65.484573 493.811462,65.519783 
	C493.811462,65.519783 493.935333,65.994553 494.150513,66.117722 
	C494.165192,66.515274 493.912262,66.726997 493.128784,67.052872 
	C492.491730,67.544037 492.332794,67.858383 492.173889,68.172737 
	C491.811127,69.228783 491.448395,70.284836 490.980164,71.665115 
	C490.516388,70.841789 490.158051,69.694244 489.780945,68.164070 
	C489.838959,66.944504 489.915802,66.107552 489.979523,64.849930 
z"/>
<path fill="#724243" opacity="1.000000" stroke="none" 
	d="
M492.761932,60.769234 
	C492.761932,60.769234 492.482239,60.381504 492.590088,60.168171 
	C493.213531,60.210373 493.729156,60.465904 493.789520,60.797401 
	C493.143494,60.838657 492.952698,60.803944 492.761932,60.769234 
z"/>
<path fill="#F9DE2A" opacity="1.000000" stroke="none" 
	d="
M493.269836,56.677921 
	C493.471008,56.158184 493.949768,55.617645 494.721252,55.043797 
	C494.525116,55.559364 494.036255,56.108242 493.269836,56.677921 
z"/>
<path fill="#B28E8D" opacity="1.000000" stroke="none" 
	d="
M494.010742,65.255600 
	C493.643341,65.484573 493.475189,65.449356 493.120117,64.999893 
	C492.967346,64.421806 493.001556,64.257973 493.308136,63.964104 
	C493.770996,63.483276 493.961517,63.132484 494.152039,62.781696 
	C494.171356,63.518269 494.190674,64.254837 494.010742,65.255600 
z"/>
<path fill="#AB0003" opacity="1.000000" stroke="none" 
	d="
M494.080383,62.491646 
	C493.961517,63.132484 493.770996,63.483276 493.294983,63.564545 
	C492.979645,62.498257 492.949829,61.701492 492.919983,60.904732 
	C492.919983,60.904732 492.798737,60.882496 492.780334,60.825867 
	C492.952698,60.803944 493.143494,60.838657 493.617340,60.940224 
	C493.936523,61.405251 493.972626,61.803429 494.080383,62.491646 
z"/>
<path fill="#C7C3C0" opacity="1.000000" stroke="none" 
	d="
M487.969788,67.969582 
	C487.877258,68.192169 487.803558,68.432327 487.729858,68.672493 
	C487.694061,68.496010 487.658264,68.319527 487.825317,68.081573 
	C488.028137,68.020103 487.988586,67.987160 487.969788,67.969582 
z"/>
<path fill="#302D19" opacity="1.000000" stroke="none" 
	d="
M491.987732,57.653595 
	C491.825439,57.846306 491.655029,57.890984 491.229126,58.002510 
	C491.117065,57.787899 491.260529,57.506435 491.718719,57.219467 
	C492.033417,57.213959 491.979645,57.505558 491.987732,57.653595 
z"/>
<path fill="#1E1E1C" opacity="1.000000" stroke="none" 
	d="
M482.925598,30.909580 
	C482.996460,30.747488 483.067322,30.585394 483.161804,30.159016 
	C483.320679,29.801744 483.476257,29.728422 483.588135,29.612782 
	C484.837219,28.321218 485.951996,26.828869 487.416016,25.867306 
	C487.769257,25.635313 490.199860,27.415092 490.085236,27.822268 
	C489.604309,29.531107 488.519836,31.070086 487.890808,32.978607 
	C486.615814,32.936577 485.106415,32.587215 483.339508,31.832077 
	C483.029846,31.254061 482.977722,31.081820 482.925598,30.909580 
z"/>
<path fill="#121212" opacity="1.000000" stroke="none" 
	d="
M466.362244,30.080887 
	C465.856049,29.841267 465.624451,29.577984 465.546844,29.275236 
	C465.140350,27.689241 464.525238,26.090263 464.544373,24.502565 
	C464.549988,24.032694 466.984772,22.960262 467.270905,23.236492 
	C468.420654,24.346600 469.164459,25.877188 470.038574,27.861549 
	C470.018860,28.470722 469.874725,28.942034 469.874725,28.942038 
	C468.819122,29.307697 467.763550,29.673353 466.362244,30.080887 
z"/>
<path fill="#D7BB09" opacity="1.000000" stroke="none" 
	d="
M459.963654,42.007809 
	C462.710480,42.051819 465.643524,41.511742 468.149658,42.310719 
	C470.469299,43.050251 470.229248,44.946911 467.285187,45.564598 
	C464.572815,44.492657 462.287781,43.743641 460.002777,42.994629 
	C460.002777,42.994633 460.000000,43.000000 459.992828,42.751572 
	C459.985657,42.503139 459.963654,42.007809 459.963654,42.007809 
z"/>
<path fill="#F9DE2A" opacity="1.000000" stroke="none" 
	d="
M460.050995,43.348991 
	C462.287781,43.743641 464.572815,44.492657 466.947632,45.592190 
	C463.787598,48.099724 461.774139,46.425938 460.050995,43.348991 
z"/>
<path fill="#F9DE2A" opacity="1.000000" stroke="none" 
	d="
M485.626160,45.963211 
	C484.977356,45.429737 484.525635,44.688892 484.073944,43.948048 
	C484.444366,43.780003 484.814789,43.611958 485.185211,43.443913 
	C485.397888,44.214558 485.610565,44.985199 485.626160,45.963211 
z"/>
<path fill="#F9DE2A" opacity="1.000000" stroke="none" 
	d="
M470.155090,29.041733 
	C469.874725,28.942034 470.018860,28.470722 470.112518,28.242908 
	C470.620209,27.699862 471.034241,27.384626 471.690735,26.969341 
	C471.433929,27.626671 470.934662,28.384052 470.155090,29.041733 
z"/>
<path fill="#F9DE2A" opacity="1.000000" stroke="none" 
	d="
M480.322815,45.005737 
	C480.344238,44.571625 480.511902,44.275593 480.679565,43.979565 
	C480.609406,44.367645 480.539246,44.755730 480.322815,45.005737 
z"/>
<path fill="#F9DE2A" opacity="1.000000" stroke="none" 
	d="
M461.986023,31.845400 
	C462.209900,31.528744 462.749817,31.244545 463.619324,31.036949 
	C463.399994,31.368320 462.851013,31.623089 461.986023,31.845400 
z"/>
<path fill="#F9DE2A" opacity="1.000000" stroke="none" 
	d="
M478.184753,31.261700 
	C478.467010,31.046516 478.902191,31.029833 479.664062,31.024544 
	C479.439758,31.177361 478.888702,31.318783 478.184753,31.261700 
z"/>
<path fill="#F9DE2A" opacity="1.000000" stroke="none" 
	d="
M482.697083,30.949694 
	C482.977722,31.081820 483.029846,31.254061 483.072510,31.695868 
	C482.746246,31.871927 482.480225,31.699923 482.136414,31.247192 
	C482.007874,31.044964 482.468597,30.989807 482.697083,30.949694 
z"/>
<path fill="#F9DE2A" opacity="1.000000" stroke="none" 
	d="
M459.819580,42.106094 
	C459.963654,42.007809 459.985657,42.503139 459.995483,42.750851 
	C459.895386,42.733837 459.785431,42.469109 459.819580,42.106094 
z"/>
<path fill="#F0D629" opacity="1.000000" stroke="none" 
	d="
M455.276001,29.538366 
	C454.778778,29.009417 454.254822,28.140656 453.926971,27.074047 
	C454.498474,27.650318 454.873871,28.424437 455.276001,29.538366 
z"/>
<path fill="#636D6F" opacity="1.000000" stroke="none" 
	d="
M492.410461,68.070427 
	C492.332794,67.858383 492.491730,67.544037 492.918945,67.184410 
	C493.007202,67.415459 492.827118,67.691788 492.410461,68.070427 
z"/>
<path fill="#311D1D" opacity="1.000000" stroke="none" 
	d="
M492.594757,61.104202 
	C492.949829,61.701492 492.979645,62.498257 493.022644,63.694580 
	C493.001556,64.257973 492.967346,64.421806 492.920898,64.836464 
	C492.908630,65.087296 492.946747,65.047028 492.724060,65.014481 
	C492.501343,64.981934 492.009033,65.013588 492.009033,65.013588 
	C492.009033,65.013588 492.059052,65.053169 492.083099,65.075180 
	C492.161285,63.832687 492.215424,62.568176 492.594757,61.104202 
z"/>
<path fill="#636D6F" opacity="1.000000" stroke="none" 
	d="
M492.023987,65.273758 
	C492.009033,65.013588 492.501343,64.981934 492.747375,64.999496 
	C492.675232,65.189346 492.357086,65.361641 492.023987,65.273758 
z"/>
</svg>